<svg width="398" height="750" xmlns="http://www.w3.org/2000/svg" viewbox="0 0 398 750" version="1.2" stroke-width=".5" stroke-linejoin="round" stroke-linecap="round" stroke="#ffffff" fill="#6f9c76" baseprofile="tiny">

 <g>
  <title>Layer 1</title>
  <g id="points">
   <circle id="0" cy="361.9" cx="90.9" class="-4.677585246151541|-91.17236996218656"/>
   <circle id="1" cy="217" cx="545.5" class="-2.0072865878189567|-82.78020890747952"/>
   <circle id="2" cy="36.2" cx="909.1" class="1.330586735096773|-76.06648006371388"/>
  </g>
  <g id="label_points">
   <circle id="ECE" cy="132.7" cx="293.7" class="Esmeraldas"/>
   <circle id="ECC" cy="134.8" cx="320.3" class="Carchi"/>
   <circle id="ECU" cy="216.5" cx="353.5" class="Sucumbios"/>
   <circle id="ECD" cy="291.9" cx="358.8" class="Orellana"/>
   <circle id="ECY" cy="380.7" cx="344.5" class="Pastaza"/>
   <circle id="ECS" cy="455.2" cx="321.4" class="Morona Santiago"/>
   <circle id="ECZ" cy="618.4" cx="301.6" class="Zamora Chinchipe"/>
   <circle id="ECL" cy="625.5" cx="285.8" class="Loja"/>
   <circle id="ECO" cy="563.5" cx="280.2" class="El Oro"/>
   <circle id="ECG" cy="392.8" cx="276.8" class="Guayas"/>
   <circle id="ECW" cy="283.6" cx="39.6" class="Galápagos"/>
   <circle id="ECSE" cy="427.8" cx="266.2" class="Santa Elena"/>
   <circle id="ECM" cy="248.8" cx="278.5" class="Manabi"/>
   <circle id="ECA" cy="515.8" cx="294.7" class="Azuay"/>
   <circle id="ECF" cy="465.9" cx="301.0" class="Cañar"/>
   <circle id="ECN" cy="333.1" cx="309.4" class="Napo"/>
   <circle id="ECT" cy="285.0" cx="321.2" class="Tungurahua"/>
   <circle id="ECH" cy="399.3" cx="304.4" class="Chimborazo"/>
   <circle id="ECB" cy="364.8" cx="297.4" class="Bolivar"/>
   <circle id="ECI" cy="161.7" cx="313.5" class="Imbabura"/>
   <circle id="ECX" cy="291.9" cx="300.8" class="Cotopaxi"/>
   <circle id="ECR" cy="358.0" cx="286.1" class="Los Rios"/>
   <circle id="ECP" cy="215.8" cx="310.0" class="Pichincha"/>
   <circle id="ECSD" cy="233.0" cx="294.6" class="Santo Domingo de los Tsáchilas"/>
  </g>
  <g id="svg_1">
   <path name="Esmeraldas" id="ECE" d="m195.5,232l-1,0.8l-0.1,0.4l0,0.8l0.2,0.9l0,1.7l-0.3,1.2l-1.3,2.1l-0.4,1l-0.2,3.1l0.2,1l0.4,1l0.2,0.2l0.7,0.6l0.5,-0.1l0.9,0.5l1,1.1l0.8,0.6l0.3,0.1l-0.1,2.1l0.1,1l-0.1,0.8l-0.3,0.6l-0.5,0.4l-0.4,0.3l-0.4,0.1l-1,0.1l-0.5,0.1l-0.5,0.3l-0.1,0.3l0.1,0.5l1.6,2.9l0.2,0.6l0.4,1.6l0.3,0.6l0.3,0.5l1.4,1.8l0.5,0.9l0,0.8l-0.1,0.7l-0.3,0.4l-0.4,0.3l-0.5,0.2l-0.8,0.1l-0.6,0l-0.8,-0.1l-0.5,0l-0.5,0.2l-1.7,1.3l-0.5,0.4l-0.7,1.1l-1.8,1.9l-1.8,2.4l-0.9,1l-0.9,0.7l-0.4,0.2l-0.4,0l-0.3,-0.1l-0.5,-0.3l-0.8,-0.8l-0.3,-0.3l-0.5,-0.2l-0.5,0l-0.6,-0.1l-1.1,-0.2l-0.6,-0.2l-1.9,-0.2l-1.6,-0.6l-0.6,0.1l-0.7,0.2l-1,0.6l-0.6,0.6l-0.7,0.7l-0.3,0.4l-0.2,0.4l0,0.3l0,0.3l-0.1,0.1l-0.6,0.4l-1.1,1.2l-1.8,2.8l-0.3,0.4l-0.2,0.2l-0.3,0l-1,0l-0.8,-1.1l-0.3,-0.2l-0.5,-0.2l-5.7,-1.2l-1.4,0l-1.3,-0.1l-0.8,0l-0.6,0.2l-1.6,1l-0.5,0.3l-0.7,0.3l-0.5,0.3l-1.1,0.9l-0.8,0.5l-1.1,0.5l-0.5,0.3l-0.3,0.4l0,0.4l0.2,0.3l1.4,1l0.5,0.4l0.4,0.4l0.1,0.4l0.1,0.3l-0.2,0.3l-0.7,1l-0.6,1.6l-0.7,1.3l-1.1,2.6l-0.3,0.6l-0.8,0.7l-0.7,0.4l-1.4,0.3l-0.5,0.3l-1,0.3l-0.1,0.3l0.1,0.3l0.6,0.8l0.2,0.1l0.1,0l0.2,0l0.2,0l0.2,0.1l0.1,0.2l0,0.3l-0.3,0.2l-0.2,0.2l-0.2,0.2l-0.1,0l-0.5,-0.5l-0.5,-0.2l-0.5,-0.3l-1.6,-0.4l-3.3,-0.4l-1.2,-0.3l-1.1,0.1l-0.9,-1.4l-0.1,-0.3l0,-0.5l0,-0.1l-0.2,-0.5l0,-0.2l0,-0.2l0.1,-0.2l0.1,-0.2l0.1,-0.1l0.1,-0.1l0.1,-0.1l0.2,0l0.1,-0.1l0.1,-0.1l0.1,-0.2l0,-0.2l0.1,-0.4l0.1,-0.2l0.1,-0.2l1.4,-1.6l0.1,-0.1l-0.1,-0.1l-0.1,0l-0.1,-0.1l-0.4,0l-0.3,-0.1l-0.5,-0.2l-1,-1l-0.4,-0.4l-0.2,-0.2l-0.2,0l-0.3,0.1l-0.5,0.3l-0.1,0.1l-0.2,0l-0.1,0l-0.1,-0.2l-0.1,-0.3l-0.1,-0.9l-0.1,-0.2l-0.1,-0.1l-0.3,0l-0.2,0.1l-0.2,0.1l-0.1,0.1l-0.2,0.1l-0.2,-0.1l-0.3,-0.1l-0.6,-0.6l-0.2,-0.2l-0.1,-0.2l0.1,-0.1l1,-1.5l0.2,-0.4l0.3,-0.4l0.3,-0.2l0.4,-0.3l0.3,-0.3l0.1,-0.2l0.1,-0.2l0,-0.1l-0.1,-0.1l-0.1,-0.2l-0.2,-0.2l-2.6,-1.5l-0.1,-0.2l-0.2,-0.2l-0.1,-0.2l0,-0.2l0,-0.2l0,-0.2l0.1,-0.2l0.1,-0.2l0.2,-0.3l0.5,-0.5l0.1,-0.1l0,-0.1l0,-0.1l0,-0.1l-0.1,-0.2l-0.1,-0.1l-0.4,-0.5l-0.6,-0.4l-0.2,-0.1l-0.3,-0.2l-0.3,0l-0.4,0.1l-0.7,0.3l-0.3,0.2l-0.3,0.2l-1.1,1.2l-0.6,0.4l-0.3,0.2l-0.7,0.3l-1,0.2l-0.9,0l-1.9,-0.1l-0.1,0.1l-0.2,0l-0.1,0.1l-0.1,0.1l0,0.1l-0.1,0.6l-0.3,0.6l-0.2,0.5l-0.2,0.2l-0.2,0.2l-0.2,0.2l-0.2,0.2l-0.4,0.3l-0.1,0.1l-0.3,0l-0.3,0l-0.4,-0.1l-0.4,-0.1l-0.4,-0.2l-0.7,-0.9l-1.3,-3.3l0.3,-0.7l0.1,-0.4l-0.1,-0.7l-0.3,-0.5l-0.7,-0.7l-1.3,-2.1l-0.4,-1.1l-0.2,-1.1l0.2,-1.2l0.4,-0.6l0.4,-0.5l0.5,-0.9l0.1,-1.1l-0.3,-1.1l-0.4,-1l-0.3,-1.5l-0.5,-0.7l-0.8,-0.4l-1,-0.1l-0.7,-0.3l-0.4,-0.6l-0.3,-0.9l-0.2,-0.8l0,-2.3l0.6,-2.3l1.1,-1.9l1.6,-1.3l1,0.4l0.8,0.1l1.8,-0.1l0.8,-0.3l1,-0.9l0.8,-0.3l0.7,-0.1l1.4,-0.5l1.7,-0.3l1,-0.8l0.7,-0.2l0.4,-0.2l1.7,-1.3l0.3,-0.4l0.7,-1l0.4,-0.4l1.3,-0.6l3.3,-1l1.4,-1l0.3,0.6l0,0.4l-1.1,3.4l0.3,0.8l0.4,0.5l0.6,0.4l0.6,0.6l0.7,1.5l0.4,0.4l-0.9,-2.5l-0.7,-0.5l-0.2,-0.4l0,-0.3l0.3,-0.5l0,-0.3l-0.1,-1.4l0.2,-1l0.4,-0.8l1,-0.5l2.3,0.7l2.6,-1.5l3.7,-3.3l1.1,-0.3l3.9,0.3l0.4,-0.1l1.3,-0.5l0.5,-0.1l1.5,0l0.7,-0.1l0.6,-0.3l1.3,0.6l1.5,-0.2l1.5,-0.5l1.4,-0.3l1,-0.5l4.1,-5.5l0.8,-0.4l1.3,0.5l1.1,0.8l0.7,1.2l0.3,1.3l0.2,1.5l1,-0.5l0.6,-0.8l0.2,-1.1l0.2,-2.3l0.3,-0.7l0.5,-0.5l0.6,-0.8l0.1,0.5l0.3,0.2l0.5,0l0.5,-0.3l0.5,-0.5l0.1,-0.4l0,-0.4l0.2,-0.6l0.9,-1l0.9,-0.1l2.2,0.8l-0.4,-0.8l-0.9,-0.3l-1.2,-0.1l-0.8,-0.3l-0.4,-0.8l0.2,-0.7l0.5,-0.7l2,-2l0.3,-0.7l0,-0.8l-0.2,-0.7l0.1,-0.6l3.2,2.1l1.1,1.6l1.6,1.3l0.6,0.9l0.5,1.2l0.8,1.1l1.1,0.8l1.2,0.4l0.9,-0.1l0.7,-0.2l0.6,0.1l0,1.1l0.3,0.5l1.1,1.2l0.3,0.9l0.8,-0.5l0.8,0l3,0.7l0.4,0.3zm-23,-10.2l0,0.5l0.1,0.4l0.3,0.6l0,1.9l-0.2,2.2l-0.8,1.4l-1.3,-0.6l-0.5,0.6l-0.6,0.5l-1.1,-0.8l-0.8,-0.9l-0.2,-1l0.8,-1.2l4.3,-3.6z"/>
   <path name="Carchi" id="ECC" d="m197.4,249l-0.3,-0.1l-0.8,-0.6l-1,-1.1l-0.9,-0.5l-0.5,0.1l-0.7,-0.6l-0.2,-0.2l-0.4,-1l-0.2,-1l0.2,-3.1l0.4,-1l1.3,-2.1l0.3,-1.2l0,-1.7l-0.2,-0.9l0,-0.8l0.1,-0.4l1,-0.8l0.6,0.4l5.1,5.7l1.3,1l1,0.5l3.2,0.8l1.1,0.6l7.1,5.4l2.2,1.1l3.9,0.1l3.7,1.4l0.6,0l0.2,-0.1l0.3,0l0.5,0.5l0.2,0.6l0,0.6l0.1,0.6l0.6,0.5l1.2,0.5l1.2,0.2l1.1,0l1.1,-0.2l4.3,-1.6l1.3,0l1.7,1.3l0.3,3.9l1.2,1.7l3.5,2.4l2,0.8l1.6,-0.2l-0.2,0.2l-1.9,1.5l-0.9,0.2l-1.1,-0.4l-0.3,-0.1l-1.5,0l-0.5,-0.1l-0.8,-0.2l-0.5,-0.1l-0.3,0l-0.3,0l-0.1,0.2l-0.2,0.2l-0.1,0.6l0.1,0.3l0.1,0.3l0.6,0.5l0.3,0.2l0.1,0.3l0.1,0.3l0,0.2l-0.2,0.3l-0.4,0.4l-2,1.5l-0.4,0.4l-3.8,4.8l-0.4,0.7l-0.3,0.7l-0.1,0.9l0,0.5l0.2,0.7l-0.3,0.7l-1.2,1.3l-1.3,-0.6l-0.9,-1.2l-0.7,-0.5l-2.5,-1.4l-2.2,-1.5l-2.5,-1.4l-1.9,-0.5l-0.9,-0.1l-1.1,-0.2l-0.7,-0.5l-0.4,-0.3l-2,-0.4l-0.6,-0.8l-0.3,-1l-0.1,-1l0.1,-1.5l0,-0.5l-1.2,-3.1l-2.1,-2.7l-1.4,-2.5l-1.3,-1.5l-1.7,-1.5l-2.4,-1.6l-1,-0.9l-0.4,-0.2l-0.7,-0.2l-2,-0.2l-1,-0.3l-0.8,-0.4z"/>
   <path name="Sucumbios" id="ECU" d="m231.4,277.5l1.2,-1.3l0.3,-0.7l-0.2,-0.7l0,-0.5l0.1,-0.9l0.3,-0.7l0.4,-0.7l3.8,-4.8l0.4,-0.4l2,-1.5l0.4,-0.4l0.2,-0.3l0,-0.2l-0.1,-0.3l-0.1,-0.3l-0.3,-0.2l-0.6,-0.5l-0.1,-0.3l-0.1,-0.3l0.1,-0.6l0.2,-0.2l0.1,-0.2l0.3,0l0.3,0l0.5,0.1l0.8,0.2l0.5,0.1l1.5,0l0.3,0.1l1.1,0.4l0.9,-0.2l1.9,-1.5l0.2,-0.2l0.2,-0.1l2.3,0.6l0.7,2.6l0.4,5.7l0.4,1.8l0.3,1.7l0.5,1.3l1.5,1.2l1.9,0.7l5.8,1.1l1,0.4l0.8,0.4l0.8,0.3l1.2,-0.1l2.7,-1l1,-0.2l0.7,0.2l1.1,0.3l2.1,2.3l1.6,0.5l2.2,0.1l0.7,0.1l0.9,0.3l0.5,0.4l1.2,1.2l0.9,0.7l0.8,0.3l0.8,0l3.8,-0.6l0.7,0.1l1.9,0.9l0.8,-0.1l-0.1,-2.1l0.6,-0.3l1.9,0.5l2.7,0.3l0.7,0.3l0.9,0.6l1.4,1.3l1.1,0.4l0.8,-0.1l1.4,-0.8l5.3,-0.6l1,-0.6l-0.6,-3.6l0.2,-4.1l-0.1,-0.3l0.6,0.1l1.1,-0.1l0.6,-0.1l0.5,-0.2l1.3,-1.6l0.3,-0.3l0.3,-0.1l1,-0.8l0.6,-0.1l0.6,0.2l1.5,1.6l1,0.7l1.1,0.4l1.1,0.3l1.4,0.1l1.2,-0.1l0.6,0.1l0.4,0.2l0.3,0.5l0.3,1.5l0.3,0.4l1,0l1.4,-0.5l1.2,-0.1l0.5,0.8l0.3,0.6l3.6,4.6l0.3,0.7l0.2,1l0.6,0.9l1.3,1.3l3.3,2l0.5,0.7l2.2,1.6l1.5,0.9l0.9,0.3l1,0.3l1.2,0.1l1.3,-0.1l2.3,-0.5l1,-0.2l1.1,0.4l0.9,0.8l0.7,0.7l0.5,0.4l1,0.3l2.5,2.3l3.2,1.9l1.3,0.5l1,0.7l3.1,0.6l3.4,1.3l1,0.6l-0.6,0.8l-1.3,0.9l-0.7,0.3l-0.7,0.2l-0.8,0.1l-1.9,-0.3l-0.5,0.1l-1.4,0.9l-1.4,-0.1l-3.8,-2.1l-0.8,-0.1l-0.7,-0.1l-1,0.1l-0.8,-0.1l-1,-0.4l-1,-0.3l-0.8,0.3l-0.3,0.9l0.3,1.2l0.5,1.1l0.5,0.6l0.5,0.1l1.2,-0.1l0.5,0.1l0.7,0.3l1.1,1.1l0.7,0.4l1.1,0.3l0.9,0.6l0.6,0.8l1.7,6.1l1,2.3l1.6,2.1l1,1l0.6,0.4l0.6,0l0.6,0l0.3,0.2l0.3,0.3l2.1,1.6l0.2,0.3l0.3,0.6l0.2,0.3l0.3,0l0.5,-0.3l0.2,0.1l0.6,1l0.2,1l-0.1,2.1l0,0.5l0.1,0.4l0.1,0.4l-0.1,0.5l-0.5,0.5l-0.8,0l-0.2,-0.1l-0.1,-0.3l0.1,-0.7l0,-0.1l-0.2,-0.1l-0.3,0.1l-0.5,0.1l-0.6,0l-1.9,-0.6l-0.8,-0.4l-0.6,0l-0.4,-0.1l-0.3,-0.4l-0.2,-0.5l-0.1,-0.5l-0.2,-0.4l-0.3,-0.2l-0.8,0l-0.5,-0.2l-0.6,-0.3l-0.6,-0.2l-2.5,-0.1l-0.3,0.1l-0.5,0l-1.7,-0.6l-0.7,-0.5l-0.3,-0.3l-0.2,-0.4l-0.2,-0.3l-0.1,-0.6l-0.1,-0.3l-0.2,-0.1l-0.5,0.3l-0.2,-0.1l-0.2,-0.3l-0.1,-0.3l-0.3,-0.3l-0.7,-0.4l-1.1,-0.5l-0.7,-0.4l-0.5,-0.2l-0.5,0.1l-0.5,0.2l-0.8,0.2l-0.6,0l-0.7,-0.3l-0.3,-0.4l-0.5,-0.8l-0.3,-0.3l-0.5,-0.4l-0.4,-0.1l-0.5,0.2l-0.6,0.2l-0.6,0.1l-1.3,0l-0.5,0.1l-0.5,0.2l-0.5,0l-0.6,-0.1l-0.6,-0.5l-0.8,-0.4l-1,-0.3l-1.7,0l-0.9,0.2l-0.7,0.4l-0.1,0.5l-0.1,0.9l0.6,4.4l0.2,0.7l0.3,0.4l0.1,0.2l-0.1,0.2l-0.3,0.2l-0.6,-0.1l-1.3,-0.1l-1.2,-0.3l-1.2,-0.7l-2.3,-1.6l-1,-0.5l-0.3,-0.3l-0.2,-1.3l-0.3,-0.7l-0.3,-0.6l-0.3,-0.3l-5.1,-0.3l-4.2,0.4l-0.5,0.1l-1.1,0.6l-1.8,0.5l-0.5,0.2l-2.1,1.6l-1.3,0.6l-0.6,-0.5l-0.4,-0.8l-0.9,-0.2l-2.1,0l-1,-0.5l-2.8,-2.1l-1.2,-1.6l-1.3,0.4l-1.2,0.7l-0.6,-0.8l-0.2,-0.5l-0.5,-0.5l-3.1,-2.2l-0.6,-0.5l-0.3,-0.4l-0.1,-0.3l-0.6,-0.8l-0.5,-0.6l-1,-1.5l-0.1,-0.3l0,-0.5l-0.1,-0.2l-0.2,-0.3l-1.7,-1.4l-5.5,-6.6l-0.5,-0.9l-0.4,-0.5l-0.8,-0.5l-0.7,-0.2l-1.4,0.3l-0.9,0.3l-0.7,0.4l-0.7,0.4l-0.8,0.4l-1.1,0.2l-1.4,0l-3,-0.9l-0.9,-0.1l-0.9,0.1l-0.6,0.3l-0.6,0.1l-0.7,-0.1l-1.6,-1.1l-1.4,-0.8l-0.9,-0.3l-0.8,-0.2l-0.8,0.6l-1.4,1.7l-0.4,0.7l-0.6,1.1l-0.3,0.5l-0.4,0.3l-0.3,0.2l-0.6,0l-1,-0.1l-2.5,-0.6l-0.5,-0.2l-0.1,-0.3l0,-0.4l0.1,-0.3l0.1,-0.4l0,-0.2l0,-0.3l-0.2,-0.5l0,-0.2l0.1,-0.3l0.1,-0.3l0.1,-0.3l-0.1,-0.2l-0.1,-0.3l-0.2,-0.4l-0.2,-0.5l-0.2,-0.4l-0.4,-0.2l-0.6,0.3l-0.7,0.5l-0.3,0.1l-0.2,0.1l-0.2,0.2l-0.2,0.3l-0.3,0.3l-0.5,0.2l-1,0.1l-0.6,0.4l-1.1,1.2l-0.6,0.4l-0.4,0.1l-0.6,-0.4l-0.7,-0.3l-1.5,-0.4l-5.4,-0.1l-1,-0.2l-0.7,-0.5l-0.4,-1l-0.3,-1.8l0,-0.5l0.1,-0.3l0,-0.1l0.1,-0.1l0.1,-0.1l0,-0.2l0,-0.1l0,-0.1l0,-0.1l-0.5,-0.3l-2.4,-0.6l-0.6,-0.2l-0.3,-0.2l0,-0.1l-0.1,-0.1l-0.1,-0.6l-0.1,-0.5l-0.2,-0.3l-0.3,-0.3l-0.8,-0.4l-0.2,-0.1l-0.2,-0.1l-0.3,0l-0.7,-0.3l-1.5,-0.7l-0.1,0l-0.2,0l-0.1,0l-0.1,0l-0.6,-0.2l-0.6,-0.2l-0.2,-0.1l-0.1,-0.1l-0.1,-0.1l0,-0.1l0.1,0l1.3,-2.3l1.9,-2l0.8,-0.5l0.3,-0.1l0.2,-0.1l0.3,-0.1l0.2,-0.2l0.2,-0.3l1,-1.4l0.7,-0.8l0.2,-0.1l0.2,-0.2l0,-0.2l-0.1,-0.2l-0.1,-0.1l-0.2,-0.1l-0.1,0l-0.1,0l-0.1,0l-0.1,-0.1l-0.1,-0.1l0,-0.1l0,-0.4l0.3,-0.7l1.7,-2.2z"/>
   <path name="Orellana" id="ECD" d="m259.3,299.4l0.8,-0.6l0.8,0.2l0.9,0.3l1.4,0.8l1.6,1.1l0.7,0.1l0.6,-0.1l0.6,-0.3l0.9,-0.1l0.9,0.1l3,0.9l1.4,0l1.1,-0.2l0.8,-0.4l0.7,-0.4l0.7,-0.4l0.9,-0.3l1.4,-0.3l0.7,0.2l0.8,0.5l0.4,0.5l0.5,0.9l5.5,6.6l1.7,1.4l0.2,0.3l0.1,0.2l0,0.5l0.1,0.3l1,1.5l0.5,0.6l0.6,0.8l0.1,0.3l0.3,0.4l0.6,0.5l3.1,2.2l0.5,0.5l0.2,0.5l0.6,0.8l1.2,-0.7l1.3,-0.4l1.2,1.6l2.8,2.1l1,0.5l2.1,0l0.9,0.2l0.4,0.8l0.6,0.5l1.3,-0.6l2.1,-1.6l0.5,-0.2l1.8,-0.5l1.1,-0.6l0.5,-0.1l4.2,-0.4l5.1,0.3l0.3,0.3l0.3,0.6l0.3,0.7l0.2,1.3l0.3,0.3l1,0.5l2.3,1.6l1.2,0.7l1.2,0.3l1.3,0.1l0.6,0.1l0.3,-0.2l0.1,-0.2l-0.1,-0.2l-0.3,-0.4l-0.2,-0.7l-0.6,-4.4l0.1,-0.9l0.1,-0.5l0.7,-0.4l0.9,-0.2l1.7,0l1,0.3l0.8,0.4l0.6,0.5l0.6,0.1l0.5,0l0.5,-0.2l0.5,-0.1l1.3,0l0.6,-0.1l0.6,-0.2l0.5,-0.2l0.4,0.1l0.5,0.4l0.3,0.3l0.5,0.8l0.3,0.4l0.7,0.3l0.6,0l0.8,-0.2l0.5,-0.2l0.5,-0.1l0.5,0.2l0.7,0.4l1.1,0.5l0.7,0.4l0.3,0.3l0.1,0.3l0.2,0.3l0.2,0.1l0.5,-0.3l0.2,0.1l0.1,0.3l0.1,0.6l0.2,0.3l0.2,0.4l0.3,0.3l0.7,0.5l1.7,0.6l0.5,0l0.3,-0.1l2.5,0.1l0.6,0.2l0.6,0.3l0.5,0.2l0.8,0l0.3,0.2l0.2,0.4l0.1,0.5l0.2,0.5l0.3,0.4l0.4,0.1l0.6,0l0.8,0.4l1.9,0.6l0.6,0l0.5,-0.1l0.3,-0.1l0.2,0.1l0,0.1l-0.1,0.7l0.1,0.3l0.2,0.1l0.8,0l-0.6,0.3l-0.6,0.4l-0.3,0.6l0.1,0.6l0.2,1l0,0.5l-0.1,0.6l-0.3,0.9l0,0.7l2.4,8.2l0,0.5l-0.1,0.9l0.1,0.5l0.4,0.6l0.5,0.5l0.4,0.5l0,0.4l-0.4,0l-2.6,0l-2.3,0.3l-1.2,0l-0.6,-0.5l-0.3,-0.5l-0.7,-0.9l-1.6,-1.4l-0.3,0.5l-0.7,2.7l-1.6,6.4l-1.6,6.3l-1.7,6.4l-1.6,6.4l-0.8,3.2l-0.7,1.8l-0.4,0.5l-0.6,-1l-0.2,-1.2l-0.4,-0.5l-0.4,-0.2l-0.4,0l-0.6,-0.2l-0.3,-0.4l-0.4,-0.1l-0.3,0l-0.3,-0.4l-1.6,-0.6l-0.5,-0.1l-0.3,-0.2l-0.1,-0.2l-0.1,-0.3l-0.1,0l-0.2,0.1l-0.3,0.3l-0.3,0.1l-0.2,-0.2l-0.2,-0.4l-0.5,-0.7l-0.4,-0.8l-0.2,-0.2l-0.1,-0.4l-0.3,-0.2l-0.7,0l-0.7,-0.2l-0.8,-0.1l-0.3,-0.1l-0.2,-0.2l-0.2,-0.2l-0.4,-0.2l-0.4,-0.1l-0.3,0l-0.4,0.1l-0.1,-0.1l0,-0.1l-0.1,-0.4l-0.4,-0.8l-0.3,-0.2l-1.4,-0.4l-0.2,-0.2l-0.1,-0.3l0.2,-0.2l0,-0.3l-0.2,0l-0.2,0l-0.4,0.1l-0.2,0.1l0,0.2l0.1,0.3l-0.1,0.2l-0.2,0.1l-0.3,0.1l-0.5,-0.1l-1,0l-0.9,-0.1l-0.7,-0.4l-0.4,-0.4l-0.3,-0.1l-0.6,0l-0.3,-0.2l-0.3,-0.4l-0.4,-0.4l-0.6,-0.2l-0.7,-0.1l-0.5,-0.3l-0.4,-0.1l-0.2,0l-0.1,0.2l-0.3,0l-0.1,-0.1l0,-0.3l0,-0.3l-0.1,-0.3l-0.2,-0.3l-0.1,-0.1l-0.2,0.1l-0.1,0.2l-0.3,0.1l-0.6,0l-0.9,-0.5l-0.6,0l-0.3,0.1l0,0.2l-0.2,0l-0.1,-0.2l-0.1,-0.1l-0.2,0l-0.2,0.2l-0.5,0.5l-0.2,0.2l-0.2,0.2l-0.1,0l-0.4,0l-0.2,0l-0.4,0l-0.1,-0.1l-0.3,-0.3l-0.3,0l-1,0.2l-0.4,-0.3l-0.3,0l-0.3,0.1l-0.2,0.2l-0.3,0.1l-0.3,-0.1l-0.1,-0.2l-0.1,-0.2l-0.2,0l-0.2,0.2l-0.1,0.3l-0.3,0.2l-0.2,-0.1l-0.2,0l-0.1,0.1l-0.1,0.1l-0.4,0.2l-0.2,0.2l-0.1,0.2l-0.2,0.2l-0.1,-0.1l0,-0.4l-0.2,-0.1l-0.5,-0.2l-0.8,-0.1l-1.3,-0.3l-0.8,-0.2l-0.3,-0.1l0,-0.2l0.2,-0.2l-0.1,-0.2l-0.2,-0.3l-0.2,-0.2l-0.2,-0.1l-0.3,0l-0.4,0l-0.4,-0.2l-0.3,-0.3l-0.3,0l-0.4,0.1l-0.3,0.2l-0.7,0.1l-0.5,-0.1l-0.6,0.1l-0.2,-0.1l0,-0.2l0,-0.3l0,-0.1l-0.2,0l-0.2,0.2l-0.4,0l-0.3,-0.1l-0.3,-0.4l-0.1,-0.4l0,-0.3l-0.2,-0.2l-0.2,-0.3l-0.5,-0.4l-0.3,-0.3l-0.2,-0.4l-0.5,-0.6l-0.3,-0.8l-0.1,-1.2l0,-2.1l0.2,-0.7l0,-0.8l-0.2,-0.7l-0.7,-0.7l-0.7,-0.4l-1,-0.3l-0.9,-0.1l-0.8,0.1l-1.4,0.4l-1,0.2l-0.2,0.2l-0.5,0.6l-0.2,0.2l-0.5,0.1l-0.6,0.1l-1,0.3l-1.1,0.2l-1.4,0l-0.4,0.1l-0.7,0.4l-0.5,0.1l-0.8,-0.2l-0.6,-0.3l-0.5,-0.1l-0.3,0.1l-1,0.9l-0.4,0.5l-0.1,0.6l-0.1,0.6l-0.2,0.6l-0.3,0.4l-1,0l-5.2,-2.1l-4.4,-1l-0.6,-0.3l-0.4,-0.6l-0.3,-1.5l-0.2,-0.5l-0.1,-0.3l0.1,-0.4l1.1,-1.2l0.5,-1.2l-0.5,-0.6l-0.3,-0.3l-0.2,-0.4l0.1,-0.4l0.9,-0.8l0.4,-0.6l0,-0.3l-0.3,-0.3l-0.7,-0.2l-2.3,-0.3l-0.9,-0.4l-2.5,-1.7l-0.5,-0.2l-0.4,-0.2l-0.6,-0.2l-0.3,-0.5l-0.2,-0.9l0.1,-0.8l0.4,-0.9l0.6,-0.9l2.6,-2.5l0.5,-0.6l0.2,-0.6l-0.1,-0.3l-0.4,-0.3l-0.8,0l-0.7,0.5l-0.7,0.3l-2.4,2.3l-1.3,2.6l-0.8,0.9l-0.4,0.2l-2,0.7l-8.5,4.1l-0.6,0.5l-1.1,0.2l-0.1,0.2l-0.9,0.4l-1.1,0.2l-1.3,0.1l-1.2,-0.2l-0.7,-0.4l0,-0.5l0.5,-0.5l0.5,-0.6l0.4,-0.7l1.3,-3.1l0.1,-0.8l-0.4,-1.7l0,-0.8l0.4,-1l0.4,-0.9l0.4,-0.6l0.7,-1.1l0.2,-0.5l-0.1,-0.7l-0.4,-1.4l-0.3,-0.5l-0.4,-0.4l-0.8,-0.5l-0.2,-0.3l-0.6,-1.2l-1.5,-1.9l-0.6,-0.5l-0.6,-0.3l-0.5,-0.1l-0.7,-0.4l-0.1,-0.4l0,-0.5l0.3,-0.4l0.6,-0.4l1.7,-1l0.3,-0.4l0.3,-0.4l-0.1,-0.7l0,-0.4l0.2,-0.4l0.5,-0.1l0.7,0.2l2.3,1.5l1.2,0.5l1.4,0.5l1,0.1l0.7,-0.1l0.6,-0.2l0.5,-0.4l1.3,-2.2l0.6,-1.3l0.2,-0.4l0.3,-0.2l0.3,0l0.7,0.2l0.2,-0.1l0.2,-0.3l-0.1,-0.9l0.1,-0.4l0.1,-0.4l1.7,-0.7l0.6,-0.3l0.4,-0.4l0.2,-0.5l0,-0.9l0.1,-0.3l0.2,-0.3l0.4,-0.3l0.1,-0.5l0.1,-0.8l-0.5,-1l0,-0.2l0.2,-0.3l0,-0.3l0.1,-0.4l-0.2,-0.4l-0.6,-1l-0.7,-0.9l-0.4,-0.5l-0.3,-0.6l0,-0.5l0.2,-0.8l0.1,-1.5l0.2,-0.5l-0.6,-3.9z"/>
   <path name="Pastaza" id="ECY" d="m352.4,380l-0.9,1.1l-2.9,2.7l-2.2,2.6l-2.7,3.1l-2.7,3.2l-2.7,3.1l-2.7,3.2l-2.7,3.1l-2.7,3.2l-2.7,3.1l-2.8,3.2l-3.2,2.5l-3.2,2.4l-3.2,2.5l-3.3,2.5l-3.2,2.5l-3.2,2.4l-3.3,2.5l-3.2,2.5l-3.1,2.4l-2.4,1.4l-0.8,-0.2l-1.1,0.5l-1.1,0.4l-2.3,-1.1l-1.9,-0.4l-0.7,-0.4l-0.8,-0.7l-0.7,0l-1.6,0.5l-2.4,0.1l-2.3,-0.7l-1.8,-1.2l-1.3,-1.5l-0.7,-1.9l-0.1,-0.2l-0.1,-0.5l-0.4,-0.4l-0.4,-0.2l-0.5,-0.8l-1.9,-2.3l-1,-1.8l-0.6,-0.8l-0.8,-0.3l-0.9,-0.3l-12.5,-8l-14.9,-6.4l-1.9,-0.4l-0.9,-0.4l-0.7,-0.6l-0.3,-0.9l-0.2,-0.9l-0.4,-0.8l-0.7,-0.7l-1,-0.3l-2.2,-0.6l-0.9,-0.5l-0.5,-0.6l-0.2,-0.8l-0.1,-1.6l-0.3,-0.8l-0.8,-1.3l-0.2,-0.8l0,-1.1l-0.1,-0.5l-1,-1.6l-0.7,-3.6l-0.7,-1.2l-0.8,-0.6l-1,-0.1l-2.5,0.6l-0.8,0.1l-0.7,-0.6l-0.5,-1.3l-0.5,-1.8l-1.6,-4.3l-0.5,-0.8l-0.7,-0.8l-0.7,-0.8l-1.3,-1.1l-2.4,-0.5l1.3,-1.2l1.5,-2.8l0.2,-0.8l0.2,-0.8l-0.1,-5.9l2.7,0.2l1.5,-0.1l3.9,-0.7l1.3,0l0.8,0.2l0.6,0.2l0.5,0.3l0.5,0.1l0.4,-0.3l0.3,-0.8l0.2,-0.2l0.3,0l0.4,0.2l0.5,0.2l0.7,0.2l0.8,-0.2l1.3,-0.6l2.1,-1.5l0.6,-0.2l1.1,-0.5l0.7,-0.1l1,-0.6l0.6,-0.3l0.7,-0.1l0.7,-0.1l0.7,-0.1l0.8,0.2l0.5,0l0.6,0l0.7,-0.3l0.7,-0.2l2.6,-0.2l4.8,-2.2l0.7,-0.4l0.6,-0.2l1.8,0l1.5,-0.3l5.2,-1.6l1.2,-0.7l0.6,-0.4l0.6,-0.2l0.8,-0.2l9,-0.6l-1.1,1.2l-0.1,0.4l0.1,0.3l0.2,0.5l0.3,1.5l0.4,0.6l0.6,0.3l4.4,1l5.2,2.1l1,0l0.3,-0.4l0.2,-0.6l0.1,-0.6l0.1,-0.6l0.4,-0.5l1,-0.9l0.3,-0.1l0.5,0.1l0.6,0.3l0.8,0.2l0.5,-0.1l0.7,-0.4l0.4,-0.1l1.4,0l1.1,-0.2l1,-0.3l0.6,-0.1l0.5,-0.1l0.2,-0.2l0.5,-0.6l0.2,-0.2l1,-0.2l1.4,-0.4l0.8,-0.1l0.9,0.1l1,0.3l0.7,0.4l0.7,0.7l0.2,0.7l0,0.8l-0.2,0.7l0,2.1l0.1,1.2l0.3,0.8l0.5,0.6l0.2,0.4l0.3,0.3l0.5,0.4l0.2,0.3l0.2,0.2l0,0.3l0.1,0.4l0.3,0.4l0.3,0.1l0.4,0l0.2,-0.2l0.2,0l0,0.1l0,0.3l0,0.2l0.2,0.1l0.6,-0.1l0.5,0.1l0.7,-0.1l0.3,-0.2l0.4,-0.1l0.3,0l0.3,0.3l0.4,0.2l0.4,0l0.3,0l0.2,0.1l0.2,0.2l0.2,0.3l0.1,0.2l-0.2,0.2l0,0.2l0.3,0.1l0.8,0.2l1.3,0.3l0.8,0.1l0.5,0.2l0.2,0.1l0,0.4l0.1,0.1l0.2,-0.2l0.1,-0.2l0.2,-0.2l0.4,-0.2l0.1,-0.1l0.1,-0.1l0.2,0l0.2,0.1l0.3,-0.2l0.1,-0.3l0.2,-0.2l0.2,0l0.1,0.2l0.1,0.2l0.3,0.1l0.3,-0.1l0.2,-0.2l0.3,-0.1l0.3,0l0.4,0.3l1,-0.2l0.3,0l0.3,0.3l0.1,0.1l0.4,0l0.2,0l0.4,0l0.1,0l0.2,-0.2l0.2,-0.2l0.5,-0.5l0.2,-0.2l0.2,0l0.1,0.1l0.1,0.2l0.2,0l0,-0.2l0.3,-0.1l0.6,0l0.9,0.5l0.6,0l0.3,-0.1l0.1,-0.2l0.2,-0.1l0.1,0.1l0.2,0.3l0.1,0.3l0,0.3l0,0.3l0.1,0.1l0.3,0l0.1,-0.2l0.2,0l0.4,0.1l0.5,0.3l0.7,0.1l0.6,0.2l0.4,0.4l0.3,0.4l0.3,0.2l0.6,0l0.3,0.1l0.4,0.4l0.7,0.4l0.9,0.1l1,0l0.5,0.1l0.3,-0.1l0.2,-0.1l0.1,-0.2l-0.1,-0.3l0,-0.2l0.2,-0.1l0.4,-0.1l0.2,0l0.2,0l0,0.3l-0.2,0.2l0.1,0.3l0.2,0.2l1.4,0.4l0.3,0.2l0.4,0.8l0.1,0.4l0,0.1l0.1,0.1l0.4,-0.1l0.3,0l0.4,0.1l0.4,0.2l0.2,0.2l0.2,0.2l0.3,0.1l0.8,0.1l0.7,0.2l0.7,0l0.3,0.2l0.1,0.4l0.2,0.2l0.4,0.8l0.5,0.7l0.2,0.4l0.2,0.2l0.3,-0.1l0.3,-0.3l0.2,-0.1l0.1,0l0.1,0.3l0.1,0.2l0.3,0.2l0.5,0.1l1.6,0.6l0.3,0.4l0.3,0l0.4,0.1l0.3,0.4l0.6,0.2l0.4,0l0.4,0.2l0.4,0.5l0.2,1.2l0.6,1z"/>
   <path name="Morona Santiago" id="ECS" d="m293.4,435.2l-0.8,0.5l-5,1.7l-6.8,2.4l-6.8,2.4l-6.8,2.4l-6.8,2.4l-6.8,2.4l-6.8,2.4l-6.9,2.3l-6.8,2.4l-1.5,0.5l-2.1,0.8l-1,0.5l-4,3.5l-5.4,7.3l-2.7,2.2l-0.7,0.8l-1.7,3.2l-0.7,1l-1.9,1.5l-0.7,0.7l0,1.2l0.6,1l0.9,0.6l0.7,0.8l0.1,1.5l-0.5,1.1l-0.8,0.4l-1,0.2l-0.9,0.7l-0.7,0.3l-0.5,-1l-0.8,-3.4l-0.4,-0.9l-0.6,-0.5l-2.4,-0.7l-1.1,-0.1l-0.9,0.3l-0.6,1l0,0.3l0.4,1.1l-0.1,0.6l-0.4,2.3l-0.7,2.2l-6.8,0l-4,0.7l-1,0l-2.1,-0.2l-0.7,0.1l-0.5,0.1l-0.3,0.2l-0.2,0.3l-0.5,1l-0.2,0.3l-0.4,0.3l-0.4,-0.1l-0.9,-0.4l-0.6,-0.2l-1.8,-0.3l-2.3,-0.6l-1.5,-0.2l-0.6,-0.3l-0.3,-0.3l0,-0.4l-0.2,-0.3l-0.2,-0.3l-0.4,-0.4l-0.3,-0.4l-0.2,-0.3l-0.2,-0.4l-0.1,-0.5l0,-0.9l-0.3,-0.8l0,-0.4l0.1,-0.3l0.2,-0.4l0.2,-0.3l0.6,-0.5l0.3,-0.3l0.1,-0.3l0,-0.4l-0.1,-0.4l-0.4,-0.4l-4.5,-3.2l-0.3,-0.9l0.1,-0.4l0.3,-0.6l6.7,-5.3l1.1,-1.1l2,-0.6l1.8,-1l1.4,-1.1l1.4,-1.6l0.5,-0.9l0.2,-1l-0.1,-0.8l0,-0.9l0.2,-0.8l1.3,-2.7l0.2,-0.6l0.3,-0.9l2.6,-4.2l0.3,-0.8l0,-0.5l-0.2,-0.5l-0.4,-0.6l-0.5,-0.5l-0.3,-0.4l-0.2,-0.4l0.1,-0.4l1.7,-3.1l0.5,-0.6l0.5,-0.5l6,-3l0.6,-0.5l0.2,-0.5l0,-0.5l-0.1,-0.4l-0.2,-0.5l-0.4,-0.4l-1.7,-1.2l-0.3,-0.2l-0.5,0l-0.5,0.2l-0.5,0.2l-0.6,0.5l-0.3,0.6l-0.2,0.6l-0.1,0.6l-0.2,0.3l-0.4,0l-0.5,-0.2l-0.4,-0.4l-0.2,-0.5l-0.1,-0.6l0.3,-1.6l0.4,0.2l0.2,0l0.2,0l0.1,-0.1l0.3,-0.1l0.5,-0.7l1.3,-2l0.2,-0.4l0.1,-0.4l0,-0.7l0,-0.5l0.3,-1l-0.1,-3.1l0.1,-0.6l0.1,-0.5l-0.4,-0.6l-0.8,-0.6l-3.3,-1.5l-0.8,-0.4l0,-0.6l1.9,-1.3l0.3,-0.5l0.2,-0.7l0,-0.6l0.3,-0.8l0.5,-0.5l0.9,-0.7l0.3,-0.4l0,-0.3l-0.2,-0.3l-0.1,-0.3l-0.2,-2.1l0.4,-1.5l0.5,-0.9l0.8,-0.6l0.8,-0.4l0.7,-0.5l0.1,-0.4l-0.5,-1.1l-0.2,-0.6l0,-1.3l-0.2,-0.7l-0.4,-0.5l-0.4,-0.3l-0.4,-0.4l-0.2,-0.4l0,-0.7l0.2,-0.6l1.4,-2.3l2.2,-2.4l0.2,-0.7l-0.4,-1.6l-0.2,-1.3l-0.2,-0.5l-0.3,-0.3l-0.3,-0.3l-0.2,-0.5l-0.2,-0.8l-0.1,-1l0,-1.1l0.1,-0.6l0.3,-0.5l0.3,-0.3l0.3,-0.4l0.4,-0.3l0.4,-0.6l0.4,-0.5l0.5,-0.4l1.3,-0.7l0.5,-0.4l0.4,-0.5l0.2,-0.5l0.1,-0.6l-0.1,-0.5l-0.5,-1.5l0,-0.8l0.1,-0.4l0.5,-0.9l0.9,-1.2l0.6,-0.4l1.1,-0.6l0.7,-0.2l1.9,0.3l1.3,0l0.8,-0.3l0.9,-0.4l0.5,-0.4l1.1,-1.1l2.4,0.5l1.3,1.1l0.7,0.8l0.7,0.8l0.5,0.8l1.6,4.3l0.5,1.8l0.5,1.3l0.7,0.6l0.8,-0.1l2.5,-0.6l1,0.1l0.8,0.6l0.7,1.2l0.7,3.6l1,1.6l0.1,0.5l0,1.1l0.2,0.8l0.8,1.3l0.3,0.8l0.1,1.6l0.2,0.8l0.5,0.6l0.9,0.5l2.2,0.6l1,0.3l0.7,0.7l0.4,0.8l0.2,0.9l0.3,0.9l0.7,0.6l0.9,0.4l1.9,0.4l14.9,6.4l12.5,8l0.9,0.3l0.8,0.3l0.6,0.8l1,1.8l1.9,2.3l0.5,0.8l0.4,0.2l0.4,0.4l0.1,0.5l0.1,0.2l0.7,1.9l1.3,1.5l1.8,1.2l2.3,0.7l2.4,-0.1l1.6,-0.5l0.7,0l0.8,0.7l0.7,0.4l1.9,0.4l2.3,1.1l1.1,-0.4l1.1,-0.5l0.8,0.2z"/>
   <path name="Zamora Chinchipe" id="ECZ" d="m170.5,476.3l4.5,3.2l0.4,0.4l0.1,0.4l0,0.4l-0.1,0.3l-0.3,0.3l-0.6,0.5l-0.2,0.3l-0.2,0.4l-0.1,0.3l0,0.4l0.3,0.8l0,0.9l0.1,0.5l0.2,0.4l0.2,0.3l0.3,0.4l0.4,0.4l0.2,0.3l0.2,0.3l0,0.4l0.3,0.3l0.6,0.3l1.5,0.2l2.3,0.6l1.8,0.3l0.6,0.2l0.9,0.4l0.4,0.1l0.4,-0.3l0.2,-0.3l0.5,-1l0.2,-0.3l0.3,-0.2l0.5,-0.1l0.7,-0.1l2.1,0.2l1,0l4,-0.7l6.8,0l-0.1,0.3l-1,2.2l-0.3,1.1l-0.2,1l0.1,2l0.2,1.1l0,0.5l-0.5,0.3l-0.6,0.1l-0.3,0.1l0,0.3l0,0.7l0.7,3.5l-0.4,1l-1.3,1.3l-0.4,0.3l-0.7,0.3l-0.3,0.3l-0.6,1l-0.4,1.1l-0.5,4l0,0.3l-0.2,0.3l-0.8,0.4l-0.7,0.2l-0.6,0.1l-0.6,0.1l-0.6,0.6l-0.2,0.9l0,3.2l-0.6,2.4l-3.3,6.9l-0.5,2.4l-0.5,1.1l-0.9,0.8l-0.5,1.1l0.1,2.1l0.4,2l0.7,1l1.3,0.8l-0.2,0.9l-0.8,1l-0.8,1.3l-0.2,1l0.1,1.1l-0.1,1l-0.5,0.9l-1.4,1l-0.6,0.4l-5,1.9l-2.2,1.3l-2.5,2.3l-1,1.4l-0.6,1.5l0,1.5l1.2,2.4l0.3,1.3l-0.6,1.1l-1.2,0.3l-1.4,0l-1.1,0.3l-0.6,0.9l-0.6,2.6l-0.4,1.1l-1.4,1.5l-1.6,1.3l-1,-1l-0.6,-0.4l-0.5,-0.3l-0.6,0l-0.9,0.2l-0.5,0l-1,-0.2l-1.8,-0.6l-0.9,-0.2l-1.4,0l-2.5,0.1l-1.2,-0.3l-0.8,-0.9l-0.6,-1.2l-0.7,-1l-0.4,-0.3l-1.1,-0.4l-0.5,-0.3l-0.3,-0.5l-0.3,-1.1l-0.3,-0.5l-1,-0.7l-1.1,-0.6l-0.9,-0.7l-0.4,-1.2l-0.2,-1l0.5,-0.2l2.4,-2.5l1.8,-2.9l0.7,-0.8l1.6,-2.4l0.4,-0.6l0.2,-0.8l0.1,-0.6l-0.2,-0.9l-0.1,-0.6l0.4,-1.6l0.8,-0.7l0.3,-0.4l0.3,-0.6l0.4,-0.3l0.4,-0.1l0.6,0.1l0.6,0.3l0.7,0.1l0.5,0.2l0.5,0.4l0.5,0.4l0.5,0l0.3,-0.3l0.3,-0.5l0.3,-0.3l0.5,-0.1l0.4,-0.1l0.5,-0.2l0.3,-0.3l0.5,-0.8l0.8,-1.1l0.6,-0.6l0.3,-0.4l0.2,-0.5l0.3,-1.7l0.1,-1.1l-0.1,-1.4l-0.1,-0.6l0.4,-3.1l-0.1,-1.4l0.1,-0.7l-0.1,-0.9l0,-0.5l-0.1,-0.4l-0.7,-0.7l-0.1,-0.3l-0.3,-0.2l-0.2,-0.2l-0.6,-0.2l-0.2,-0.2l-0.1,-0.1l-0.2,-0.2l-0.1,-0.3l-0.2,-0.4l0,-0.8l0.2,-1.1l0.8,-3.1l0,-0.8l-0.2,-1.6l-0.1,-1.3l0.1,-1.7l0.4,-1.2l0.5,-1.1l0.2,-0.7l0,-0.5l-0.1,-0.9l-0.1,-0.5l-0.7,-1.1l-1,-1.2l-0.5,-0.8l-0.8,-1.8l-0.5,-1l-0.2,-0.4l-0.1,-0.5l0.1,-0.4l0.2,-0.3l0.2,-0.1l0.3,0l0.3,0l0.6,0l0.3,-0.2l0.2,-0.2l0.3,-0.3l0,-0.3l0,-0.8l0.2,-0.4l0.8,-0.6l0.4,-0.2l1.1,-1.4l0.9,-0.1l0.4,-0.1l0.4,-0.2l0.3,-0.5l0.2,-0.5l0.6,-3.1l-0.3,-2l0,-0.6l0.1,-0.6l0.4,-1l0,-0.5l-0.2,-0.3l-0.3,-0.3l-0.2,-0.8l-0.1,-0.5l0.1,-0.5l0.2,-0.5l0.5,-0.7l0.7,-0.7l1,-0.7l3,-1.8l1.1,-1z"/>
   <path name="Loja" id="ECL" d="m161.7,493.3l-1.1,1.4l-0.4,0.2l-0.8,0.6l-0.2,0.4l0,0.8l0,0.3l-0.3,0.3l-0.2,0.2l-0.3,0.2l-0.6,0l-0.3,0l-0.3,0l-0.2,0.1l-0.2,0.3l-0.1,0.4l0.1,0.5l0.2,0.4l0.5,1l0.8,1.8l0.5,0.8l1,1.2l0.7,1.1l0.1,0.5l0.1,0.9l0,0.5l-0.2,0.7l-0.5,1.1l-0.4,1.2l-0.1,1.7l0.1,1.3l0.2,1.6l0,0.8l-0.8,3.1l-0.2,1.1l0,0.8l0.2,0.4l0.1,0.3l0.2,0.2l0.1,0.1l0.2,0.2l0.6,0.2l0.2,0.2l0.3,0.2l0.1,0.3l0.7,0.7l0.1,0.4l0,0.5l0.1,0.9l-0.1,0.7l0.1,1.4l-0.4,3.1l0.1,0.6l0.1,1.4l-0.1,1.1l-0.3,1.7l-0.2,0.5l-0.3,0.4l-0.6,0.6l-0.8,1.1l-0.5,0.8l-0.3,0.3l-0.5,0.2l-0.4,0.1l-0.5,0.1l-0.3,0.3l-0.3,0.5l-0.3,0.3l-0.5,0l-0.5,-0.4l-0.5,-0.4l-0.5,-0.2l-0.7,-0.1l-0.6,-0.3l-0.6,-0.1l-0.4,0.1l-0.4,0.3l-0.3,0.6l-0.3,0.4l-0.8,0.7l-0.4,1.6l0.1,0.6l0.2,0.9l-0.1,0.6l-0.2,0.8l-0.4,0.6l-1.6,2.4l-0.7,0.8l-1.8,2.9l-2.4,2.5l-0.5,0.2l-1.4,-2.7l-0.6,-3.2l-1.6,-2.3l0,-1.2l1.3,-2.2l0.1,-0.8l-0.3,-0.5l-1.1,-0.7l-1.3,0l-0.3,-0.2l-0.8,-0.5l-0.4,-0.2l-2.7,-2.7l-1.5,-0.8l-2,0.3l-1.9,1.1l-3.6,1.1l-2,-0.3l-1.4,-1.4l-1.1,-1.7l-1.4,-1.3l-1.4,-0.3l-1.4,0l-1.4,-0.2l-1.5,-0.8l-1,-0.8l-1.8,-1.9l-1,-0.8l-0.9,-0.4l-1.1,-0.2l-0.9,-0.3l-0.4,-0.5l-0.1,0l-2.2,0.3l-0.6,0.2l-0.6,0.3l-0.4,0.3l-0.5,0.8l-0.5,1.9l-0.4,0.9l-0.9,0.9l-4.2,3.2l-2.2,1.2l-0.5,0.5l-0.4,0l-1,0l-0.9,-0.3l-2.4,-1.4l-0.8,-0.6l-0.4,-1.2l0.2,-0.9l7.1,-9.5l0.6,-1.2l-2.5,0.3l-2.3,0.7l-1.9,-0.2l-1.1,-2.4l0,-0.5l0.2,-1.1l0,-0.5l-0.3,-0.7l-0.9,-1.2l-0.3,-0.7l0.1,-1l0.5,-1.4l0.6,-1.3l0.6,-0.9l0.8,-0.6l1,-0.3l1.1,0l1.1,0l1.1,0.4l2.3,1.2l1,0.2l1.1,-0.5l1,-1.2l0.7,-1.2l0.8,-1l4.2,-1.9l0.9,-1l0,-0.5l0.8,0l4,-0.2l3.4,-0.8l3.2,-1.5l1.1,-0.3l3.1,-0.3l1,0l0.8,0.2l1.1,0.4l0.9,0.1l3.5,-0.2l1.2,-0.3l0.8,-0.3l1.4,-1.6l0.6,-0.6l1.6,-0.9l0.8,-0.3l0.5,-0.3l0.5,-0.1l0.2,0.1l0.4,0.8l0.4,0.4l0.8,0.8l0.7,0.2l0.9,0.2l1.8,-0.3l0.7,0.1l1.1,0.4l0.6,0.1l1,0.1l1,-0.3l0.7,-0.3l0.4,-0.5l0.4,-0.5l0.2,-0.5l0.1,-0.6l-0.5,-1.5l0.1,-0.3l0.3,-0.4l0.8,-0.8l0.2,-0.3l0.3,-0.6l0.3,-0.8l0.1,-0.8l-0.1,-0.8l-0.3,-0.6l-0.4,-0.4l-0.3,-0.3l-0.7,-0.4l-0.6,-0.6l-0.4,-0.3l-0.6,-0.1l-0.5,0.2l-0.3,0.3l-0.6,0.8l-0.7,0.7l-0.4,0.3l-0.4,0.2l-0.2,-0.4l-0.1,-0.5l0.1,-0.7l0.8,-2.5l-0.1,-0.7l0.1,-1.3l0.2,-0.6l0.3,-0.6l1.9,-2.2l0.1,-0.3l0.1,-0.3l0,-0.3l-0.2,-0.3l-0.3,-0.3l-0.4,-0.1l-0.4,-0.1l-0.3,-0.2l-0.2,-0.5l-0.3,-1l-0.1,-0.9l0.3,-2.9l1.4,0.6l1.4,0.2l1.9,0l1.5,-0.1l0.8,0l0.6,0.3l0.6,0.6l0.3,0.8l0,0.6l0,1l0.1,1.2l0.3,0.7l0.6,0.7l1.4,0.6l1.1,0l0.8,-0.1l1.5,-0.8l0.5,-0.1l0.3,0.3l0.4,1.1l0.6,1.1l1.6,2.7l0.4,1l0,1.3l0.2,1.7l1,1.3z"/>
   <path name="El Oro" id="ECO" d="m142.4,476.6l-0.3,2.9l0.1,0.9l0.3,1l0.2,0.5l0.3,0.2l0.4,0.1l0.4,0.1l0.3,0.3l0.2,0.3l0,0.3l-0.1,0.3l-0.1,0.3l-1.9,2.2l-0.3,0.6l-0.2,0.6l-0.1,1.3l0.1,0.7l-0.8,2.5l-0.1,0.7l0.1,0.5l0.2,0.4l0.4,-0.2l0.4,-0.3l0.7,-0.7l0.6,-0.8l0.3,-0.3l0.5,-0.2l0.6,0.1l0.4,0.3l0.6,0.6l0.7,0.4l0.3,0.3l0.4,0.4l0.3,0.6l0.1,0.8l-0.1,0.8l-0.3,0.8l-0.3,0.6l-0.2,0.3l-0.8,0.8l-0.3,0.4l-0.1,0.3l0.5,1.5l-0.1,0.6l-0.2,0.5l-0.4,0.5l-0.4,0.5l-0.7,0.3l-1,0.3l-1,-0.1l-0.6,-0.1l-1.1,-0.4l-0.7,-0.1l-1.8,0.3l-0.9,-0.2l-0.7,-0.2l-0.8,-0.8l-0.4,-0.4l-0.4,-0.8l-0.2,-0.1l-0.5,0.1l-0.5,0.3l-0.8,0.3l-1.6,0.9l-0.6,0.6l-1.4,1.6l-0.8,0.3l-1.2,0.3l-3.5,0.2l-0.9,-0.1l-1.1,-0.4l-0.8,-0.2l-1,0l-3.1,0.3l-1.1,0.3l-3.2,1.5l-3.4,0.8l-4,0.2l-0.8,0l0,-0.1l-0.3,-0.3l-0.5,-0.3l-0.5,-0.5l-0.1,-0.5l0,-1l-0.1,-0.5l-0.5,-1.1l-1.1,-1.7l-0.2,-1.1l0.1,-0.4l0.2,-0.4l0.2,-0.4l-0.1,-0.6l-0.3,-1l0,-0.4l0,-0.5l0,-0.5l0.4,-1.1l0.1,-0.5l-0.1,-0.6l-0.3,-1.1l0,-0.6l-0.1,-0.5l-0.5,-0.2l-0.6,-0.2l-0.3,-0.3l0,-0.5l0.4,-1.4l0.1,-1.1l0,-0.5l-0.1,-0.5l-0.4,-0.4l-0.8,-0.3l-0.4,-0.3l-0.1,-1.2l0.3,-1.1l0.2,-0.9l-0.8,-0.6l-2.1,-0.6l-0.8,-0.4l-0.4,-0.2l-0.1,-0.4l-0.1,-0.4l0.2,-0.6l0.7,-0.4l0.3,-0.7l0.3,-0.7l0.5,-0.8l-0.5,1.5l-0.2,0.4l0.3,1.1l0.7,-0.5l0.3,-1.7l0.5,-0.8l1.5,1.5l0.7,-0.3l4,-0.8l0.6,0.1l0.5,0.1l0.4,0l0.5,-0.2l1.2,-1.5l0.3,-0.2l2,-4.2l0.6,-0.8l1.2,0.2l0.3,1.3l-0.4,2.6l0.6,-0.3l0.3,-0.6l0.3,-0.6l0.5,-0.6l0.4,-0.4l1.8,-1l0.8,-1l0.5,-1.1l0.3,-1.2l0.2,-2.1l0.9,-2l1.2,-1.8l0.4,0l4.2,0.3l0.5,0.1l2.2,0.6l6.6,3.5l2.1,1.8l0.3,0.7l0.1,0.8l-0.1,0.8l-0.2,0.7l-1.2,2.4l-0.4,1.1l-0.2,0.5l-0.6,0.4l-1,0.5l-0.3,0.2l-0.1,0.5l0.4,0.2l0.6,0.3l1.9,0l3.1,-0.7l2,-0.2l0.7,0l0.9,0.2l1.8,0.6z"/>
   <path name="Guayas" id="ECG" d="m109.8,440.5l2.5,0.1l3.7,2.3l2.3,0.6l-0.1,0.4l-0.1,0.4l-0.3,0.4l-0.2,0.3l-0.6,0.5l-2.8,1.2l-0.1,0.4l-0.8,0.8l-0.2,0.3l-0.3,0.8l-0.4,0.8l-0.5,0.5l-0.1,0l-0.6,1l-0.6,1.3l-0.7,1.2l-0.4,0.9l-0.9,0.4l-0.7,0.8l0.1,1.3l-0.9,0.7l-0.3,0.8l-0.9,1.3l-1.9,-0.2l-1.1,0.6l-0.9,0.3l-1.3,-0.1l-1.3,-0.4l-0.8,-0.4l-0.3,-1.2l0.3,-1.9l0.2,-6.5l0.2,-0.7l1.9,-3.4l0.7,-2.2l0.8,-0.6l3.3,-0.9l3,-1.5l1.1,-0.4zm16.2,21.8l-2.2,-0.6l-0.5,-0.1l-4.2,-0.3l-0.4,0l0.7,-1.1l0.4,-1.1l-0.5,-0.9l0.2,-1.3l0.7,-2.1l0.1,-0.9l1.7,-5.6l1.1,-2l0.2,-0.4l0.5,-1.1l0.2,-1.3l1.1,-3.1l0.7,-1l1.6,-1.6l0.5,-1l0,-1.3l-0.3,-2.4l-0.8,-1.9l-0.1,-0.3l-1.2,0l-0.6,0l-0.5,-0.2l-0.6,-1l-1.1,-2.9l-0.6,-1.1l-0.4,-0.7l-0.1,-0.7l0.1,-3.2l-0.4,-2.5l0,-0.7l0.3,-1.2l0.1,-0.7l-0.2,-0.4l-0.1,-0.2l-0.7,-0.9l-0.2,-0.2l-0.1,-0.3l-0.1,-0.3l-0.1,-0.4l0,-0.6l0.3,-0.6l0.3,-0.5l0.1,-0.5l-0.4,-0.6l0.9,-0.9l0.8,-0.3l0.7,-0.4l0.2,-1.2l0.5,-0.6l0.8,-0.5l0.9,-0.6l0.4,-1.1l-3.2,1.8l-0.3,0.3l-0.2,0.4l0,1l-0.4,0.2l-1.8,0.1l-0.4,0.4l0,0.5l-0.5,1.3l-0.5,2.2l0,1.5l0.3,1.6l1.6,2.9l0.2,1.6l-0.9,10.6l-0.6,2.2l-0.3,0.6l-1.5,1.6l-0.5,0.4l-0.9,0.2l-1.9,1.1l-0.8,0.2l-0.5,-0.3l-0.3,-0.7l-0.5,-0.2l-1.1,0.2l-0.4,-0.2l-0.7,-0.5l-0.3,-0.9l0.7,-0.8l1.6,-1.1l0.5,-1.2l0.3,-0.8l0.5,-0.5l1.5,-0.1l0.3,0.2l0.4,0.5l0.4,0.4l0.6,0l0.5,-0.3l0.2,-0.5l0,-0.5l-0.3,-0.6l-0.3,1.1l-0.7,-0.2l-1.3,-1.2l-1.2,0.1l-1,0.5l-0.8,0.3l-0.3,-0.8l0.2,-1.2l1,-2.3l0.3,-1.3l0.2,-0.6l0.4,-0.3l0.7,-0.1l0.5,-0.3l0.4,-0.4l1.1,-1.7l-0.5,0.1l-0.2,0.2l-0.6,0.5l-0.4,0.2l-1.1,-0.1l-0.5,0.1l-0.7,0.4l-0.4,0.7l-2.4,6l-3.7,5.2l-1.6,1.8l-1.8,0.8l-0.4,0.7l-0.4,0.5l-0.5,0.3l-0.5,0l-0.3,-0.2l-0.2,-0.4l-0.3,-0.3l-0.8,-0.4l-0.5,0.4l-0.2,0.9l0.2,1.1l0.2,0.2l1.5,1.5l0.2,0.4l0,0.6l-0.1,1.2l-0.5,0.5l-1.2,-0.2l-2.3,-0.9l-2.3,-1.9l-0.8,-0.5l-0.7,-0.7l-0.3,-0.2l-0.4,-0.1l-0.9,-0.1l-0.5,-0.2l-2.1,-1.3l-4.1,-4.8l4,-3.7l3.2,-2.4l4.6,-1.1l2.7,-1.6l2.4,-3.6l0.8,-5.5l0.2,-4.8l-2.1,-3.3l-2,-1.8l-3.2,-1.9l-4.3,-1l-2.8,-1.7l-1.5,-2.6l-0.5,-2.3l2.2,0l1.6,-0.1l0.4,-0.2l0.3,-0.3l0.1,-0.4l0.1,-0.3l0.1,-0.4l0,-0.5l0.1,-0.6l0.4,-0.6l0.5,-0.5l0.4,-0.6l0.3,-0.6l0.4,-0.5l0.6,-0.5l0.6,-0.3l0.7,-0.3l0.4,-0.3l0.5,-1l0.4,-0.3l0.5,-0.2l0.4,0.2l0.4,0.3l0.3,0.2l0.3,-0.1l0.4,-0.3l0.7,-0.4l2.1,0.1l0.8,-0.2l0.2,-0.5l-0.5,-1.6l-0.1,-0.5l0,-0.5l0.1,-0.2l-0.1,-0.2l-0.4,-0.2l-0.5,-0.1l-0.6,-0.3l-0.7,-0.5l-0.5,-0.7l-0.3,-0.5l0,-0.3l3.3,-0.5l1.8,-1.2l0.3,-0.5l0,-0.4l-0.6,-0.9l-0.2,-0.6l-0.2,-0.6l0,-0.7l0.3,-1.4l0.2,-0.6l0.4,-0.5l0.2,-0.1l0.4,-0.1l0.8,-0.5l1.2,-0.4l0.3,-0.2l0.1,-0.4l-0.2,-1.2l0.1,-1.1l0.4,-0.8l0.6,-0.5l1.2,-0.5l2.1,-1.7l0.5,-0.7l1.1,-2.9l0.4,-1.7l0.5,-1l0.4,-1.3l0.3,-0.8l0.5,-0.6l0.4,-0.2l0.2,0.1l-0.1,0.4l-0.1,0.5l0.1,0.3l0.3,0.1l0.8,0l0.4,0l0.5,0.2l1,-0.3l0.8,-0.4l2.8,-2.3l0.6,-0.7l0.9,-1.5l0.7,-0.7l0.5,-0.6l0.2,-0.5l0.2,-0.5l0,-0.3l0,-0.4l0.1,-0.5l0.2,-0.3l0.9,-0.5l0.2,-0.5l0.3,-0.7l0.2,-0.6l2.1,-2.9l0.5,-0.5l0.7,-0.3l0.9,-0.3l3.4,-0.6l1.8,-0.5l1.9,-0.2l0.9,0l0.7,0.4l0.3,0.9l-0.3,1.7l-0.8,2.4l0,0.5l0.2,0.4l0,0.3l-0.3,0.5l-0.4,0.2l-0.5,0.4l-0.3,0.4l-0.3,0.6l-0.1,0.4l-0.4,1.9l-0.3,0.6l-0.3,0.4l-0.5,0.1l-0.5,0.1l-0.5,0.2l-0.3,0.3l-0.2,0.3l-0.6,0.7l-0.5,0.8l-0.4,0.3l-0.8,0.1l-0.4,0.1l-0.2,0.4l-0.1,0.6l-0.2,0.4l-0.2,0.4l-0.3,0.1l-0.4,0.1l-0.2,0.1l-0.2,0.1l-0.1,0.3l-0.1,0.6l-0.2,0.2l-0.2,0.2l-0.6,0.1l-0.3,0.1l-0.2,0.1l-0.2,0.3l0,0.3l0,1.1l-0.2,0.6l-0.1,0.5l-3,5.7l-0.5,0.6l-1,1l-0.6,1l-0.3,0.5l-0.9,2.5l-0.1,0.6l-0.2,3.4l0,0.6l0.8,2.4l-0.1,0.4l-0.4,0.9l0,0.7l0.1,0.7l0.1,0.6l0.3,0.3l4.4,2.3l0.8,0.8l0.6,1.1l0.4,1.1l0.5,0.9l1.3,1.8l0.4,0.7l0.7,1.8l1.3,2.3l0.3,1.2l0.4,0.4l1.2,0.3l1.9,-0.3l2.8,-1l0.9,-0.1l1.2,0.1l1.1,0.5l2.4,1.7l1.2,0.6l0.7,0.4l1.6,1.3l0.7,0.7l4,6.7l2.7,2.6l2.2,0.4l0.7,0l0.6,0l0.4,-0.2l0.3,-0.4l0.5,-0.3l0.5,0l0.5,0.5l0.2,0.4l-0.1,2.2l-0.6,1.2l-0.2,0.4l-0.6,0.6l-0.7,0.6l-1.3,0.7l-1.2,0.5l-1.1,0.3l-6.4,1.1l-0.7,0.3l-0.7,0.4l-1.5,1.2l-0.6,0.6l-0.5,0.7l0,1.3l-0.2,0.4l0,0.4l0.1,0.5l0.2,0.4l0,0.3l-1.8,1.1l-3.1,2.8l0.1,0.8l0.5,0.4l0.8,0.1l1.3,-0.7l1.5,-0.5l0.7,1.4l0.4,0.7l-0.1,0.6l-0.3,0.5l-1.2,1.3l-0.5,0.4l-0.3,0.2l-0.3,0.2l-0.3,0.2l-11.8,12.4l-0.5,1.3l-0.2,1.3l0.1,1l0.3,1.5l0.1,1.6l0,0.4l-3,3.6l-0.3,0.7l-0.2,0.5l-0.1,1zm-3.2,-31.4l0.6,1.4l1.3,0.5l0.7,1.2l-1.2,1.7l-1.9,1l-0.2,2.4l-1.3,0.8l-1.1,-0.1l-0.3,-1.2l0.8,-2.1l1.1,-2.9l1.5,-2.7z"/>
   <path stroke="null" name="Galápagos" id="ECW" d="m59.18778,519.3895l0.2935,0.11919l0.23061,0.28606l0.02096,0.26222l-0.3564,0.14303l-0.3564,-0.04768l-0.92244,-0.47677l0.23061,-0.28606l0.16772,0.04768l0.54508,0l0.14675,-0.04768zm-8.17614,-1.09657l0.02096,0.04768l0.06289,0.02384l0.04193,0.07152l0.04193,0.09535l-0.02096,0.07152l-0.02096,0.04768l-0.02096,0.04768l-0.02096,0.04768l-0.04193,0.04768l-0.14675,0.04768l-0.04193,0.02384l-0.02096,0.04768l0.02096,0.16687l0,0.04768l-0.06289,0.09535l-0.37736,0.26222l-0.06289,0l-0.41929,-0.04768l-0.16772,-0.14303l-0.14675,-0.16687l-0.25157,-0.16687l0.10482,-0.14303l0.10482,-0.16687l0.06289,-0.16687l0.08386,-0.40525l0.10482,-0.19071l0.12579,-0.07152l0.12579,0.16687l0.20964,-0.07152l0.31447,0.07152l0.27254,0.16687l0.12579,0.14303zm12.18036,-7.34226l0.14675,0.09535l0.14675,0l0.14675,-0.07152l0.12579,-0.07152l0.04193,0.47677l-0.20964,0.52445l-0.33543,0.47677l-0.33543,0.28606l-0.39833,0.14303l-0.06289,0.07152l-0.02096,0.14303l-0.14675,0.35758l-0.23061,0.40525l-0.14675,0.19071l-0.16772,0.11919l-0.16772,0.07152l-0.16772,0.02384l-0.39833,-0.02384l-0.12579,0.04768l-0.23061,0.19071l-0.14675,0.04768l-0.12579,-0.04768l-0.23061,-0.16687l-0.10482,-0.07152l-0.41929,-0.07152l-0.08386,-0.04768l-0.02096,-0.11919l0.06289,-0.14303l0.14675,-0.19071l0.08386,-0.09535l0.46122,-0.23839l0.14675,-0.14303l0.12579,-0.45293l0.10482,0l0.48218,-0.14303l0.12579,-0.14303l0.16772,-0.40525l0.10482,-0.14303l0.31447,-0.33374l0.06289,-0.11919l0.08386,-0.07152l0.39833,-0.16687l0.12579,-0.14303l0.18868,0l0.33543,-0.11919l0.14675,0.07152zm-10.04198,-1.90708l0.12579,0.14303l-0.02096,0.28606l-0.14675,0.54829l0,0.16687l0.06289,0.16687l0.02096,0.14303l-0.02096,0.04768l-0.10482,0.28606l0,0.07152l-0.18868,0.07152l-0.12579,0.21455l-0.12579,0.23839l-0.14675,0.19071l-0.08386,0.07152l-0.06289,0.02384l-0.56604,-0.02384l-0.04193,0.04768l-0.06289,0.26222l-0.14675,0.11919l-0.20964,0.04768l-0.20964,-0.02384l-0.39833,-0.14303l-0.23061,-0.04768l-0.08386,-0.07152l-0.04193,-0.07152l-0.06289,-0.02384l-0.08386,-0.09535l-0.25157,-0.38142l-0.10482,-0.14303l-0.14675,0.02384l-0.23061,-0.04768l-0.18868,-0.11919l-0.12579,-0.11919l-0.02096,-0.16687l0.02096,-0.6198l0.06289,-0.35758l0.12579,-0.3099l0.16772,-0.26222l0.18868,-0.21455l0.10482,-0.09535l0.31447,-0.14303l0.12579,-0.04768l0.12579,0.02384l0.25157,0.04768l0.08386,0.02384l0.10482,-0.02384l0.12579,-0.11919l0.08386,-0.02384l1.06919,-0.14303l0.25157,-0.14303l0.06289,0.02384l0.06289,0.04768l0.06289,0.04768l0.06289,0.07152l0.02096,0.11919l-0.02096,0.14303l0.02096,0.14303l0.08386,0.04768l0.10482,0l0.23061,0.07152l0.12579,0zm-13.73173,-1.09657l-0.10482,0.07152l-0.79665,0.35758l-0.18868,0.04768l-0.10482,0l-0.12579,-0.04768l-0.23061,-0.16687l-0.20964,-0.07152l-0.33543,-0.14303l-0.06289,-0.02384l-0.12579,0.02384l-0.04193,0l-0.06289,-0.04768l0,-0.04768l0.02096,-0.04768l-0.04193,-0.04768l-0.18868,-0.23839l-0.14675,-0.26222l-0.10482,-0.28606l-0.06289,-0.59596l-0.14675,-0.47677l0.02096,-0.16687l1.00629,0.02384l0.41929,-0.23839l0.52411,-0.14303l0.27254,-0.09535l0.06289,0l0.14675,0.09535l0.37736,0.45293l0.12579,0.07152l0.12579,0.11919l0.04193,0.28606l-0.06289,0.47677l0,1.12041zm9.49691,-2.1693l0.14675,0.09535l-0.06289,0.23839l-0.25157,0.40525l-0.08386,0.28606l-0.20964,0.07152l-0.25157,-0.04768l-0.48218,-0.16687l-0.79665,0l-0.20964,-0.07152l-0.20964,-0.14303l-0.20964,-0.07152l-0.25157,0.11919l-0.16772,-0.23839l-0.06289,-0.33374l-0.12579,-0.26222l-0.27254,-0.07152l0.48218,-0.73899l0.02096,-0.16687l-0.06289,-0.23839l0.08386,-0.23839l0.18868,-0.14303l0.20964,-0.04768l0.08386,0.04768l0.04193,0l0.04193,-0.04768l0.23061,0.16687l0.77569,0.3099l0.27254,0.04768l0.37736,0.16687l0.58701,0.73899l0.31447,0.23839l-0.04193,0.02384l-0.04193,0l-0.06289,0.07152zm-2.78828,5.74508l0.10482,0.07152l0.06289,0l0.04193,0.04768l0,0.19071l-0.04193,0.07152l-0.27254,0.14303l-0.10482,0.04768l-0.3564,1.26344l0.04193,0.33374l-0.02096,0.21455l-0.25157,-0.07152l-0.12579,0.21455l-0.2935,0.35758l-0.12579,0.21455l-0.18868,-0.09535l-0.18868,-0.02384l-0.3564,0.02384l-0.23061,0.07152l-0.3564,0.3099l-1.2998,0.50061l-0.25157,-0.07152l-0.16772,0.04768l-1.02726,-0.16687l-1.27883,0.02384l-0.23061,-0.07152l-0.18868,-0.19071l-0.04193,-0.14303l-0.02096,-0.14303l0,-0.28606l-0.04193,-0.14303l-0.10482,-0.04768l-0.12579,0l-0.12579,-0.04768l-0.2935,-0.50061l0.10482,-0.59596l0.31447,-0.54829l0.33543,-0.38142l1.34173,-0.97738l0.04193,-0.09535l0,-0.09535l0.04193,-0.04768l0.18868,-0.02384l0.27254,-0.14303l0.39833,-0.11919l0.14675,0l0.12579,0.04768l0.06289,0.04768l0.04193,0.04768l0.06289,0.04768l0.20964,0.07152l0.10482,0l0.12579,-0.04768l0.06289,-0.07152l0.10482,-0.19071l0.06289,-0.04768l0,-0.11919l0.10482,-0.28606l0.16772,-0.19071l0.16772,0.07152l0.12579,-0.21455l0,-0.19071l-0.08386,-0.16687l-0.12579,-0.14303l-0.16772,-0.07152l-0.33543,-0.11919l-0.12579,-0.07152l-0.27254,-0.28606l-0.27254,-0.40525l-0.20964,-0.45293l-0.10482,-0.42909l0.02096,-0.38142l-0.04193,-0.14303l-0.12579,-0.11919l-0.10482,-0.02384l-0.14675,-0.02384l-0.06289,-0.02384l-0.04193,-0.07152l-0.10482,-0.19071l-0.69183,-0.42909l-0.27254,-0.33374l0.02096,-0.40525l-0.23061,-0.14303l-0.14675,-0.28606l0.02096,-0.26222l0.27254,-0.09535l-0.20964,-0.33374l-0.06289,-0.19071l-0.04193,-0.23839l0,-0.42909l0,-0.11919l-0.06289,-0.21455l0,-0.11919l-0.10482,-0.42909l-0.25157,-0.21455l-0.3564,0l-0.37736,0.16687l-0.39833,0.3099l-0.20964,0.04768l-0.20964,-0.14303l-0.23061,-0.35758l-0.04193,-0.07152l0.02096,-0.11919l0.06289,-0.07152l0.08386,-0.02384l0.77569,-0.50061l0.20964,-0.23839l0.08386,-0.52445l0.27254,0.09535l0.23061,-0.07152l0.23061,-0.11919l0.3564,-0.11919l0.08386,-0.09535l0.06289,-0.11919l0.08386,-0.09535l0.14675,-0.04768l0.20964,0l0.10482,-0.04768l0.18868,0.19071l0.08386,0.3099l0.04193,0.26222l0.04193,0.11919l0.14675,0.11919l0.14675,0.57212l0.10482,0.11919l0.06289,0.04768l0.16772,0.23839l0.06289,0.07152l0.25157,0l0.10482,0.02384l0.08386,0.04768l0.08386,0.23839l0.02096,0.3099l-0.04193,0.59596l0.20964,1.45415l0.12579,0.21455l0.48218,0.50061l0.04193,0.04768l0.02096,0.07152l-0.02096,0.16687l0.04193,0.14303l0.08386,0.04768l0.08386,0.02384l0.04193,0.04768l1.15305,0.83435l0.08386,0.14303l0.02096,0.11919l0.06289,0.09535l0.14675,0.19071l0.06289,0.02384l0.16772,0.04768l0,0.07152l-0.02096,0.09535l-0.02096,0.04768l-0.02096,0.04768l0.10482,0.50061l0.04193,0.52445l-0.06289,0.23839l-0.31447,0.3099l-0.08386,0.19071l0.25157,-0.19071l0.06289,0.11919l0.02096,0.23839l0.04193,0.19071l0.48218,0.11919l0.23061,0.14303l0,0.28606l0.14675,0.02384l0.12579,0.07152l0.10482,0.09535l0.08386,0.16687l-0.08386,0.16687l0.16772,0.07152l0.39833,0.45293zm3.37528,-13.08734l-0.10482,-0.04768l-0.12579,-0.09535l-0.08386,-0.11919l-0.04193,-0.09535l0.02096,-0.28606l0.18868,-0.21455l0.25157,-0.14303l0.23061,-0.04768l0.27254,0.09535l0.27254,0.14303l0.20964,0.19071l0.10482,0.26222l-0.06289,0.19071l-0.20964,0.21455l-0.25157,0.16687l-0.25157,0.04768l-0.12579,-0.04768l-0.14675,-0.16687l-0.14675,-0.04768zm-3.22853,-4.7677l0.46122,0.28606l0.14675,0.57212l-0.18868,0.42909l-0.50315,-0.23839l0.08386,-0.26222l-0.08386,-0.57212l0.08386,-0.21455zm-11.59335,-9.46389l0.04193,0l0.04193,0.11919l-0.02096,0.04768l-0.04193,0.07152l-0.06289,-0.04768l-0.04193,-0.07152l0,-0.07152l0.08386,-0.04768zm-0.04193,-0.11919l0.06289,0l-0.04193,0.04768l-0.02096,-0.04768zm-2.13838,-3.40891l0.06289,-0.07152l0.06289,0.04768l0,0.11919l-0.08386,0.02384l-0.04193,-0.11919zm23.3125,16.99686l0.06289,0l0.10482,0l0.06289,0.19071l0,0.21455l-0.08386,0.09535l0,-0.14303l-0.08386,-0.04768l-0.10482,0.07152l0,0.09535l-0.10482,-0.04768l-0.04193,-0.19071l0.04193,-0.14303l0.14675,-0.09535z"/>
   <path name="Santa Elena" id="ECSE" d="m85.1,396l0.5,2.3l1.5,2.6l2.8,1.7l4.3,1l3.2,1.9l2,1.8l2.1,3.3l-0.2,4.8l-0.8,5.5l-2.4,3.6l-2.7,1.6l-4.6,1.1l-3.2,2.4l-4,3.7l-1.7,-2l-4.4,-4.2l-1.8,-0.5l-1.6,-0.8l-1.7,0.1l-2.9,-1l-1,-0.4l-2.3,-2l-1.1,-0.5l-0.9,0l-0.6,-0.1l-0.5,-0.5l-0.3,-1.8l-0.4,-0.9l-0.9,-1.2l-0.7,-0.8l-2,-1.6l-0.3,-0.3l-0.2,-0.6l-0.1,-0.5l0.2,-0.3l0.4,0.1l0.2,0.2l0.1,0.3l0.2,0.2l1.4,0.3l0.6,0l0.3,0.2l0.3,0.9l0.7,0.8l1.3,-0.1l2,-0.7l2.7,-2.2l2.2,-1.1l1.9,-2.1l0.4,-3.2l-0.8,-1.7l-0.4,-1.7l-0.2,-0.4l0.3,-0.6l0.6,-0.1l0.7,-0.4l0.2,-1.3l-0.2,-1.4l-1.5,-5.8l-0.8,-2.2l-0.3,-1l-0.5,-0.9l-0.5,-0.6l-0.7,-1l-0.3,-0.8l1.5,-0.3l1,0.1l0.4,0l0.8,-0.3l3.9,0.2l1,-0.2l1.9,-0.6l1,-0.1l1.6,0.3l0.7,0.4l0.3,0.5l-0.1,0.5l0,0.3l0.1,0.3l0.7,0.7l0.2,0.4l0.1,0.5l-0.2,1.6l-0.1,0.3l-0.6,1l-0.2,0.5l-0.1,0.5l-0.1,0.5l0.1,0.5l0.5,0.6l0.8,0.4l1.2,0.3z"/>
   <path name="Manabi" id="ECM" d="m113.1,277.6l1.3,3.3l0.7,0.9l0.4,0.2l0.4,0.1l0.4,0.1l0.3,0l0.3,0l0.1,-0.1l0.4,-0.3l0.2,-0.2l0.2,-0.2l0.2,-0.2l0.2,-0.2l0.2,-0.5l0.3,-0.6l0.1,-0.6l0,-0.1l0.1,-0.1l0.1,-0.1l0.2,0l0.1,-0.1l1.9,0.1l0.9,0l1,-0.2l0.7,-0.3l0.3,-0.2l0.6,-0.4l1.1,-1.2l0.3,-0.2l0.3,-0.2l0.7,-0.3l0.4,-0.1l0.3,0l0.3,0.2l0.2,0.1l0.6,0.4l0.4,0.5l0.1,0.1l0.1,0.2l0,0.1l0,0.1l0,0.1l-0.1,0.1l-0.5,0.5l-0.2,0.3l-0.1,0.2l-0.1,0.2l0,0.2l0,0.2l0,0.2l0.1,0.2l0.2,0.2l0.1,0.2l2.6,1.5l0.2,0.2l0.1,0.2l0.1,0.1l0,0.1l-0.1,0.2l-0.1,0.2l-0.3,0.3l-0.4,0.3l-0.3,0.2l-0.3,0.4l-0.2,0.4l-1,1.5l-0.1,0.1l0.1,0.2l0.2,0.2l0.6,0.6l0.3,0.1l0.2,0.1l0.2,-0.1l0.1,-0.1l0.2,-0.1l0.2,-0.1l0.3,0l0.1,0.1l0.1,0.2l0.1,0.9l0.1,0.3l0.1,0.2l0.1,0l0.2,0l0.1,-0.1l0.5,-0.3l0.3,-0.1l0.2,0l0.2,0.2l0.4,0.4l1,1l0.5,0.2l0.3,0.1l0.4,0l0.1,0.1l0.1,0l0.1,0.1l-0.1,0.1l-1.4,1.6l-0.1,0.2l-0.1,0.2l-0.1,0.4l0,0.2l-0.1,0.2l-0.1,0.1l-0.1,0.1l-0.2,0l-0.1,0.1l-0.1,0.1l-0.1,0.1l-0.1,0.2l-0.1,0.2l0,0.2l0,0.2l0.2,0.5l0,0.1l0,0.5l0.1,0.3l0.9,1.4l-0.4,0.5l-0.1,0.4l-0.1,0.6l0.2,1.1l0.3,0.5l0.5,0.4l0.3,0.1l0.4,0.2l0.4,0.4l0.7,0.4l0.4,0.4l1.4,1.7l1.4,1.3l0.4,0.2l1.9,0.6l0.3,0l0.9,0l0.4,0l0.5,0.2l0.2,0.4l-0.1,0.9l0.4,9.7l-0.2,0.8l-0.4,0.8l-1.7,2.7l-0.1,1.2l-0.1,0.5l-0.6,1.5l-0.9,1.2l-0.7,2.5l-0.5,1.2l-1.2,2.4l-0.6,1.9l-0.2,0.3l-0.5,0.4l-0.6,0.1l-0.5,0.3l-0.5,0.6l-0.5,1l-0.7,3.7l-1.1,2.2l-3.4,0.6l-0.9,0.3l-0.7,0.3l-0.5,0.5l-2.1,2.9l-0.2,0.6l-0.3,0.7l-0.2,0.5l-0.9,0.5l-0.2,0.3l-0.1,0.5l0,0.4l0,0.3l-0.2,0.5l-0.2,0.5l-0.5,0.6l-0.7,0.7l-0.9,1.5l-0.6,0.7l-2.8,2.3l-0.8,0.4l-1,0.3l-0.5,-0.2l-0.4,0l-0.8,0l-0.3,-0.1l-0.1,-0.3l0.1,-0.5l0.1,-0.4l-0.2,-0.1l-0.4,0.2l-0.5,0.6l-0.3,0.8l-0.4,1.3l-0.5,1l-0.4,1.7l-1.1,2.9l-0.5,0.7l-2.1,1.7l-1.2,0.5l-0.6,0.5l-0.4,0.8l-0.1,1.1l0.2,1.2l-0.1,0.4l-0.3,0.2l-1.2,0.4l-0.8,0.5l-0.4,0.1l-0.2,0.1l-0.4,0.5l-0.2,0.6l-0.3,1.4l0,0.7l0.2,0.6l0.2,0.6l0.6,0.9l0,0.4l-0.3,0.5l-1.8,1.2l-3.3,0.5l0,0.3l0.3,0.5l0.5,0.7l0.7,0.5l0.6,0.3l0.5,0.1l0.4,0.2l0.1,0.2l-0.1,0.2l0,0.5l0.1,0.5l0.5,1.6l-0.2,0.5l-0.8,0.2l-2.1,-0.1l-0.7,0.4l-0.4,0.3l-0.3,0.1l-0.3,-0.2l-0.4,-0.3l-0.4,-0.2l-0.5,0.2l-0.4,0.3l-0.5,1l-0.4,0.3l-0.7,0.3l-0.6,0.3l-0.6,0.5l-0.4,0.5l-0.3,0.6l-0.4,0.6l-0.5,0.5l-0.4,0.6l-0.1,0.6l0,0.5l-0.1,0.4l-0.1,0.3l-0.1,0.4l-0.3,0.3l-0.4,0.2l-1.6,0.1l-2.2,0l-1.2,-0.3l-0.8,-0.4l-0.5,-0.6l-0.1,-0.5l0.1,-0.5l0.1,-0.5l0.2,-0.5l0.6,-1l0.1,-0.3l0.2,-1.6l-0.1,-0.5l-0.2,-0.4l-0.7,-0.7l-0.1,-0.3l0,-0.3l0.1,-0.5l-0.3,-0.5l-0.7,-0.4l-1.6,-0.3l-1,0.1l-1.9,0.6l-1,0.2l-3.9,-0.2l-0.8,0.3l-0.4,0l-1,-0.1l-1.5,0.3l-0.9,-2.4l-0.8,-0.9l-0.2,-0.7l-0.1,-0.8l0.2,-0.6l1.9,-1.4l-0.2,-1.2l0,-1.6l0.5,-0.4l0.6,-0.6l0.7,-0.2l0.9,0l0.2,-0.7l0,-0.8l0.1,-1l0.3,-1l-0.3,-1.2l0.3,-0.8l0.9,-0.4l-0.1,-1.4l-1.6,-2.2l-3.2,-3.9l-2.6,-4.6l-1.2,-2.7l-0.7,-1.6l0.4,-1.1l0.6,-0.7l0.8,-0.6l0.7,-0.8l0.4,-0.5l0.4,-0.6l0.7,-0.7l0.7,-0.8l0.1,-0.4l0.6,-0.3l0.8,0.2l0.7,0l0.8,-0.4l0.7,-0.3l0.8,0.2l0.7,-0.3l0.6,-0.2l-0.1,0.5l1,0.4l0.8,0.1l0.7,-0.6l0.4,-0.1l0.4,-0.6l0.6,-0.1l0.5,0.7l0.5,0.1l1,0.1l1.3,-0.5l1.2,-1l1.2,-1.3l0.8,-3.4l0.2,-1l0.7,-3.5l1,-2.7l1.2,-2.5l0.7,-1.6l0.3,-0.3l0.4,-0.3l0.8,-0.1l0.7,-0.3l0.1,1.4l0.8,1.1l1.4,0.7l1.4,0.2l2.9,0l0,-0.6l-1.5,-0.4l-1.6,-0.4l-1.1,0l-0.8,-0.6l-0.6,-1.5l-0.7,-1.3l-0.7,-0.3l-0.4,-0.5l-0.1,-1.3l-0.6,-1.6l-0.1,-1.5l-0.8,-1.7l-1,-1.2l-0.7,-2.3l0.6,-0.8l1.1,-0.1l1.8,-1.4l1.7,-2.5l0.5,-1l0.2,-0.7l0.5,-1.2l0.4,-0.9l1.2,-0.4l0.7,-1.1l0.7,-1.2l1,0.9l1.2,-0.6l1.3,-1l1.5,-1.1l3.2,-3.5l2.6,-3.3l0.9,-1.1l0.4,-1.1l0.1,-0.7l0.3,-0.2l0.3,-0.1l1.1,-0.4l0.9,-2l0.4,-1.8l0.3,-2.9l0,-1.3l-0.5,-2.3l-0.1,-4.1l0.5,-1.4l0,-0.5l0.2,-0.2l0.5,0.3l0.3,0.3l0.2,0.4l0.3,0.8l0.4,0l0,-0.7l0.3,-0.4z"/>
   <path name="Azuay" id="ECA" d="m191.6,435.1l-0.3,1.6l0.1,0.6l0.2,0.5l0.4,0.4l0.5,0.2l0.4,0l0.2,-0.3l0.1,-0.6l0.2,-0.6l0.3,-0.6l0.6,-0.5l0.5,-0.2l0.5,-0.2l0.5,0l0.3,0.2l1.7,1.2l0.4,0.4l0.2,0.5l0.1,0.4l0,0.5l-0.2,0.5l-0.6,0.5l-6,3l-0.5,0.5l-0.5,0.6l-1.7,3.1l-0.1,0.4l0.2,0.4l0.3,0.4l0.5,0.5l0.4,0.6l0.2,0.5l0,0.5l-0.3,0.8l-2.6,4.2l-0.3,0.9l-0.2,0.6l-1.3,2.7l-0.2,0.8l0,0.9l0.1,0.8l-0.2,1l-0.5,0.9l-1.4,1.6l-1.4,1.1l-1.8,1l-2,0.6l-1.1,1.1l-6.7,5.3l-0.3,0.6l-0.1,0.4l0.3,0.9l-1.1,1l-3,1.8l-1,0.7l-0.7,0.7l-0.5,0.7l-0.2,0.5l-0.1,0.5l0.1,0.5l0.2,0.8l0.3,0.3l0.2,0.3l0,0.5l-0.4,1l-0.1,0.6l0,0.6l0.3,2l-0.6,3.1l-0.2,0.5l-0.3,0.5l-0.4,0.2l-0.4,0.1l-0.9,0.1l-1,-1.3l-0.2,-1.7l0,-1.3l-0.4,-1l-1.6,-2.7l-0.6,-1.1l-0.4,-1.1l-0.3,-0.3l-0.5,0.1l-1.5,0.8l-0.8,0.1l-1.1,0l-1.4,-0.6l-0.6,-0.7l-0.3,-0.7l-0.1,-1.2l0,-1l0,-0.6l-0.3,-0.8l-0.6,-0.6l-0.6,-0.3l-0.8,0l-1.5,0.1l-1.9,0l-1.4,-0.2l-1.4,-0.6l-1.8,-0.6l-0.9,-0.2l-0.7,0l-2,0.2l-3.1,0.7l-1.9,0l-0.6,-0.3l-0.4,-0.2l0.1,-0.5l0.3,-0.2l1,-0.5l0.6,-0.4l0.2,-0.5l0.4,-1.1l1.2,-2.4l0.2,-0.7l0.1,-0.8l-0.1,-0.8l-0.3,-0.7l-2.1,-1.8l-6.6,-3.5l0.1,-1l0.2,-0.5l0.3,-0.7l3,-3.6l0,-0.4l-0.1,-1.6l-0.3,-1.5l-0.1,-1l0.2,-1.3l0.5,-1.3l11.8,-12.4l0.3,-0.2l0.3,-0.2l0.3,-0.2l0.5,-0.4l1.2,-1.3l0.3,-0.5l0.1,-0.6l-0.4,-0.7l-0.7,-1.4l1.8,0.1l0.9,0.5l0.6,0.7l1,2.1l0.5,0.6l0.7,0.3l1.4,0.1l0.9,0.6l0.4,0.5l0.3,0.6l0.3,0.6l0.5,0.6l4.8,5l0.7,0.5l0.6,0.2l0.6,-0.4l0.1,-0.4l0.1,-0.5l0,-0.5l0.3,-0.3l0.5,-0.3l1.1,-0.5l0.4,-0.3l0.3,-0.4l0.1,-0.4l0.2,-0.4l0.3,-0.2l0.4,-0.1l0.6,0.3l0.7,0.4l0.8,0.7l0.7,0.8l1.6,2l1,0.7l1.2,1.2l0.3,0.5l0.2,0.6l0.3,1.3l0.3,0.6l0.8,0.3l2,0.2l0.8,0l0.6,-0.1l0.5,-0.2l0.4,0l0.5,0.1l0.3,0.1l0.3,-0.1l0,-0.3l-0.1,-0.9l0.1,-0.5l0.2,-0.4l1,-1.3l0.2,-0.3l0.1,-0.4l0,-0.4l-0.2,-0.5l-0.1,-0.6l0.1,-0.5l0.4,-0.6l0.4,-0.4l0.6,-0.2l0.7,0l1.1,0.2l0.4,0l0.5,-0.3l0.7,-0.5l1.1,-0.9l0.5,-0.4l1.3,-0.3l0.6,-0.2l0.8,-0.6l0.3,-0.7l0.1,-0.6l0.3,-0.6l0.5,-0.6l2,-1.4l0.8,0.1z"/>
   <path name="Cañar" id="ECF" d="m190,421.5l0,0.6l0.8,0.4l3.3,1.5l0.8,0.6l0.4,0.6l-0.1,0.5l-0.1,0.6l0.1,3.1l-0.3,1l0,0.5l0,0.7l-0.1,0.4l-0.2,0.4l-1.3,2l-0.5,0.7l-0.3,0.1l-0.1,0.1l-0.2,0l-0.2,0l-0.4,-0.2l-0.8,-0.1l-2,1.4l-0.5,0.6l-0.3,0.6l-0.1,0.6l-0.3,0.7l-0.8,0.6l-0.6,0.2l-1.3,0.3l-0.5,0.4l-1.1,0.9l-0.7,0.5l-0.5,0.3l-0.4,0l-1.1,-0.2l-0.7,0l-0.6,0.2l-0.4,0.4l-0.4,0.6l-0.1,0.5l0.1,0.6l0.2,0.5l0,0.4l-0.1,0.4l-0.2,0.3l-1,1.3l-0.2,0.4l-0.1,0.5l0.1,0.9l0,0.3l-0.3,0.1l-0.3,-0.1l-0.5,-0.1l-0.4,0l-0.5,0.2l-0.6,0.1l-0.8,0l-2,-0.2l-0.8,-0.3l-0.3,-0.6l-0.3,-1.3l-0.2,-0.6l-0.3,-0.5l-1.2,-1.2l-1,-0.7l-1.6,-2l-0.7,-0.8l-0.8,-0.7l-0.7,-0.4l-0.6,-0.3l-0.4,0.1l-0.3,0.2l-0.2,0.4l-0.1,0.4l-0.3,0.4l-0.4,0.3l-1.1,0.5l-0.5,0.3l-0.3,0.3l0,0.5l-0.1,0.5l-0.1,0.4l-0.6,0.4l-0.6,-0.2l-0.7,-0.5l-4.8,-5l-0.5,-0.6l-0.3,-0.6l-0.3,-0.6l-0.4,-0.5l-0.9,-0.6l-1.4,-0.1l-0.7,-0.3l-0.5,-0.6l-1,-2.1l-0.6,-0.7l-0.9,-0.5l-1.8,-0.1l-1.5,0.5l-1.3,0.7l-0.8,-0.1l-0.5,-0.4l-0.1,-0.8l3.1,-2.8l1.8,-1.1l0,-0.3l-0.2,-0.4l-0.1,-0.5l0,-0.4l0.2,-0.4l0,-1.3l0.5,-0.7l0.6,-0.6l1.5,-1.2l0.7,-0.4l0.7,-0.3l6.4,-1.1l1.1,-0.3l1.2,-0.5l1.3,-0.7l0.7,-0.6l0.6,-0.6l0.2,-0.4l0.6,-1.2l0.2,1.5l0.1,0.3l0.4,0.5l0.3,0.2l0.3,0.2l0.3,0.1l0.2,0.3l0.3,0.8l0.3,0.4l0.3,0.2l0.5,0.4l0.5,0.4l1.8,2.4l0.8,0.8l0.8,0.5l1.1,0.5l1.1,0.7l0.7,0.3l1.2,0.2l1.6,-0.2l1.7,-0.4l1.9,-0.9l0.9,-0.8l1.2,-1.2l1.4,-0.5l2,-0.5l6.8,-0.8l1.1,0.5z"/>
   <path name="Napo" id="ECN" d="m215.1,363.1l0.1,5.9l-0.2,0.8l-0.2,0.8l-1.5,2.8l-1.3,1.2l-1.1,1.1l-0.5,0.4l-0.9,0.4l-0.8,0.3l-1.3,0l-1.9,-0.3l-0.7,0.2l-1.1,0.6l-0.6,0.4l-0.9,1.2l-0.4,-0.5l-0.2,-1l-0.2,-0.3l-0.4,-0.2l-0.7,-0.2l-0.6,-0.4l-0.6,-0.2l-1,-0.3l-0.7,-0.3l-1.3,-0.9l-0.7,-0.3l-0.6,0.1l-0.5,0.5l-0.4,0.9l-0.5,0.6l-0.6,0.2l-0.9,-0.2l-0.8,-0.1l-1.1,0.2l-0.9,0.3l-1.3,0.2l-1.4,-0.1l-2.9,-0.6l-1.3,-0.5l-1.1,-0.6l-1.6,-1.2l-0.8,-0.4l-0.7,-0.2l-0.7,0.1l-0.7,0.3l-1.8,1.1l-1.1,0.4l-0.5,-0.7l-0.6,-0.8l-1.3,-1.9l-0.2,-0.7l0.6,-2.7l0.4,-1l0.7,-1.6l0.2,-0.9l0.1,-2.1l0.2,-0.7l1.1,-2.1l1.6,-0.6l1.5,-1.3l1.3,-0.4l1,-0.2l1,-0.1l2.5,0.6l1.4,0l0.9,-0.2l0.8,-0.4l1.3,-1l0.6,-0.2l1.4,-0.1l0.5,-0.2l0.4,-0.3l0.2,-0.4l0,-0.8l0,-0.3l0.6,-0.5l0.6,-0.1l0.5,0l0.4,0.2l0.4,0.2l0.3,0.3l0.4,0.3l0.7,0.3l1.3,-0.1l0.7,-0.3l0.5,-0.6l0.6,-1.1l0,-0.9l0.1,-0.6l0.2,-0.5l0.3,-0.6l0.2,-0.4l1.6,-1.4l1.1,1.9l1.4,1.6l0.5,1l0.2,0.8l0,2.5l-0.1,0.8l-0.1,0.5l-0.5,1l-0.2,0.6l0.2,0.2l0.3,0l1.9,-1.1l0.7,-0.2l0.7,0l1.2,0.3l0.4,0l0.9,-0.2l0.6,-0.1l0.2,0.2l0.2,0.3l0.1,0.5l0.3,0.1l0.6,-0.1l0.3,0l0.2,0.3l0.5,1.1l0.9,0.3l1.8,0.2l0.4,0.4l0.2,0.5l0,1.3z"/>
   <path name="Tungurahua" id="ECT" d="m230.4,294.5l2.4,0.6l0.5,0.3l0,0.1l0,0.1l0,0.1l0,0.2l-0.1,0.1l-0.1,0.1l0,0.1l-0.1,0.3l0,0.5l0.3,1.8l0.4,1l0.7,0.5l1,0.2l5.4,0.1l1.5,0.4l0.7,0.3l0.6,0.4l0.4,-0.1l0.6,-0.4l1.1,-1.2l0.6,-0.4l1,-0.1l0.5,-0.2l0.3,-0.3l0.2,-0.3l0.2,-0.2l0.2,-0.1l0.3,-0.1l0.7,-0.5l0.6,-0.3l0.4,0.2l0.2,0.4l0.2,0.5l0.2,0.4l0.1,0.3l0.1,0.2l-0.1,0.3l-0.1,0.3l-0.1,0.3l0,0.2l0.2,0.5l0,0.3l0,0.2l-0.1,0.4l-0.1,0.3l0,0.4l0.1,0.3l0.5,0.2l2.5,0.6l1,0.1l0.6,0l0.3,-0.2l0.4,-0.3l0.3,-0.5l0.6,-1.1l0.4,-0.7l1.4,-1.7l0.6,3.9l-0.2,0.5l-0.1,1.5l-0.2,0.8l0,0.5l0.3,0.6l0.4,0.5l0.7,0.9l0.6,1l0.2,0.4l-0.1,0.4l0,0.3l-0.2,0.3l0,0.2l0.5,1l-0.1,0.8l-0.1,0.5l-0.4,0.3l-0.2,0.3l-0.1,0.3l0,0.9l-0.2,0.5l-0.4,0.4l-0.6,0.3l-1.7,0.7l-0.1,0.4l-0.1,0.4l0.1,0.9l-0.2,0.3l-0.2,0.1l-0.7,-0.2l-0.3,0l-0.3,0.2l-0.2,0.4l-0.6,1.3l-1.3,2.2l-0.5,0.4l-0.6,0.2l-0.7,0.1l-1,-0.1l-1.4,-0.5l-1.2,-0.5l-2.3,-1.5l-0.7,-0.2l-0.5,0.1l-0.2,0.4l0,0.4l0.1,0.7l-0.3,0.4l-0.3,0.4l-1.7,1l-0.6,0.4l-0.3,0.4l0,0.5l0.1,0.4l0.7,0.4l0.5,0.1l0.6,0.3l0.6,0.5l1.5,1.9l0.6,1.2l0.2,0.3l0.8,0.5l0.4,0.4l0.3,0.5l0.4,1.4l0.1,0.7l-0.2,0.5l-0.7,1.1l-0.4,0.6l-0.4,0.9l-0.4,1l0,0.8l0.4,1.7l-0.1,0.8l-1.3,3.1l-0.4,0.7l-0.5,0.6l-0.5,0.5l0,0.5l0.7,0.4l1.2,0.2l1.3,-0.1l1.1,-0.2l0.9,-0.4l0.1,-0.2l1.1,-0.2l0.6,-0.5l8.5,-4.1l2,-0.7l0.4,-0.2l0.8,-0.9l1.3,-2.6l2.4,-2.3l0.7,-0.3l0.7,-0.5l0.8,0l0.4,0.3l0.1,0.3l-0.2,0.6l-0.5,0.6l-2.6,2.5l-0.6,0.9l-0.4,0.9l-0.1,0.8l0.2,0.9l0.3,0.5l0.6,0.2l0.4,0.2l0.5,0.2l2.5,1.7l0.9,0.4l2.3,0.3l0.7,0.2l0.3,0.3l0,0.3l-0.4,0.6l-0.9,0.8l-0.1,0.4l0.2,0.4l0.3,0.3l0.5,0.6l-0.5,1.2l-9,0.6l-0.8,0.2l-0.6,0.2l-0.6,0.4l-1.2,0.7l-5.2,1.6l-1.5,0.3l-1.8,0l-0.6,0.2l-0.7,0.4l-4.8,2.2l-2.6,0.2l-0.7,0.2l-0.7,0.3l-0.6,0l-0.5,0l-0.8,-0.2l-0.7,0.1l-0.7,0.1l-0.7,0.1l-0.6,0.3l-1,0.6l-0.7,0.1l-1.1,0.5l-0.6,0.2l-2.1,1.5l-1.3,0.6l-0.8,0.2l-0.7,-0.2l-0.5,-0.2l-0.4,-0.2l-0.3,0l-0.2,0.2l-0.3,0.8l-0.4,0.3l-0.5,-0.1l-0.5,-0.3l-0.6,-0.2l-0.8,-0.2l-1.3,0l-3.9,0.7l-1.5,0.1l-2.7,-0.2l0,-1.3l-0.2,-0.5l-0.4,-0.4l-1.8,-0.2l-0.9,-0.3l-0.5,-1.1l-0.2,-0.3l-0.3,0l-0.6,0.1l-0.3,-0.1l-0.1,-0.5l-0.2,-0.3l-0.2,-0.2l-0.6,0.1l-0.9,0.2l-0.4,0l-1.2,-0.3l-0.7,0l-0.7,0.2l-1.9,1.1l-0.3,0l-0.2,-0.2l0.2,-0.6l0.5,-1l0.1,-0.5l0.1,-0.8l0,-2.5l-0.2,-0.8l-0.5,-1l-1.4,-1.6l-1.1,-1.9l-0.9,-0.5l-1.3,-0.2l-0.4,-0.3l-0.1,-0.3l0.1,-0.4l0.3,-0.2l0.3,-0.3l0.3,-0.3l0.1,-0.5l0,-0.8l0.1,-0.5l0.3,-0.8l0.6,-0.8l0.6,-1.1l0.2,-1.1l-0.1,-1.2l-0.3,-1.9l-0.6,-1.9l0,-0.6l0.5,-1.4l1.1,-0.5l0.7,-0.2l1.4,-0.3l0.4,-0.3l0.3,-0.4l0.2,-0.7l0.2,-1.5l0.3,-0.7l0.5,-0.7l1,-1l0.6,-0.9l0.6,-1.1l0,-0.7l0,-0.5l0.1,-0.6l0.3,-0.6l0.6,-1.1l0.3,-0.7l0.1,-0.6l-0.8,-1.5l0.3,-0.8l0.6,-1l1.5,-2l0.6,-1.3l0.4,-1.3l0.2,-4.9l-0.1,-0.6l0.1,-0.4l0.4,-0.3l0.5,-0.2l0.5,-0.1l1.3,-0.4l0.4,0l0.4,0.2l0.6,0.5l0.3,0.2l0.4,-0.1l0.7,-0.2l0.5,-0.5l0.6,-1.1l0.1,-0.5l0.2,-0.5l0.2,-0.1l0.5,0.1l1.1,0.2l0.6,0l0.3,-0.2l0.6,-1l0.2,-0.3l0.4,-0.1l0.2,-0.3l0.2,-0.6l0.1,-1.4l0.2,-0.5l0.4,-0.4l1.9,-0.6l3.9,-2l0.6,-0.5l0.7,-1.2z"/>
   <path name="Chimborazo" id="ECH" d="m202.2,378.9l-0.5,0.9l-0.1,0.4l0,0.8l0.5,1.5l0.1,0.5l-0.1,0.6l-0.2,0.5l-0.4,0.5l-0.5,0.4l-1.3,0.7l-0.5,0.4l-0.4,0.5l-0.4,0.6l-0.4,0.3l-0.3,0.4l-0.3,0.3l-0.3,0.5l-0.1,0.6l0,1.1l0.1,1l0.2,0.8l0.2,0.5l0.3,0.3l0.3,0.3l0.2,0.5l0.2,1.3l0.4,1.6l-0.2,0.7l-2.2,2.4l-1.4,2.3l-0.2,0.6l0,0.7l0.2,0.4l0.4,0.4l0.4,0.3l0.4,0.5l0.2,0.7l0,1.3l0.2,0.6l0.5,1.1l-0.1,0.4l-0.7,0.5l-0.8,0.4l-0.8,0.6l-0.5,0.9l-0.4,1.5l0.2,2.1l0.1,0.3l0.2,0.3l0,0.3l-0.3,0.4l-0.9,0.7l-0.5,0.5l-0.3,0.8l0,0.6l-0.2,0.7l-0.3,0.5l-1.9,1.3l-1.1,-0.5l-6.8,0.8l-2,0.5l-1.4,0.5l-1.2,1.2l-0.9,0.8l-1.9,0.9l-1.7,0.4l-1.6,0.2l-1.2,-0.2l-0.7,-0.3l-1.1,-0.7l-1.1,-0.5l-0.8,-0.5l-0.8,-0.8l-1.8,-2.4l-0.5,-0.4l-0.5,-0.4l-0.3,-0.2l-0.3,-0.4l-0.3,-0.8l-0.2,-0.3l-0.3,-0.1l-0.3,-0.2l-0.3,-0.2l-0.4,-0.5l-0.1,-0.3l-0.2,-1.5l2.9,-1.5l1.9,-2l1.1,-1.5l0.2,-0.6l0.1,-0.6l-0.1,-0.6l-0.3,-0.5l-0.1,-0.5l-0.1,-0.7l1.4,-6.9l0,-0.6l-0.3,-1.2l-0.2,-1.7l0.2,-2.4l0,-1l0.2,-0.5l0.3,-0.4l0.5,-0.4l0.6,-0.4l2,-0.2l0.7,-0.2l1.9,-1.7l1.1,-1.7l0.6,-1.4l0.2,-1.5l-0.1,-1.8l0.1,-1.2l0.2,-1.3l0,-0.9l-0.3,-0.7l-0.9,-1.4l-0.3,-0.7l-0.1,-0.5l0.1,-1.1l1.1,-0.4l1.8,-1.1l0.7,-0.3l0.7,-0.1l0.7,0.2l0.8,0.4l1.6,1.2l1.1,0.6l1.3,0.5l2.9,0.6l1.4,0.1l1.3,-0.2l0.9,-0.3l1.1,-0.2l0.8,0.1l0.9,0.2l0.6,-0.2l0.5,-0.6l0.4,-0.9l0.5,-0.5l0.6,-0.1l0.7,0.3l1.3,0.9l0.7,0.3l1,0.3l0.6,0.2l0.6,0.4l0.7,0.2l0.4,0.2l0.2,0.3l0.2,1l0.4,0.5z"/>
   <path name="Bolivar" id="ECB" d="m160.2,415.6l0.1,-2.2l-0.2,-0.4l-0.5,-0.5l-0.5,0l-0.5,0.3l-0.3,0.4l-0.4,0.2l-0.6,0l-0.7,0l-2.2,-0.4l0.9,-1.7l0.4,-1.8l0.4,-0.9l0,-0.5l-0.4,-0.7l-1.8,-3l-1.8,-2.3l0,-0.5l0.2,-0.4l0.7,-0.5l0.2,-0.3l0.9,-3.6l0.5,-1l0.2,-0.8l-0.3,-0.6l-0.4,-0.6l-0.4,-0.7l-0.2,-0.7l0,-0.6l0.2,-1l-0.1,-0.5l-1.6,-2.4l-0.6,-1.2l-0.4,-0.5l-0.4,-0.2l-0.3,0l-0.3,-0.1l-0.2,-0.3l-0.3,-0.1l-0.4,-0.1l-0.3,-0.1l-0.2,-0.3l0.1,-0.3l0.3,-0.2l0.5,-0.3l0.4,-0.4l1.5,-1.7l0.3,0l0.3,0.1l0.3,0.2l0.2,0l0.3,-0.2l0.3,-0.5l0.2,-0.5l0.3,-0.8l0.1,-0.7l-0.3,-0.7l-0.5,-0.4l-1.7,-1.1l-0.8,-0.8l-0.4,-0.9l-0.3,-1.2l0.1,-4.2l0.1,-0.5l0.3,-0.4l0.2,0l0.3,0l0.3,-0.1l0.3,-0.3l0.1,-0.3l0,-0.3l-1.6,-1.1l-0.5,-1l-0.4,-0.2l-0.3,0l-0.3,0.3l-0.7,1l-0.4,0.4l-0.5,0.2l-0.4,-0.1l-0.1,-0.3l0.1,-0.7l0.8,-1l1.3,-2l1,-1.4l2.6,-1.2l2.5,-0.2l4,-2l1.2,-0.3l1.6,-0.2l0.7,0l0.8,0.1l0.3,0.3l0.3,0.4l0.3,0.4l1.7,1l1,0.5l1.3,0.4l1.2,-0.1l0.9,-0.3l1.5,-1.2l0.9,-0.5l0.7,-0.1l1.5,0.5l-1.1,2.1l-0.2,0.7l-0.1,2.1l-0.2,0.9l-0.7,1.6l-0.4,1l-0.6,2.7l0.2,0.7l1.3,1.9l0.6,0.8l0.5,0.7l-0.1,1.1l0.1,0.5l0.3,0.7l0.9,1.4l0.3,0.7l0,0.9l-0.2,1.3l-0.1,1.2l0.1,1.8l-0.2,1.5l-0.6,1.4l-1.1,1.7l-1.9,1.7l-0.7,0.2l-2,0.2l-0.6,0.4l-0.5,0.4l-0.3,0.4l-0.2,0.5l0,1l-0.2,2.4l0.2,1.7l0.3,1.2l0,0.6l-1.4,6.9l0.1,0.7l0.1,0.5l0.3,0.5l0.1,0.6l-0.1,0.6l-0.2,0.6l-1.1,1.5l-1.9,2l-2.9,1.5z"/>
   <path name="Imbabura" id="ECI" d="m166.6,281.8l1,0l0.3,0l0.2,-0.2l0.3,-0.4l1.8,-2.8l1.1,-1.2l0.6,-0.4l0.1,-0.1l0,-0.3l0,-0.3l0.2,-0.4l0.3,-0.4l0.7,-0.7l0.6,-0.6l1,-0.6l0.7,-0.2l0.6,-0.1l1.6,0.6l1.9,0.2l0.6,0.2l1.1,0.2l0.6,0.1l0.5,0l0.5,0.2l0.3,0.3l0.8,0.8l0.5,0.3l0.3,0.1l0.4,0l0.4,-0.2l0.9,-0.7l0.9,-1l1.8,-2.4l1.8,-1.9l0.7,-1.1l0.5,-0.4l1.7,-1.3l0.5,-0.2l0.5,0l0.8,0.1l0.6,0l0.8,-0.1l0.5,-0.2l0.4,-0.3l0.3,-0.4l0.1,-0.7l0,-0.8l-0.5,-0.9l-1.4,-1.8l-0.3,-0.5l-0.3,-0.6l-0.4,-1.6l-0.2,-0.6l-1.6,-2.9l-0.1,-0.5l0.1,-0.3l0.5,-0.3l0.5,-0.1l1,-0.1l0.4,-0.1l0.4,-0.3l0.5,-0.4l0.3,-0.6l0.1,-0.8l-0.1,-1l0.1,-2.1l0.8,0.4l1,0.3l2,0.2l0.7,0.2l0.4,0.2l1,0.9l2.4,1.6l1.7,1.5l1.3,1.5l1.4,2.5l2.1,2.7l1.2,3.1l0,0.5l-0.1,1.5l0.1,1l0.3,1l0.6,0.8l2,0.4l0.4,0.3l0.7,0.5l1.1,0.2l0.9,0.1l1.9,0.5l2.5,1.4l2.2,1.5l2.5,1.4l0.7,0.5l0.9,1.2l1.3,0.6l-1.7,2.2l-0.3,0.7l0,0.4l0,0.1l0.1,0.1l0.1,0.1l0.1,0l0.1,0l0.1,0l0.2,0.1l0.1,0.1l0.1,0.2l0,0.2l-0.2,0.2l-0.2,0.1l-0.7,0.8l-1,1.4l-0.2,0.3l-0.2,0.2l-0.3,0.1l-0.2,0.1l-0.3,0.1l-0.8,0.5l-1.9,2l-6.2,-1.9l-0.9,-0.1l-0.7,0.4l-1.3,1l-0.9,0.6l-2.4,1.1l-1.5,0.4l-1.3,0l-1.5,-0.4l-1,-0.5l-0.8,-0.6l-1.2,-1l-0.6,-0.5l-0.5,0l-0.6,0.2l-1,0.9l-0.3,0.1l-0.1,-0.2l0,-0.4l0.4,-1l0,-0.5l-0.1,-0.6l-0.1,-0.6l-0.4,-0.4l-0.9,-0.4l-1.5,-0.1l-2.8,0.1l-2.9,0.6l-0.7,-0.1l-1.2,0.4l-2.8,0.3l-0.6,0.2l-0.7,0.1l-1.2,0l-5.5,-1.2l-1.3,-0.1l-4.6,0.5l-2.2,0.7l-1.1,0.1l-0.7,0.2l-0.8,0l-0.9,-0.2l-0.8,-0.4l-0.6,-0.3l-0.9,-2.1z"/>
   <path name="Cotopaxi" id="ECX" d="m200.2,348.4l-1.6,1.4l-0.2,0.4l-0.3,0.6l-0.2,0.5l-0.1,0.6l0,0.9l-0.6,1.1l-0.5,0.6l-0.7,0.3l-1.3,0.1l-0.7,-0.3l-0.4,-0.3l-0.3,-0.3l-0.4,-0.2l-0.4,-0.2l-0.5,0l-0.6,0.1l-0.6,0.5l0,0.3l0,0.8l-0.2,0.4l-0.4,0.3l-0.5,0.2l-1.4,0.1l-0.6,0.2l-1.3,1l-0.8,0.4l-0.9,0.2l-1.4,0l-2.5,-0.6l-1,0.1l-1,0.2l-1.3,0.4l-1.5,1.3l-1.6,0.6l-1.5,-0.5l-0.7,0.1l-0.9,0.5l-1.5,1.2l-0.9,0.3l-1.2,0.1l-1.3,-0.4l-1,-0.5l-1.7,-1l-0.3,-0.4l-0.3,-0.4l-0.3,-0.3l-0.8,-0.1l-0.7,0l-1.6,0.2l-1.2,0.3l-4,2l-2.5,0.2l-0.4,-1.7l-1.4,-1.9l-0.5,-0.8l0,-1.3l0.2,-1.4l0.8,-3.8l-0.1,-0.9l0,-1l0.2,-0.9l0.7,-1.9l0.4,-0.8l0.6,-0.6l0.6,-0.5l0.6,-0.5l1.5,-2.7l0.4,-0.5l0.5,-0.4l0.5,-0.3l0.5,-0.3l0.3,-0.4l0.8,-1.4l3.7,-8.8l0.6,-2.4l0.8,1.2l0.2,0.2l0.3,0.2l0.5,0.2l0.3,-0.1l0.6,-0.2l0.3,-0.4l0.2,-0.4l0.2,-0.8l0.2,-0.3l0.4,-0.2l0.6,-0.2l0.4,-0.2l0.2,-0.1l0,-0.3l-0.1,-0.4l-0.2,-0.5l-0.3,-0.4l-0.4,-0.3l-0.9,-0.5l-0.3,-0.2l-0.1,-0.2l0,-0.3l0.3,-0.3l0.5,-0.9l0.6,-1.6l0.3,-0.3l0.2,-0.2l0.2,-0.2l0.9,-0.4l0.3,-0.2l0.2,-0.2l0.1,-0.4l0.1,-0.4l0.1,-0.4l0.3,-0.4l0.2,-0.2l0.3,-0.1l0.6,-0.2l0.2,-0.2l0.2,-0.2l0.1,-0.1l0.3,-0.1l0.5,0.4l0.2,0.2l0,0.7l0.1,0.4l2.1,2.6l0.8,1.5l0.6,1l0.2,0.5l0.3,1.3l0.2,0.6l0.8,0.6l3.4,2.5l0.9,1.2l0.5,1.2l0.1,0.9l0.2,0.5l0.4,0.5l0.3,0.2l0.6,-0.2l1.4,-1l0.5,-0.2l0.4,-0.1l0.4,-0.2l0.4,-0.2l0.5,-0.5l0.7,-0.3l0.5,-0.1l0.4,0.4l0.3,0.4l0.3,0.1l0.6,-0.2l1.4,-0.8l0.6,0l0.8,0l1.3,0.2l0.7,-0.1l1.5,0.6l3.6,3.7l-0.5,1.4l0,0.6l0.6,1.9l0.3,1.9l0.1,1.2l-0.2,1.1l-0.6,1.1l-0.6,0.8l-0.3,0.8l-0.1,0.5l0,0.8l-0.1,0.5l-0.3,0.3l-0.3,0.3l-0.3,0.2l-0.1,0.4l0.1,0.3l0.4,0.3l1.3,0.2l0.9,0.5z"/>
   <path name="Los Rios" id="ECR" d="m154.4,413l-2.7,-2.6l-4,-6.7l-0.7,-0.7l-1.6,-1.3l-0.7,-0.4l-1.2,-0.6l-2.4,-1.7l-1.1,-0.5l-1.2,-0.1l-0.9,0.1l-2.8,1l-1.9,0.3l-1.2,-0.3l-0.4,-0.4l-0.3,-1.2l-1.3,-2.3l-0.7,-1.8l-0.4,-0.7l-1.3,-1.8l-0.5,-0.9l-0.4,-1.1l-0.6,-1.1l-0.8,-0.8l-4.4,-2.3l-0.3,-0.3l-0.1,-0.6l-0.1,-0.7l0,-0.7l0.4,-0.9l0.1,-0.4l-0.8,-2.4l0,-0.6l0.2,-3.4l0.1,-0.6l0.9,-2.5l0.3,-0.5l0.6,-1l1,-1l0.5,-0.6l3,-5.7l0.1,-0.5l0.2,-0.6l0,-1.1l0,-0.3l0.2,-0.3l0.2,-0.1l0.3,-0.1l0.6,-0.1l0.2,-0.2l0.2,-0.2l0.1,-0.6l0.1,-0.3l0.2,-0.1l0.2,-0.1l0.4,-0.1l0.3,-0.1l0.2,-0.4l0.2,-0.4l0.1,-0.6l0.2,-0.4l0.4,-0.1l0.8,-0.1l0.4,-0.3l0.5,-0.8l0.6,-0.7l0.2,-0.3l0.3,-0.3l0.5,-0.2l0.5,-0.1l0.5,-0.1l0.3,-0.4l0.3,-0.6l0.4,-1.9l0.1,-0.4l0.3,-0.6l0.3,-0.4l0.5,-0.4l0.4,-0.2l0.3,-0.5l0,-0.3l-0.2,-0.4l0,-0.5l0.8,-2.4l0.3,-1.7l-0.3,-0.9l-0.7,-0.4l-0.9,0l-1.9,0.2l-1.8,0.5l1.1,-2.2l0.7,-3.7l0.5,-1l0.5,-0.6l0.5,-0.3l0.6,-0.1l0.5,-0.4l0.2,-0.3l0.6,-1.9l1.2,-2.4l0.5,-1.2l0.7,-2.5l1.6,0.1l1.2,0.1l2.9,-0.1l1.2,0.2l0.6,0.3l-0.2,0.3l-0.4,0.4l-0.2,0.5l0.1,0.8l0.3,0.9l0.1,0.8l-0.2,0.6l-0.4,0.7l-0.1,0.5l0.1,0.5l0.1,0.5l0.3,0.4l0.5,0.4l0.7,0.2l0.7,0.1l0.7,0l0.7,-0.2l0.6,-0.4l0.5,-0.6l0.8,-0.7l0.7,-0.5l1.4,-0.8l0.6,-0.4l4,-4l0.8,-0.4l0.6,-0.1l1,0.4l-0.6,2.4l-3.7,8.8l-0.8,1.4l-0.3,0.4l-0.5,0.3l-0.5,0.3l-0.5,0.4l-0.4,0.5l-1.5,2.7l-0.6,0.5l-0.6,0.5l-0.6,0.6l-0.4,0.8l-0.7,1.9l-0.2,0.9l0,1l0.1,0.9l-0.8,3.8l-0.2,1.4l0,1.3l0.5,0.8l1.4,1.9l0.4,1.7l-2.6,1.2l-1,1.4l-1.3,2l-0.8,1l-0.1,0.7l0.1,0.3l0.4,0.1l0.5,-0.2l0.4,-0.4l0.7,-1l0.3,-0.3l0.3,0l0.4,0.2l0.5,1l1.6,1.1l0,0.3l-0.1,0.3l-0.3,0.3l-0.3,0.1l-0.3,0l-0.2,0l-0.3,0.4l-0.1,0.5l-0.1,4.2l0.3,1.2l0.4,0.9l0.8,0.8l1.7,1.1l0.5,0.4l0.3,0.7l-0.1,0.7l-0.3,0.8l-0.2,0.5l-0.3,0.5l-0.3,0.2l-0.2,0l-0.3,-0.2l-0.3,-0.1l-0.3,0l-1.5,1.7l-0.4,0.4l-0.5,0.3l-0.3,0.2l-0.1,0.3l0.2,0.3l0.3,0.1l0.4,0.1l0.3,0.1l0.2,0.3l0.3,0.1l0.3,0l0.4,0.2l0.4,0.5l0.6,1.2l1.6,2.4l0.1,0.5l-0.2,1l0,0.6l0.2,0.7l0.4,0.7l0.4,0.6l0.3,0.6l-0.2,0.8l-0.5,1l-0.9,3.6l-0.2,0.3l-0.7,0.5l-0.2,0.4l0,0.5l1.8,2.3l1.8,3l0.4,0.7l0,0.5l-0.4,0.9l-0.4,1.8l-0.9,1.7z"/>
   <path name="Pichincha" id="ECP" d="m147.5,293.7l1.1,-2.6l0.7,-1.3l0.6,-1.6l0.7,-1l0.2,-0.3l-0.1,-0.3l-0.1,-0.4l-0.4,-0.4l-0.5,-0.4l-1.4,-1l-0.2,-0.3l0,-0.4l0.3,-0.4l0.5,-0.3l1.1,-0.5l0.8,-0.5l1.1,-0.9l0.5,-0.3l0.7,-0.3l0.5,-0.3l1.6,-1l0.6,-0.2l0.8,0l1.3,0.1l1.4,0l5.7,1.2l0.5,0.2l0.3,0.2l0.8,1.1l0.9,2.1l0.6,0.3l0.8,0.4l0.9,0.2l0.8,0l0.7,-0.2l1.1,-0.1l2.2,-0.7l4.6,-0.5l1.3,0.1l5.5,1.2l1.2,0l0.7,-0.1l0.6,-0.2l2.8,-0.3l1.2,-0.4l0.7,0.1l2.9,-0.6l2.8,-0.1l1.5,0.1l0.9,0.4l0.4,0.4l0.1,0.6l0.1,0.6l0,0.5l-0.4,1l0,0.4l0.1,0.2l0.3,-0.1l1,-0.9l0.6,-0.2l0.5,0l0.6,0.5l1.2,1l0.8,0.6l1,0.5l1.5,0.4l1.3,0l1.5,-0.4l2.4,-1.1l0.9,-0.6l1.3,-1l0.7,-0.4l0.9,0.1l6.2,1.9l-1.3,2.3l-0.1,0l0,0.1l0.1,0.1l0.1,0.1l0.2,0.1l0.6,0.2l0.6,0.2l0.1,0l0.1,0l0.2,0l0.1,0l1.5,0.7l0.7,0.3l0.3,0l0.2,0.1l0.2,0.1l0.8,0.4l0.3,0.3l0.2,0.3l0.1,0.5l0.1,0.6l0.1,0.1l0,0.1l0.3,0.2l0.6,0.2l-0.7,1.2l-0.6,0.5l-3.9,2l-1.9,0.6l-0.4,0.4l-0.2,0.5l-0.1,1.4l-0.2,0.6l-0.2,0.3l-0.4,0.1l-0.2,0.3l-0.6,1l-0.3,0.2l-0.6,0l-1.1,-0.2l-0.5,-0.1l-0.2,0.1l-0.2,0.5l-0.1,0.5l-0.6,1.1l-0.5,0.5l-0.7,0.2l-0.4,0.1l-0.3,-0.2l-0.6,-0.5l-0.4,-0.2l-0.4,0l-1.3,0.4l-0.5,0.1l-0.5,0.2l-0.4,0.3l-0.1,0.4l0.1,0.6l-0.2,4.9l-0.4,1.3l-0.6,1.3l-1.5,2l-0.6,1l-0.3,0.8l0.8,1.5l-0.1,0.6l-0.3,0.7l-0.6,1.1l-0.3,0.6l-0.1,0.6l0,0.5l0,0.7l-0.6,1.1l-0.6,0.9l-1,1l-0.5,0.7l-0.3,0.7l-0.2,1.5l-0.2,0.7l-0.3,0.4l-0.4,0.3l-1.4,0.3l-0.7,0.2l-1.1,0.5l-3.6,-3.7l-1.5,-0.6l-0.7,0.1l-1.3,-0.2l-0.8,0l-0.6,0l-1.4,0.8l-0.6,0.2l-0.3,-0.1l-0.3,-0.4l-0.4,-0.4l-0.5,0.1l-0.7,0.3l-0.5,0.5l-0.4,0.2l-0.4,0.2l-0.4,0.1l-0.5,0.2l-1.4,1l-0.6,0.2l-0.3,-0.2l-0.4,-0.5l-0.2,-0.5l-0.1,-0.9l-0.5,-1.2l-0.9,-1.2l-3.4,-2.5l-0.8,-0.6l-0.2,-0.6l-0.3,-1.3l-0.2,-0.5l-0.6,-1l-0.8,-1.5l-2.1,-2.6l-0.1,-0.4l0,-0.7l-0.2,-0.2l-0.5,-0.4l1.7,-2.6l6.9,-0.7l1,-3.8l-2.8,-3.1l-5.1,-2.7l-1.7,-1.7l-9.6,0.3l-0.4,-4.5l-11,-0.3l-2.9,-2.2z"/>
   <path name="Santo Domingo de los Tsáchilas" id="ECSD" d="m134.9,297l1.1,-0.1l1.2,0.3l3.3,0.4l1.6,0.4l0.5,0.3l0.5,0.2l0.5,0.5l0.1,0l0.2,-0.2l0.2,-0.2l0.3,-0.2l0,-0.3l-0.1,-0.2l-0.2,-0.1l-0.2,0l-0.2,0l-0.1,0l-0.2,-0.1l-0.6,-0.8l-0.1,-0.3l0.1,-0.3l1,-0.3l0.5,-0.3l1.4,-0.3l0.7,-0.4l0.8,-0.7l0.3,-0.6l2.9,2.2l11,0.3l0.4,4.5l9.6,-0.3l1.7,1.7l5.1,2.7l2.8,3.1l-1,3.8l-6.9,0.7l-1.7,2.6l-0.3,0.1l-0.1,0.1l-0.2,0.2l-0.2,0.2l-0.6,0.2l-0.3,0.1l-0.2,0.2l-0.3,0.4l-0.1,0.4l-0.1,0.4l-0.1,0.4l-0.2,0.2l-0.3,0.2l-0.9,0.4l-0.2,0.2l-0.2,0.2l-0.3,0.3l-0.6,1.6l-0.5,0.9l-0.3,0.3l0,0.3l0.1,0.2l0.3,0.2l0.9,0.5l0.4,0.3l0.3,0.4l0.2,0.5l0.1,0.4l0,0.3l-0.2,0.1l-0.4,0.2l-0.6,0.2l-0.4,0.2l-0.2,0.3l-0.2,0.8l-0.2,0.4l-0.3,0.4l-0.6,0.2l-0.3,0.1l-0.5,-0.2l-0.3,-0.2l-0.2,-0.2l-0.8,-1.2l-1,-0.4l-0.6,0.1l-0.8,0.4l-4,4l-0.6,0.4l-1.4,0.8l-0.7,0.5l-0.8,0.7l-0.5,0.6l-0.6,0.4l-0.7,0.2l-0.7,0l-0.7,-0.1l-0.7,-0.2l-0.5,-0.4l-0.3,-0.4l-0.1,-0.5l-0.1,-0.5l0.1,-0.5l0.4,-0.7l0.2,-0.6l-0.1,-0.8l-0.3,-0.9l-0.1,-0.8l0.2,-0.5l0.4,-0.4l0.2,-0.3l-0.6,-0.3l-1.2,-0.2l-2.9,0.1l-1.2,-0.1l-1.6,-0.1l0.9,-1.2l0.6,-1.5l0.1,-0.5l0.1,-1.2l1.7,-2.7l0.4,-0.8l0.2,-0.8l-0.4,-9.7l0.1,-0.9l-0.2,-0.4l-0.5,-0.2l-0.4,0l-0.9,0l-0.3,0l-1.9,-0.6l-0.4,-0.2l-1.4,-1.3l-1.4,-1.7l-0.4,-0.4l-0.7,-0.4l-0.4,-0.4l-0.4,-0.2l-0.3,-0.1l-0.5,-0.4l-0.3,-0.5l-0.2,-1.1l0.1,-0.6l0.1,-0.4l0.4,-0.5z"/>
  </g>
 </g>
</svg>