<svg width="1080" height="2400" xmlns="http://www.w3.org/2000/svg" baseprofile="tiny" fill="#6f9c76" stroke="#ffffff" stroke-linecap="round" stroke-linejoin="round" stroke-width=".5" version="1.2" viewbox="0 0 1000 398">
 <g>
  <title>Layer 1</title>
  <g id="points">
   <circle r="0" class="-4.677585246151541|-91.17236996218656" cx="329.89509" cy="1353.88352" id="0"/>
   <circle r="0" class="-2.0072865878189567|-82.78020890747952" cx="784.49509" cy="1208.98352" id="1"/>
   <circle r="0" class="1.330586735096773|-76.06648006371388" cx="1148.09509" cy="1028.18352" id="2"/>
  </g>
  <g id="label_points">
   <circle r="0" class="Esmeraldas" cx="976.99509" cy="1062.38352" id="ECE"/>
   <circle r="0" class="Carchi" cx="1043.89509" cy="1063.48352" id="ECC"/>
   <circle r="0" class="Sucumbios" cx="1127.09509" cy="1106.88352" id="ECU"/>
   <circle r="0" class="Orellana" cx="1140.49509" cy="1146.88352" id="ECD"/>
   <circle r="0" class="Pastaza" cx="1104.69509" cy="1193.98352" id="ECY"/>
   <circle r="0" class="Morona Santiago" cx="1046.59509" cy="1233.48352" id="ECS"/>
   <circle r="0" class="Zamora Chinchipe" cx="996.79509" cy="1320.08352" id="ECZ"/>
   <circle r="0" class="Loja" cx="956.99509" cy="1323.88352" id="ECL"/>
   <circle r="0" class="El Oro" cx="942.89509" cy="1290.98352" id="ECO"/>
   <circle r="0" class="Guayas" cx="934.49509" cy="1200.38352" id="ECG"/>
   <circle r="0" class="Galápagos" cx="338.59509" cy="1142.48352" id="ECW"/>
   <circle r="0" class="Santa Elena" cx="907.79509" cy="1218.98352" id="ECSE"/>
   <circle r="0" class="Manabi" cx="938.69509" cy="1123.98352" id="ECM"/>
   <circle r="0" class="Azuay" cx="979.49509" cy="1265.68352" id="ECA"/>
   <circle r="0" class="Cañar" cx="995.19509" cy="1239.18352" id="ECF"/>
   <circle r="0" class="Napo" cx="1016.49509" cy="1168.68352" id="ECN"/>
   <circle r="0" class="Tungurahua" cx="1046.09509" cy="1143.18352" id="ECT"/>
   <circle r="0" class="Chimborazo" cx="1003.69509" cy="1203.88352" id="ECH"/>
   <circle r="0" class="Bolivar" cx="986.19509" cy="1185.58352" id="ECB"/>
   <circle r="0" class="Imbabura" cx="1026.69509" cy="1077.78352" id="ECI"/>
   <circle r="0" class="Cotopaxi" cx="994.89509" cy="1146.88352" id="ECX"/>
   <circle r="0" class="Los Rios" cx="957.89509" cy="1181.98352" id="ECR"/>
   <circle r="0" class="Pichincha" cx="1017.89509" cy="1106.48352" id="ECP"/>
   <circle r="0" class="Santo Domingo de los Tsáchilas" cx="979.19509" cy="1115.58352" id="ECSD"/>
  </g>
  <g stroke="null" id="svg_1">
   <path stroke="null" d="m477.02651,675.81624l-3.29812,2.63849l-0.32981,1.31925l0,2.63849l0.65962,2.96831l0,5.6068l-0.98944,3.95774l-4.28755,6.92605l-1.31925,3.29812l-0.65962,10.22416l0.65962,3.29812l1.31925,3.29812l0.65962,0.65962l2.30868,1.97887l1.64906,-0.32981l2.96831,1.64906l3.29812,3.62793l2.63849,1.97887l0.98944,0.32981l-0.32981,6.92605l0.32981,3.29812l-0.32981,2.63849l-0.98944,1.97887l-1.64906,1.31925l-1.31925,0.98944l-1.31925,0.32981l-3.29812,0.32981l-1.64906,0.32981l-1.64906,0.98944l-0.32981,0.98944l0.32981,1.64906l5.27699,9.56454l0.65962,1.97887l1.31925,5.27699l0.98944,1.97887l0.98944,1.64906l4.61736,5.93661l1.64906,2.96831l0,2.63849l-0.32981,2.30868l-0.98944,1.31925l-1.31925,0.98944l-1.64906,0.65962l-2.63849,0.32981l-1.97887,0l-2.63849,-0.32981l-1.64906,0l-1.64906,0.65962l-5.6068,4.28755l-1.64906,1.31925l-2.30868,3.62793l-5.93661,6.26642l-5.93661,7.91548l-2.96831,3.29812l-2.96831,2.30868l-1.31925,0.65962l-1.31925,0l-0.98944,-0.32981l-1.64906,-0.98944l-2.63849,-2.63849l-0.98944,-0.98944l-1.64906,-0.65962l-1.64906,0l-1.97887,-0.32981l-3.62793,-0.65962l-1.97887,-0.65962l-6.26642,-0.65962l-5.27699,-1.97887l-1.97887,0.32981l-2.30868,0.65962l-3.29812,1.97887l-1.97887,1.97887l-2.30868,2.30868l-0.98944,1.31925l-0.65962,1.31925l0,0.98944l0,0.98944l-0.32981,0.32981l-1.97887,1.31925l-3.62793,3.95774l-5.93661,9.23473l-0.98944,1.31925l-0.65962,0.65962l-0.98944,0l-3.29812,0l-2.63849,-3.62793l-0.98944,-0.65962l-1.64906,-0.65962l-18.79927,-3.95774l-4.61736,0l-4.28755,-0.32981l-2.63849,0l-1.97887,0.65962l-5.27699,3.29812l-1.64906,0.98944l-2.30868,0.98944l-1.64906,0.98944l-3.62793,2.96831l-2.63849,1.64906l-3.62793,1.64906l-1.64906,0.98944l-0.98944,1.31925l0,1.31925l0.65962,0.98944l4.61736,3.29812l1.64906,1.31925l1.31925,1.31925l0.32981,1.31925l0.32981,0.98944l-0.65962,0.98944l-2.30868,3.29812l-1.97887,5.27699l-2.30868,4.28755l-3.62793,8.5751l-0.98944,1.97887l-2.63849,2.30868l-2.30868,1.31925l-4.61736,0.98944l-1.64906,0.98944l-3.29812,0.98944l-0.32981,0.98944l0.32981,0.98944l1.97887,2.63849l0.65962,0.32981l0.32981,0l0.65962,0l0.65962,0l0.65962,0.32981l0.32981,0.65962l0,0.98944l-0.98944,0.65962l-0.65962,0.65962l-0.65962,0.65962l-0.32981,0l-1.64906,-1.64906l-1.64906,-0.65962l-1.64906,-0.98944l-5.27699,-1.31925l-10.88379,-1.31925l-3.95774,-0.98944l-3.62793,0.32981l-2.96831,-4.61736l-0.32981,-0.98944l0,-1.64906l0,-0.32981l-0.65962,-1.64906l0,-0.65962l0,-0.65962l0.32981,-0.65962l0.32981,-0.65962l0.32981,-0.32981l0.32981,-0.32981l0.32981,-0.32981l0.65962,0l0.32981,-0.32981l0.32981,-0.32981l0.32981,-0.65962l0,-0.65962l0.32981,-1.31925l0.32981,-0.65962l0.32981,-0.65962l4.61736,-5.27699l0.32981,-0.32981l-0.32981,-0.32981l-0.32981,0l-0.32981,-0.32981l-1.31925,0l-0.98944,-0.32981l-1.64906,-0.65962l-3.29812,-3.29812l-1.31925,-1.31925l-0.65962,-0.65962l-0.65962,0l-0.98944,0.32981l-1.64906,0.98944l-0.32981,0.32981l-0.65962,0l-0.32981,0l-0.32981,-0.65962l-0.32981,-0.98944l-0.32981,-2.96831l-0.32981,-0.65962l-0.32981,-0.32981l-0.98944,0l-0.65962,0.32981l-0.65962,0.32981l-0.32981,0.32981l-0.65962,0.32981l-0.65962,-0.32981l-0.98944,-0.32981l-1.97887,-1.97887l-0.65962,-0.65962l-0.32981,-0.65962l0.32981,-0.32981l3.29812,-4.94718l0.65962,-1.31925l0.98944,-1.31925l0.98944,-0.65962l1.31925,-0.98944l0.98944,-0.98944l0.32981,-0.65962l0.32981,-0.65962l0,-0.32981l-0.32981,-0.32981l-0.32981,-0.65962l-0.65962,-0.65962l-8.5751,-4.94718l-0.32981,-0.65962l-0.65962,-0.65962l-0.32981,-0.65962l0,-0.65962l0,-0.65962l0,-0.65962l0.32981,-0.65962l0.32981,-0.65962l0.65962,-0.98944l1.64906,-1.64906l0.32981,-0.32981l0,-0.32981l0,-0.32981l0,-0.32981l-0.32981,-0.65962l-0.32981,-0.32981l-1.31925,-1.64906l-1.97887,-1.31925l-0.65962,-0.32981l-0.98944,-0.65962l-0.98944,0l-1.31925,0.32981l-2.30868,0.98944l-0.98944,0.65962l-0.98944,0.65962l-3.62793,3.95774l-1.97887,1.31925l-0.98944,0.65962l-2.30868,0.98944l-3.29812,0.65962l-2.96831,0l-6.26642,-0.32981l-0.32981,0.32981l-0.65962,0l-0.32981,0.32981l-0.32981,0.32981l0,0.32981l-0.32981,1.97887l-0.98944,1.97887l-0.65962,1.64906l-0.65962,0.65962l-0.65962,0.65962l-0.65962,0.65962l-0.65962,0.65962l-1.31925,0.98944l-0.32981,0.32981l-0.98944,0l-0.98944,0l-1.31925,-0.32981l-1.31925,-0.32981l-1.31925,-0.65962l-2.30868,-2.96831l-4.28755,-10.88379l0.98944,-2.30868l0.32981,-1.31925l-0.32981,-2.30868l-0.98944,-1.64906l-2.30868,-2.30868l-4.28755,-6.92605l-1.31925,-3.62793l-0.65962,-3.62793l0.65962,-3.95774l1.31925,-1.97887l1.31925,-1.64906l1.64906,-2.96831l0.32981,-3.62793l-0.98944,-3.62793l-1.31925,-3.29812l-0.98944,-4.94718l-1.64906,-2.30868l-2.63849,-1.31925l-3.29812,-0.32981l-2.30868,-0.98944l-1.31925,-1.97887l-0.98944,-2.96831l-0.65962,-2.63849l0,-7.58567l1.97887,-7.58567l3.62793,-6.26642l5.27699,-4.28755l3.29812,1.31925l2.63849,0.32981l5.93661,-0.32981l2.63849,-0.98944l3.29812,-2.96831l2.63849,-0.98944l2.30868,-0.32981l4.61736,-1.64906l5.6068,-0.98944l3.29812,-2.63849l2.30868,-0.65962l1.31925,-0.65962l5.6068,-4.28755l0.98944,-1.31925l2.30868,-3.29812l1.31925,-1.31925l4.28755,-1.97887l10.88379,-3.29812l4.61736,-3.29812l0.98944,1.97887l0,1.31925l-3.62793,11.2136l0.98944,2.63849l1.31925,1.64906l1.97887,1.31925l1.97887,1.97887l2.30868,4.94718l1.31925,1.31925l-2.96831,-8.24529l-2.30868,-1.64906l-0.65962,-1.31925l0,-0.98944l0.98944,-1.64906l0,-0.98944l-0.32981,-4.61736l0.65962,-3.29812l1.31925,-2.63849l3.29812,-1.64906l7.58567,2.30868l8.5751,-4.94718l12.20303,-10.88379l3.62793,-0.98944l12.86266,0.98944l1.31925,-0.32981l4.28755,-1.64906l1.64906,-0.32981l4.94718,0l2.30868,-0.32981l1.97887,-0.98944l4.28755,1.97887l4.94718,-0.65962l4.94718,-1.64906l4.61736,-0.98944l3.29812,-1.64906l13.52228,-18.13964l2.63849,-1.31925l4.28755,1.64906l3.62793,2.63849l2.30868,3.95774l0.98944,4.28755l0.65962,4.94718l3.29812,-1.64906l1.97887,-2.63849l0.65962,-3.62793l0.65962,-7.58567l0.98944,-2.30868l1.64906,-1.64906l1.97887,-2.63849l0.32981,1.64906l0.98944,0.65962l1.64906,0l1.64906,-0.98944l1.64906,-1.64906l0.32981,-1.31925l0,-1.31925l0.65962,-1.97887l2.96831,-3.29812l2.96831,-0.32981l7.25586,2.63849l-1.31925,-2.63849l-2.96831,-0.98944l-3.95774,-0.32981l-2.63849,-0.98944l-1.31925,-2.63849l0.65962,-2.30868l1.64906,-2.30868l6.59623,-6.59623l0.98944,-2.30868l0,-2.63849l-0.65962,-2.30868l0.32981,-1.97887l10.55397,6.92605l3.62793,5.27699l5.27699,4.28755l1.97887,2.96831l1.64906,3.95774l2.63849,3.62793l3.62793,2.63849l3.95774,1.31925l2.96831,-0.32981l2.30868,-0.65962l1.97887,0.32981l0,3.62793l0.98944,1.64906l3.62793,3.95774l0.98944,2.96831l2.63849,-1.64906l2.63849,0l9.89435,2.30868l1.31925,0.98944zm-75.85669,-33.64079l0,1.64906l0.32981,1.31925l0.98944,1.97887l0,6.26642l-0.65962,7.25586l-2.63849,4.61736l-4.28755,-1.97887l-1.64906,1.97887l-1.97887,1.64906l-3.62793,-2.63849l-2.63849,-2.96831l-0.65962,-3.29812l2.63849,-3.95774l14.1819,-11.87322z" id="ECE" name="Esmeraldas"/>
   <path stroke="null" d="m483.29294,731.88423l-0.98944,-0.32981l-2.63849,-1.97887l-3.29812,-3.62793l-2.96831,-1.64906l-1.64906,0.32981l-2.30868,-1.97887l-0.65962,-0.65962l-1.31925,-3.29812l-0.65962,-3.29812l0.65962,-10.22416l1.31925,-3.29812l4.28755,-6.92605l0.98944,-3.95774l0,-5.6068l-0.65962,-2.96831l0,-2.63849l0.32981,-1.31925l3.29812,-2.63849l1.97887,1.31925l16.8204,18.79927l4.28755,3.29812l3.29812,1.64906l10.55397,2.63849l3.62793,1.97887l23.41663,17.80983l7.25586,3.62793l12.86266,0.32981l12.20303,4.61736l1.97887,0l0.65962,-0.32981l0.98944,0l1.64906,1.64906l0.65962,1.97887l0,1.97887l0.32981,1.97887l1.97887,1.64906l3.95774,1.64906l3.95774,0.65962l3.62793,0l3.62793,-0.65962l14.1819,-5.27699l4.28755,0l5.6068,4.28755l0.98944,12.86266l3.95774,5.6068l11.54341,7.91548l6.59623,2.63849l5.27699,-0.65962l-0.65962,0.65962l-6.26642,4.94718l-2.96831,0.65962l-3.62793,-1.31925l-0.98944,-0.32981l-4.94718,0l-1.64906,-0.32981l-2.63849,-0.65962l-1.64906,-0.32981l-0.98944,0l-0.98944,0l-0.32981,0.65962l-0.65962,0.65962l-0.32981,1.97887l0.32981,0.98944l0.32981,0.98944l1.97887,1.64906l0.98944,0.65962l0.32981,0.98944l0.32981,0.98944l0,0.65962l-0.65962,0.98944l-1.31925,1.31925l-6.59623,4.94718l-1.31925,1.31925l-12.53284,15.83096l-1.31925,2.30868l-0.98944,2.30868l-0.32981,2.96831l0,1.64906l0.65962,2.30868l-0.98944,2.30868l-3.95774,4.28755l-4.28755,-1.97887l-2.96831,-3.95774l-2.30868,-1.64906l-8.24529,-4.61736l-7.25586,-4.94718l-8.24529,-4.61736l-6.26642,-1.64906l-2.96831,-0.32981l-3.62793,-0.65962l-2.30868,-1.64906l-1.31925,-0.98944l-6.59623,-1.31925l-1.97887,-2.63849l-0.98944,-3.29812l-0.32981,-3.29812l0.32981,-4.94718l0,-1.64906l-3.95774,-10.22416l-6.92605,-8.90492l-4.61736,-8.24529l-4.28755,-4.94718l-5.6068,-4.94718l-7.91548,-5.27699l-3.29812,-2.96831l-1.31925,-0.65962l-2.30868,-0.65962l-6.59623,-0.65962l-3.29812,-0.98944l-2.63849,-1.31925z" id="ECC" name="Carchi"/>
   <path stroke="null" d="m595.42892,825.88057l3.95774,-4.28755l0.98944,-2.30868l-0.65962,-2.30868l0,-1.64906l0.32981,-2.96831l0.98944,-2.30868l1.31925,-2.30868l12.53284,-15.83096l1.31925,-1.31925l6.59623,-4.94718l1.31925,-1.31925l0.65962,-0.98944l0,-0.65962l-0.32981,-0.98944l-0.32981,-0.98944l-0.98944,-0.65962l-1.97887,-1.64906l-0.32981,-0.98944l-0.32981,-0.98944l0.32981,-1.97887l0.65962,-0.65962l0.32981,-0.65962l0.98944,0l0.98944,0l1.64906,0.32981l2.63849,0.65962l1.64906,0.32981l4.94718,0l0.98944,0.32981l3.62793,1.31925l2.96831,-0.65962l6.26642,-4.94718l0.65962,-0.65962l0.65962,-0.32981l7.58567,1.97887l2.30868,8.5751l1.31925,18.79927l1.31925,5.93661l0.98944,5.6068l1.64906,4.28755l4.94718,3.95774l6.26642,2.30868l19.12908,3.62793l3.29812,1.31925l2.63849,1.31925l2.63849,0.98944l3.95774,-0.32981l8.90492,-3.29812l3.29812,-0.65962l2.30868,0.65962l3.62793,0.98944l6.92605,7.58567l5.27699,1.64906l7.25586,0.32981l2.30868,0.32981l2.96831,0.98944l1.64906,1.31925l3.95774,3.95774l2.96831,2.30868l2.63849,0.98944l2.63849,0l12.53284,-1.97887l2.30868,0.32981l6.26642,2.96831l2.63849,-0.32981l-0.32981,-6.92605l1.97887,-0.98944l6.26642,1.64906l8.90492,0.98944l2.30868,0.98944l2.96831,1.97887l4.61736,4.28755l3.62793,1.31925l2.63849,-0.32981l4.61736,-2.63849l17.48002,-1.97887l3.29812,-1.97887l-1.97887,-11.87322l0.65962,-13.52228l-0.32981,-0.98944l1.97887,0.32981l3.62793,-0.32981l1.97887,-0.32981l1.64906,-0.65962l4.28755,-5.27699l0.98944,-0.98944l0.98944,-0.32981l3.29812,-2.63849l1.97887,-0.32981l1.97887,0.65962l4.94718,5.27699l3.29812,2.30868l3.62793,1.31925l3.62793,0.98944l4.61736,0.32981l3.95774,-0.32981l1.97887,0.32981l1.31925,0.65962l0.98944,1.64906l0.98944,4.94718l0.98944,1.31925l3.29812,0l4.61736,-1.64906l3.95774,-0.32981l1.64906,2.63849l0.98944,1.97887l11.87322,15.17134l0.98944,2.30868l0.65962,3.29812l1.97887,2.96831l4.28755,4.28755l10.88379,6.59623l1.64906,2.30868l7.25586,5.27699l4.94718,2.96831l2.96831,0.98944l3.29812,0.98944l3.95774,0.32981l4.28755,-0.32981l7.58567,-1.64906l3.29812,-0.65962l3.62793,1.31925l2.96831,2.63849l2.30868,2.30868l1.64906,1.31925l3.29812,0.98944l8.24529,7.58567l10.55397,6.26642l4.28755,1.64906l3.29812,2.30868l10.22416,1.97887l11.2136,4.28755l3.29812,1.97887l-1.97887,2.63849l-4.28755,2.96831l-2.30868,0.98944l-2.30868,0.65962l-2.63849,0.32981l-6.26642,-0.98944l-1.64906,0.32981l-4.61736,2.96831l-4.61736,-0.32981l-12.53284,-6.92605l-2.63849,-0.32981l-2.30868,-0.32981l-3.29812,0.32981l-2.63849,-0.32981l-3.29812,-1.31925l-3.29812,-0.98944l-2.63849,0.98944l-0.98944,2.96831l0.98944,3.95774l1.64906,3.62793l1.64906,1.97887l1.64906,0.32981l3.95774,-0.32981l1.64906,0.32981l2.30868,0.98944l3.62793,3.62793l2.30868,1.31925l3.62793,0.98944l2.96831,1.97887l1.97887,2.63849l5.6068,20.11851l3.29812,7.58567l5.27699,6.92605l3.29812,3.29812l1.97887,1.31925l1.97887,0l1.97887,0l0.98944,0.65962l0.98944,0.98944l6.92605,5.27699l0.65962,0.98944l0.98944,1.97887l0.65962,0.98944l0.98944,0l1.64906,-0.98944l0.65962,0.32981l1.97887,3.29812l0.65962,3.29812l-0.32981,6.92605l0,1.64906l0.32981,1.31925l0.32981,1.31925l-0.32981,1.64906l-1.64906,1.64906l-2.63849,0l-0.65962,-0.32981l-0.32981,-0.98944l0.32981,-2.30868l0,-0.32981l-0.65962,-0.32981l-0.98944,0.32981l-1.64906,0.32981l-1.97887,0l-6.26642,-1.97887l-2.63849,-1.31925l-1.97887,0l-1.31925,-0.32981l-0.98944,-1.31925l-0.65962,-1.64906l-0.32981,-1.64906l-0.65962,-1.31925l-0.98944,-0.65962l-2.63849,0l-1.64906,-0.65962l-1.97887,-0.98944l-1.97887,-0.65962l-8.24529,-0.32981l-0.98944,0.32981l-1.64906,0l-5.6068,-1.97887l-2.30868,-1.64906l-0.98944,-0.98944l-0.65962,-1.31925l-0.65962,-0.98944l-0.32981,-1.97887l-0.32981,-0.98944l-0.65962,-0.32981l-1.64906,0.98944l-0.65962,-0.32981l-0.65962,-0.98944l-0.32981,-0.98944l-0.98944,-0.98944l-2.30868,-1.31925l-3.62793,-1.64906l-2.30868,-1.31925l-1.64906,-0.65962l-1.64906,0.32981l-1.64906,0.65962l-2.63849,0.65962l-1.97887,0l-2.30868,-0.98944l-0.98944,-1.31925l-1.64906,-2.63849l-0.98944,-0.98944l-1.64906,-1.31925l-1.31925,-0.32981l-1.64906,0.65962l-1.97887,0.65962l-1.97887,0.32981l-4.28755,0l-1.64906,0.32981l-1.64906,0.65962l-1.64906,0l-1.97887,-0.32981l-1.97887,-1.64906l-2.63849,-1.31925l-3.29812,-0.98944l-5.6068,0l-2.96831,0.65962l-2.30868,1.31925l-0.32981,1.64906l-0.32981,2.96831l1.97887,14.51172l0.65962,2.30868l0.98944,1.31925l0.32981,0.65962l-0.32981,0.65962l-0.98944,0.65962l-1.97887,-0.32981l-4.28755,-0.32981l-3.95774,-0.98944l-3.95774,-2.30868l-7.58567,-5.27699l-3.29812,-1.64906l-0.98944,-0.98944l-0.65962,-4.28755l-0.98944,-2.30868l-0.98944,-1.97887l-0.98944,-0.98944l-16.8204,-0.98944l-13.85209,1.31925l-1.64906,0.32981l-3.62793,1.97887l-5.93661,1.64906l-1.64906,0.65962l-6.92605,5.27699l-4.28755,1.97887l-1.97887,-1.64906l-1.31925,-2.63849l-2.96831,-0.65962l-6.92605,0l-3.29812,-1.64906l-9.23473,-6.92605l-3.95774,-5.27699l-4.28755,1.31925l-3.95774,2.30868l-1.97887,-2.63849l-0.65962,-1.64906l-1.64906,-1.64906l-10.22416,-7.25586l-1.97887,-1.64906l-0.98944,-1.31925l-0.32981,-0.98944l-1.97887,-2.63849l-1.64906,-1.97887l-3.29812,-4.94718l-0.32981,-0.98944l0,-1.64906l-0.32981,-0.65962l-0.65962,-0.98944l-5.6068,-4.61736l-18.13964,-21.76757l-1.64906,-2.96831l-1.31925,-1.64906l-2.63849,-1.64906l-2.30868,-0.65962l-4.61736,0.98944l-2.96831,0.98944l-2.30868,1.31925l-2.30868,1.31925l-2.63849,1.31925l-3.62793,0.65962l-4.61736,0l-9.89435,-2.96831l-2.96831,-0.32981l-2.96831,0.32981l-1.97887,0.98944l-1.97887,0.32981l-2.30868,-0.32981l-5.27699,-3.62793l-4.61736,-2.63849l-2.96831,-0.98944l-2.63849,-0.65962l-2.63849,1.97887l-4.61736,5.6068l-1.31925,2.30868l-1.97887,3.62793l-0.98944,1.64906l-1.31925,0.98944l-0.98944,0.65962l-1.97887,0l-3.29812,-0.32981l-8.24529,-1.97887l-1.64906,-0.65962l-0.32981,-0.98944l0,-1.31925l0.32981,-0.98944l0.32981,-1.31925l0,-0.65962l0,-0.98944l-0.65962,-1.64906l0,-0.65962l0.32981,-0.98944l0.32981,-0.98944l0.32981,-0.98944l-0.32981,-0.65962l-0.32981,-0.98944l-0.65962,-1.31925l-0.65962,-1.64906l-0.65962,-1.31925l-1.31925,-0.65962l-1.97887,0.98944l-2.30868,1.64906l-0.98944,0.32981l-0.65962,0.32981l-0.65962,0.65962l-0.65962,0.98944l-0.98944,0.98944l-1.64906,0.65962l-3.29812,0.32981l-1.97887,1.31925l-3.62793,3.95774l-1.97887,1.31925l-1.31925,0.32981l-1.97887,-1.31925l-2.30868,-0.98944l-4.94718,-1.31925l-17.80983,-0.32981l-3.29812,-0.65962l-2.30868,-1.64906l-1.31925,-3.29812l-0.98944,-5.93661l0,-1.64906l0.32981,-0.98944l0,-0.32981l0.32981,-0.32981l0.32981,-0.32981l0,-0.65962l0,-0.32981l0,-0.32981l0,-0.32981l-1.64906,-0.98944l-7.91548,-1.97887l-1.97887,-0.65962l-0.98944,-0.65962l0,-0.32981l-0.32981,-0.32981l-0.32981,-1.97887l-0.32981,-1.64906l-0.65962,-0.98944l-0.98944,-0.98944l-2.63849,-1.31925l-0.65962,-0.32981l-0.65962,-0.32981l-0.98944,0l-2.30868,-0.98944l-4.94718,-2.30868l-0.32981,0l-0.65962,0l-0.32981,0l-0.32981,0l-1.97887,-0.65962l-1.97887,-0.65962l-0.65962,-0.32981l-0.32981,-0.32981l-0.32981,-0.32981l0,-0.32981l0.32981,0l4.28755,-7.58567l6.26642,-6.59623l2.63849,-1.64906l0.98944,-0.32981l0.65962,-0.32981l0.98944,-0.32981l0.65962,-0.65962l0.65962,-0.98944l3.29812,-4.61736l2.30868,-2.63849l0.65962,-0.32981l0.65962,-0.65962l0,-0.65962l-0.32981,-0.65962l-0.32981,-0.32981l-0.65962,-0.32981l-0.32981,0l-0.32981,0l-0.32981,0l-0.32981,-0.32981l-0.32981,-0.32981l0,-0.32981l0,-1.31925l0.98944,-2.30868l5.6068,-7.25586z" id="ECU" name="Sucumbios"/>
   <path stroke="null" d="m687.44638,898.10933l2.63849,-1.97887l2.63849,0.65962l2.96831,0.98944l4.61736,2.63849l5.27699,3.62793l2.30868,0.32981l1.97887,-0.32981l1.97887,-0.98944l2.96831,-0.32981l2.96831,0.32981l9.89435,2.96831l4.61736,0l3.62793,-0.65962l2.63849,-1.31925l2.30868,-1.31925l2.30868,-1.31925l2.96831,-0.98944l4.61736,-0.98944l2.30868,0.65962l2.63849,1.64906l1.31925,1.64906l1.64906,2.96831l18.13964,21.76757l5.6068,4.61736l0.65962,0.98944l0.32981,0.65962l0,1.64906l0.32981,0.98944l3.29812,4.94718l1.64906,1.97887l1.97887,2.63849l0.32981,0.98944l0.98944,1.31925l1.97887,1.64906l10.22416,7.25586l1.64906,1.64906l0.65962,1.64906l1.97887,2.63849l3.95774,-2.30868l4.28755,-1.31925l3.95774,5.27699l9.23473,6.92605l3.29812,1.64906l6.92605,0l2.96831,0.65962l1.31925,2.63849l1.97887,1.64906l4.28755,-1.97887l6.92605,-5.27699l1.64906,-0.65962l5.93661,-1.64906l3.62793,-1.97887l1.64906,-0.32981l13.85209,-1.31925l16.8204,0.98944l0.98944,0.98944l0.98944,1.97887l0.98944,2.30868l0.65962,4.28755l0.98944,0.98944l3.29812,1.64906l7.58567,5.27699l3.95774,2.30868l3.95774,0.98944l4.28755,0.32981l1.97887,0.32981l0.98944,-0.65962l0.32981,-0.65962l-0.32981,-0.65962l-0.98944,-1.31925l-0.65962,-2.30868l-1.97887,-14.51172l0.32981,-2.96831l0.32981,-1.64906l2.30868,-1.31925l2.96831,-0.65962l5.6068,0l3.29812,0.98944l2.63849,1.31925l1.97887,1.64906l1.97887,0.32981l1.64906,0l1.64906,-0.65962l1.64906,-0.32981l4.28755,0l1.97887,-0.32981l1.97887,-0.65962l1.64906,-0.65962l1.31925,0.32981l1.64906,1.31925l0.98944,0.98944l1.64906,2.63849l0.98944,1.31925l2.30868,0.98944l1.97887,0l2.63849,-0.65962l1.64906,-0.65962l1.64906,-0.32981l1.64906,0.65962l2.30868,1.31925l3.62793,1.64906l2.30868,1.31925l0.98944,0.98944l0.32981,0.98944l0.65962,0.98944l0.65962,0.32981l1.64906,-0.98944l0.65962,0.32981l0.32981,0.98944l0.32981,1.97887l0.65962,0.98944l0.65962,1.31925l0.98944,0.98944l2.30868,1.64906l5.6068,1.97887l1.64906,0l0.98944,-0.32981l8.24529,0.32981l1.97887,0.65962l1.97887,0.98944l1.64906,0.65962l2.63849,0l0.98944,0.65962l0.65962,1.31925l0.32981,1.64906l0.65962,1.64906l0.98944,1.31925l1.31925,0.32981l1.97887,0l2.63849,1.31925l6.26642,1.97887l1.97887,0l1.64906,-0.32981l0.98944,-0.32981l0.65962,0.32981l0,0.32981l-0.32981,2.30868l0.32981,0.98944l0.65962,0.32981l2.63849,0l-1.97887,0.98944l-1.97887,1.31925l-0.98944,1.97887l0.32981,1.97887l0.65962,3.29812l0,1.64906l-0.32981,1.97887l-0.98944,2.96831l0,2.30868l7.91548,27.04456l0,1.64906l-0.32981,2.96831l0.32981,1.64906l1.31925,1.97887l1.64906,1.64906l1.31925,1.64906l0,1.31925l-1.31925,0l-8.5751,0l-7.58567,0.98944l-3.95774,0l-1.97887,-1.64906l-0.98944,-1.64906l-2.30868,-2.96831l-5.27699,-4.61736l-0.98944,1.64906l-2.30868,8.90492l-5.27699,21.10795l-5.27699,20.77814l-5.6068,21.10795l-5.27699,21.10795l-2.63849,10.55397l-2.30868,5.93661l-1.31925,1.64906l-1.97887,-3.29812l-0.65962,-3.95774l-1.31925,-1.64906l-1.31925,-0.65962l-1.31925,0l-1.97887,-0.65962l-0.98944,-1.31925l-1.31925,-0.32981l-0.98944,0l-0.98944,-1.31925l-5.27699,-1.97887l-1.64906,-0.32981l-0.98944,-0.65962l-0.32981,-0.65962l-0.32981,-0.98944l-0.32981,0l-0.65962,0.32981l-0.98944,0.98944l-0.98944,0.32981l-0.65962,-0.65962l-0.65962,-1.31925l-1.64906,-2.30868l-1.31925,-2.63849l-0.65962,-0.65962l-0.32981,-1.31925l-0.98944,-0.65962l-2.30868,0l-2.30868,-0.65962l-2.63849,-0.32981l-0.98944,-0.32981l-0.65962,-0.65962l-0.65962,-0.65962l-1.31925,-0.65962l-1.31925,-0.32981l-0.98944,0l-1.31925,0.32981l-0.32981,-0.32981l0,-0.32981l-0.32981,-1.31925l-1.31925,-2.63849l-0.98944,-0.65962l-4.61736,-1.31925l-0.65962,-0.65962l-0.32981,-0.98944l0.65962,-0.65962l0,-0.98944l-0.65962,0l-0.65962,0l-1.31925,0.32981l-0.65962,0.32981l0,0.65962l0.32981,0.98944l-0.32981,0.65962l-0.65962,0.32981l-0.98944,0.32981l-1.64906,-0.32981l-3.29812,0l-2.96831,-0.32981l-2.30868,-1.31925l-1.31925,-1.31925l-0.98944,-0.32981l-1.97887,0l-0.98944,-0.65962l-0.98944,-1.31925l-1.31925,-1.31925l-1.97887,-0.65962l-2.30868,-0.32981l-1.64906,-0.98944l-1.31925,-0.32981l-0.65962,0l-0.32981,0.65962l-0.98944,0l-0.32981,-0.32981l0,-0.98944l0,-0.98944l-0.32981,-0.98944l-0.65962,-0.98944l-0.32981,-0.32981l-0.65962,0.32981l-0.32981,0.65962l-0.98944,0.32981l-1.97887,0l-2.96831,-1.64906l-1.97887,0l-0.98944,0.32981l0,0.65962l-0.65962,0l-0.32981,-0.65962l-0.32981,-0.32981l-0.65962,0l-0.65962,0.65962l-1.64906,1.64906l-0.65962,0.65962l-0.65962,0.65962l-0.32981,0l-1.31925,0l-0.65962,0l-1.31925,0l-0.32981,-0.32981l-0.98944,-0.98944l-0.98944,0l-3.29812,0.65962l-1.31925,-0.98944l-0.98944,0l-0.98944,0.32981l-0.65962,0.65962l-0.98944,0.32981l-0.98944,-0.32981l-0.32981,-0.65962l-0.32981,-0.65962l-0.65962,0l-0.65962,0.65962l-0.32981,0.98944l-0.98944,0.65962l-0.65962,-0.32981l-0.65962,0l-0.32981,0.32981l-0.32981,0.32981l-1.31925,0.65962l-0.65962,0.65962l-0.32981,0.65962l-0.65962,0.65962l-0.32981,-0.32981l0,-1.31925l-0.65962,-0.32981l-1.64906,-0.65962l-2.63849,-0.32981l-4.28755,-0.98944l-2.63849,-0.65962l-0.98944,-0.32981l0,-0.65962l0.65962,-0.65962l-0.32981,-0.65962l-0.65962,-0.98944l-0.65962,-0.65962l-0.65962,-0.32981l-0.98944,0l-1.31925,0l-1.31925,-0.65962l-0.98944,-0.98944l-0.98944,0l-1.31925,0.32981l-0.98944,0.65962l-2.30868,0.32981l-1.64906,-0.32981l-1.97887,0.32981l-0.65962,-0.32981l0,-0.65962l0,-0.98944l0,-0.32981l-0.65962,0l-0.65962,0.65962l-1.31925,0l-0.98944,-0.32981l-0.98944,-1.31925l-0.32981,-1.31925l0,-0.98944l-0.65962,-0.65962l-0.65962,-0.98944l-1.64906,-1.31925l-0.98944,-0.98944l-0.65962,-1.31925l-1.64906,-1.97887l-0.98944,-2.63849l-0.32981,-3.95774l0,-6.92605l0.65962,-2.30868l0,-2.63849l-0.65962,-2.30868l-2.30868,-2.30868l-2.30868,-1.31925l-3.29812,-0.98944l-2.96831,-0.32981l-2.63849,0.32981l-4.61736,1.31925l-3.29812,0.65962l-0.65962,0.65962l-1.64906,1.97887l-0.65962,0.65962l-1.64906,0.32981l-1.97887,0.32981l-3.29812,0.98944l-3.62793,0.65962l-4.61736,0l-1.31925,0.32981l-2.30868,1.31925l-1.64906,0.32981l-2.63849,-0.65962l-1.97887,-0.98944l-1.64906,-0.32981l-0.98944,0.32981l-3.29812,2.96831l-1.31925,1.64906l-0.32981,1.97887l-0.32981,1.97887l-0.65962,1.97887l-0.98944,1.31925l-3.29812,0l-17.15021,-6.92605l-14.51172,-3.29812l-1.97887,-0.98944l-1.31925,-1.97887l-0.98944,-4.94718l-0.65962,-1.64906l-0.32981,-0.98944l0.32981,-1.31925l3.62793,-3.95774l1.64906,-3.95774l-1.64906,-1.97887l-0.98944,-0.98944l-0.65962,-1.31925l0.32981,-1.31925l2.96831,-2.63849l1.31925,-1.97887l0,-0.98944l-0.98944,-0.98944l-2.30868,-0.65962l-7.58567,-0.98944l-2.96831,-1.31925l-8.24529,-5.6068l-1.64906,-0.65962l-1.31925,-0.65962l-1.97887,-0.65962l-0.98944,-1.64906l-0.65962,-2.96831l0.32981,-2.63849l1.31925,-2.96831l1.97887,-2.96831l8.5751,-8.24529l1.64906,-1.97887l0.65962,-1.97887l-0.32981,-0.98944l-1.31925,-0.98944l-2.63849,0l-2.30868,1.64906l-2.30868,0.98944l-7.91548,7.58567l-4.28755,8.5751l-2.63849,2.96831l-1.31925,0.65962l-6.59623,2.30868l-28.034,13.52228l-1.97887,1.64906l-3.62793,0.65962l-0.32981,0.65962l-2.96831,1.31925l-3.62793,0.65962l-4.28755,0.32981l-3.95774,-0.65962l-2.30868,-1.31925l0,-1.64906l1.64906,-1.64906l1.64906,-1.97887l1.31925,-2.30868l4.28755,-10.22416l0.32981,-2.63849l-1.31925,-5.6068l0,-2.63849l1.31925,-3.29812l1.31925,-2.96831l1.31925,-1.97887l2.30868,-3.62793l0.65962,-1.64906l-0.32981,-2.30868l-1.31925,-4.61736l-0.98944,-1.64906l-1.31925,-1.31925l-2.63849,-1.64906l-0.65962,-0.98944l-1.97887,-3.95774l-4.94718,-6.26642l-1.97887,-1.64906l-1.97887,-0.98944l-1.64906,-0.32981l-2.30868,-1.31925l-0.32981,-1.31925l0,-1.64906l0.98944,-1.31925l1.97887,-1.31925l5.6068,-3.29812l0.98944,-1.31925l0.98944,-1.31925l-0.32981,-2.30868l0,-1.31925l0.65962,-1.31925l1.64906,-0.32981l2.30868,0.65962l7.58567,4.94718l3.95774,1.64906l4.61736,1.64906l3.29812,0.32981l2.30868,-0.32981l1.97887,-0.65962l1.64906,-1.31925l4.28755,-7.25586l1.97887,-4.28755l0.65962,-1.31925l0.98944,-0.65962l0.98944,0l2.30868,0.65962l0.65962,-0.32981l0.65962,-0.98944l-0.32981,-2.96831l0.32981,-1.31925l0.32981,-1.31925l5.6068,-2.30868l1.97887,-0.98944l1.31925,-1.31925l0.65962,-1.64906l0,-2.96831l0.32981,-0.98944l0.65962,-0.98944l1.31925,-0.98944l0.32981,-1.64906l0.32981,-2.63849l-1.64906,-3.29812l0,-0.65962l0.65962,-0.98944l0,-0.98944l0.32981,-1.31925l-0.65962,-1.31925l-1.97887,-3.29812l-2.30868,-2.96831l-1.31925,-1.64906l-0.98944,-1.97887l0,-1.64906l0.65962,-2.63849l0.32981,-4.94718l0.65962,-1.64906l-1.97887,-12.86266z" id="ECD" name="Orellana"/>
   <path stroke="null" d="m994.50108,1163.93757l-2.96831,3.62793l-9.56454,8.90492l-7.25586,8.5751l-8.90492,10.22416l-8.90492,10.55397l-8.90492,10.22416l-8.90492,10.55397l-8.90492,10.22416l-8.90492,10.55397l-8.90492,10.22416l-9.23473,10.55397l-10.55397,8.24529l-10.55397,7.91548l-10.55397,8.24529l-10.88379,8.24529l-10.55397,8.24529l-10.55397,7.91548l-10.88379,8.24529l-10.55397,8.24529l-10.22416,7.91548l-7.91548,4.61736l-2.63849,-0.65962l-3.62793,1.64906l-3.62793,1.31925l-7.58567,-3.62793l-6.26642,-1.31925l-2.30868,-1.31925l-2.63849,-2.30868l-2.30868,0l-5.27699,1.64906l-7.91548,0.32981l-7.58567,-2.30868l-5.93661,-3.95774l-4.28755,-4.94718l-2.30868,-6.26642l-0.32981,-0.65962l-0.32981,-1.64906l-1.31925,-1.31925l-1.31925,-0.65962l-1.64906,-2.63849l-6.26642,-7.58567l-3.29812,-5.93661l-1.97887,-2.63849l-2.63849,-0.98944l-2.96831,-0.98944l-41.22646,-26.38494l-49.14194,-21.10795l-6.26642,-1.31925l-2.96831,-1.31925l-2.30868,-1.97887l-0.98944,-2.96831l-0.65962,-2.96831l-1.31925,-2.63849l-2.30868,-2.30868l-3.29812,-0.98944l-7.25586,-1.97887l-2.96831,-1.64906l-1.64906,-1.97887l-0.65962,-2.63849l-0.32981,-5.27699l-0.98944,-2.63849l-2.63849,-4.28755l-0.65962,-2.63849l0,-3.62793l-0.32981,-1.64906l-3.29812,-5.27699l-2.30868,-11.87322l-2.30868,-3.95774l-2.63849,-1.97887l-3.29812,-0.32981l-8.24529,1.97887l-2.63849,0.32981l-2.30868,-1.97887l-1.64906,-4.28755l-1.64906,-5.93661l-5.27699,-14.1819l-1.64906,-2.63849l-2.30868,-2.63849l-2.30868,-2.63849l-4.28755,-3.62793l-7.91548,-1.64906l4.28755,-3.95774l4.94718,-9.23473l0.65962,-2.63849l0.65962,-2.63849l-0.32981,-19.45889l8.90492,0.65962l4.94718,-0.32981l12.86266,-2.30868l4.28755,0l2.63849,0.65962l1.97887,0.65962l1.64906,0.98944l1.64906,0.32981l1.31925,-0.98944l0.98944,-2.63849l0.65962,-0.65962l0.98944,0l1.31925,0.65962l1.64906,0.65962l2.30868,0.65962l2.63849,-0.65962l4.28755,-1.97887l6.92605,-4.94718l1.97887,-0.65962l3.62793,-1.64906l2.30868,-0.32981l3.29812,-1.97887l1.97887,-0.98944l2.30868,-0.32981l2.30868,-0.32981l2.30868,-0.32981l2.63849,0.65962l1.64906,0l1.97887,0l2.30868,-0.98944l2.30868,-0.65962l8.5751,-0.65962l15.83096,-7.25586l2.30868,-1.31925l1.97887,-0.65962l5.93661,0l4.94718,-0.98944l17.15021,-5.27699l3.95774,-2.30868l1.97887,-1.31925l1.97887,-0.65962l2.63849,-0.65962l29.68305,-1.97887l-3.62793,3.95774l-0.32981,1.31925l0.32981,0.98944l0.65962,1.64906l0.98944,4.94718l1.31925,1.97887l1.97887,0.98944l14.51172,3.29812l17.15021,6.92605l3.29812,0l0.98944,-1.31925l0.65962,-1.97887l0.32981,-1.97887l0.32981,-1.97887l1.31925,-1.64906l3.29812,-2.96831l0.98944,-0.32981l1.64906,0.32981l1.97887,0.98944l2.63849,0.65962l1.64906,-0.32981l2.30868,-1.31925l1.31925,-0.32981l4.61736,0l3.62793,-0.65962l3.29812,-0.98944l1.97887,-0.32981l1.64906,-0.32981l0.65962,-0.65962l1.64906,-1.97887l0.65962,-0.65962l3.29812,-0.65962l4.61736,-1.31925l2.63849,-0.32981l2.96831,0.32981l3.29812,0.98944l2.30868,1.31925l2.30868,2.30868l0.65962,2.30868l0,2.63849l-0.65962,2.30868l0,6.92605l0.32981,3.95774l0.98944,2.63849l1.64906,1.97887l0.65962,1.31925l0.98944,0.98944l1.64906,1.31925l0.65962,0.98944l0.65962,0.65962l0,0.98944l0.32981,1.31925l0.98944,1.31925l0.98944,0.32981l1.31925,0l0.65962,-0.65962l0.65962,0l0,0.32981l0,0.98944l0,0.65962l0.65962,0.32981l1.97887,-0.32981l1.64906,0.32981l2.30868,-0.32981l0.98944,-0.65962l1.31925,-0.32981l0.98944,0l0.98944,0.98944l1.31925,0.65962l1.31925,0l0.98944,0l0.65962,0.32981l0.65962,0.65962l0.65962,0.98944l0.32981,0.65962l-0.65962,0.65962l0,0.65962l0.98944,0.32981l2.63849,0.65962l4.28755,0.98944l2.63849,0.32981l1.64906,0.65962l0.65962,0.32981l0,1.31925l0.32981,0.32981l0.65962,-0.65962l0.32981,-0.65962l0.65962,-0.65962l1.31925,-0.65962l0.32981,-0.32981l0.32981,-0.32981l0.65962,0l0.65962,0.32981l0.98944,-0.65962l0.32981,-0.98944l0.65962,-0.65962l0.65962,0l0.32981,0.65962l0.32981,0.65962l0.98944,0.32981l0.98944,-0.32981l0.65962,-0.65962l0.98944,-0.32981l0.98944,0l1.31925,0.98944l3.29812,-0.65962l0.98944,0l0.98944,0.98944l0.32981,0.32981l1.31925,0l0.65962,0l1.31925,0l0.32981,0l0.65962,-0.65962l0.65962,-0.65962l1.64906,-1.64906l0.65962,-0.65962l0.65962,0l0.32981,0.32981l0.32981,0.65962l0.65962,0l0,-0.65962l0.98944,-0.32981l1.97887,0l2.96831,1.64906l1.97887,0l0.98944,-0.32981l0.32981,-0.65962l0.65962,-0.32981l0.32981,0.32981l0.65962,0.98944l0.32981,0.98944l0,0.98944l0,0.98944l0.32981,0.32981l0.98944,0l0.32981,-0.65962l0.65962,0l1.31925,0.32981l1.64906,0.98944l2.30868,0.32981l1.97887,0.65962l1.31925,1.31925l0.98944,1.31925l0.98944,0.65962l1.97887,0l0.98944,0.32981l1.31925,1.31925l2.30868,1.31925l2.96831,0.32981l3.29812,0l1.64906,0.32981l0.98944,-0.32981l0.65962,-0.32981l0.32981,-0.65962l-0.32981,-0.98944l0,-0.65962l0.65962,-0.32981l1.31925,-0.32981l0.65962,0l0.65962,0l0,0.98944l-0.65962,0.65962l0.32981,0.98944l0.65962,0.65962l4.61736,1.31925l0.98944,0.65962l1.31925,2.63849l0.32981,1.31925l0,0.32981l0.32981,0.32981l1.31925,-0.32981l0.98944,0l1.31925,0.32981l1.31925,0.65962l0.65962,0.65962l0.65962,0.65962l0.98944,0.32981l2.63849,0.32981l2.30868,0.65962l2.30868,0l0.98944,0.65962l0.32981,1.31925l0.65962,0.65962l1.31925,2.63849l1.64906,2.30868l0.65962,1.31925l0.65962,0.65962l0.98944,-0.32981l0.98944,-0.98944l0.65962,-0.32981l0.32981,0l0.32981,0.98944l0.32981,0.65962l0.98944,0.65962l1.64906,0.32981l5.27699,1.97887l0.98944,1.31925l0.98944,0l1.31925,0.32981l0.98944,1.31925l1.97887,0.65962l1.31925,0l1.31925,0.65962l1.31925,1.64906l0.65962,3.95774l1.97887,3.29812z" id="ECY" name="Pastaza"/>
   <path stroke="null" d="m799.91217,1345.99363l-2.63849,1.64906l-16.49059,5.6068l-22.4272,7.91548l-22.4272,7.91548l-22.4272,7.91548l-22.4272,7.91548l-22.4272,7.91548l-22.4272,7.91548l-22.75701,7.58567l-22.4272,7.91548l-4.94718,1.64906l-6.92605,2.63849l-3.29812,1.64906l-13.19247,11.54341l-17.80983,24.07625l-8.90492,7.25586l-2.30868,2.63849l-5.6068,10.55397l-2.30868,3.29812l-6.26642,4.94718l-2.30868,2.30868l0,3.95774l1.97887,3.29812l2.96831,1.97887l2.30868,2.63849l0.32981,4.94718l-1.64906,3.62793l-2.63849,1.31925l-3.29812,0.65962l-2.96831,2.30868l-2.30868,0.98944l-1.64906,-3.29812l-2.63849,-11.2136l-1.31925,-2.96831l-1.97887,-1.64906l-7.91548,-2.30868l-3.62793,-0.32981l-2.96831,0.98944l-1.97887,3.29812l0,0.98944l1.31925,3.62793l-0.32981,1.97887l-1.31925,7.58567l-2.30868,7.25586l-22.4272,0l-13.19247,2.30868l-3.29812,0l-6.92605,-0.65962l-2.30868,0.32981l-1.64906,0.32981l-0.98944,0.65962l-0.65962,0.98944l-1.64906,3.29812l-0.65962,0.98944l-1.31925,0.98944l-1.31925,-0.32981l-2.96831,-1.31925l-1.97887,-0.65962l-5.93661,-0.98944l-7.58567,-1.97887l-4.94718,-0.65962l-1.97887,-0.98944l-0.98944,-0.98944l0,-1.31925l-0.65962,-0.98944l-0.65962,-0.98944l-1.31925,-1.31925l-0.98944,-1.31925l-0.65962,-0.98944l-0.65962,-1.31925l-0.32981,-1.64906l0,-2.96831l-0.98944,-2.63849l0,-1.31925l0.32981,-0.98944l0.65962,-1.31925l0.65962,-0.98944l1.97887,-1.64906l0.98944,-0.98944l0.32981,-0.98944l0,-1.31925l-0.32981,-1.31925l-1.31925,-1.31925l-14.84153,-10.55397l-0.98944,-2.96831l0.32981,-1.31925l0.98944,-1.97887l22.09738,-17.48002l3.62793,-3.62793l6.59623,-1.97887l5.93661,-3.29812l4.61736,-3.62793l4.61736,-5.27699l1.64906,-2.96831l0.65962,-3.29812l-0.32981,-2.63849l0,-2.96831l0.65962,-2.63849l4.28755,-8.90492l0.65962,-1.97887l0.98944,-2.96831l8.5751,-13.85209l0.98944,-2.63849l0,-1.64906l-0.65962,-1.64906l-1.31925,-1.97887l-1.64906,-1.64906l-0.98944,-1.31925l-0.65962,-1.31925l0.32981,-1.31925l5.6068,-10.22416l1.64906,-1.97887l1.64906,-1.64906l19.7887,-9.89435l1.97887,-1.64906l0.65962,-1.64906l0,-1.64906l-0.32981,-1.31925l-0.65962,-1.64906l-1.31925,-1.31925l-5.6068,-3.95774l-0.98944,-0.65962l-1.64906,0l-1.64906,0.65962l-1.64906,0.65962l-1.97887,1.64906l-0.98944,1.97887l-0.65962,1.97887l-0.32981,1.97887l-0.65962,0.98944l-1.31925,0l-1.64906,-0.65962l-1.31925,-1.31925l-0.65962,-1.64906l-0.32981,-1.97887l0.98944,-5.27699l1.31925,0.65962l0.65962,0l0.65962,0l0.32981,-0.32981l0.98944,-0.32981l1.64906,-2.30868l4.28755,-6.59623l0.65962,-1.31925l0.32981,-1.31925l0,-2.30868l0,-1.64906l0.98944,-3.29812l-0.32981,-10.22416l0.32981,-1.97887l0.32981,-1.64906l-1.31925,-1.97887l-2.63849,-1.97887l-10.88379,-4.94718l-2.63849,-1.31925l0,-1.97887l6.26642,-4.28755l0.98944,-1.64906l0.65962,-2.30868l0,-1.97887l0.98944,-2.63849l1.64906,-1.64906l2.96831,-2.30868l0.98944,-1.31925l0,-0.98944l-0.65962,-0.98944l-0.32981,-0.98944l-0.65962,-6.92605l1.31925,-4.94718l1.64906,-2.96831l2.63849,-1.97887l2.63849,-1.31925l2.30868,-1.64906l0.32981,-1.31925l-1.64906,-3.62793l-0.65962,-1.97887l0,-4.28755l-0.65962,-2.30868l-1.31925,-1.64906l-1.31925,-0.98944l-1.31925,-1.31925l-0.65962,-1.31925l0,-2.30868l0.65962,-1.97887l4.61736,-7.58567l7.25586,-7.91548l0.65962,-2.30868l-1.31925,-5.27699l-0.65962,-4.28755l-0.65962,-1.64906l-0.98944,-0.98944l-0.98944,-0.98944l-0.65962,-1.64906l-0.65962,-2.63849l-0.32981,-3.29812l0,-3.62793l0.32981,-1.97887l0.98944,-1.64906l0.98944,-0.98944l0.98944,-1.31925l1.31925,-0.98944l1.31925,-1.97887l1.31925,-1.64906l1.64906,-1.31925l4.28755,-2.30868l1.64906,-1.31925l1.31925,-1.64906l0.65962,-1.64906l0.32981,-1.97887l-0.32981,-1.64906l-1.64906,-4.94718l0,-2.63849l0.32981,-1.31925l1.64906,-2.96831l2.96831,-3.95774l1.97887,-1.31925l3.62793,-1.97887l2.30868,-0.65962l6.26642,0.98944l4.28755,0l2.63849,-0.98944l2.96831,-1.31925l1.64906,-1.31925l3.62793,-3.62793l7.91548,1.64906l4.28755,3.62793l2.30868,2.63849l2.30868,2.63849l1.64906,2.63849l5.27699,14.1819l1.64906,5.93661l1.64906,4.28755l2.30868,1.97887l2.63849,-0.32981l8.24529,-1.97887l3.29812,0.32981l2.63849,1.97887l2.30868,3.95774l2.30868,11.87322l3.29812,5.27699l0.32981,1.64906l0,3.62793l0.65962,2.63849l2.63849,4.28755l0.98944,2.63849l0.32981,5.27699l0.65962,2.63849l1.64906,1.97887l2.96831,1.64906l7.25586,1.97887l3.29812,0.98944l2.30868,2.30868l1.31925,2.63849l0.65962,2.96831l0.98944,2.96831l2.30868,1.97887l2.96831,1.31925l6.26642,1.31925l49.14194,21.10795l41.22646,26.38494l2.96831,0.98944l2.63849,0.98944l1.97887,2.63849l3.29812,5.93661l6.26642,7.58567l1.64906,2.63849l1.31925,0.65962l1.31925,1.31925l0.32981,1.64906l0.32981,0.65962l2.30868,6.26642l4.28755,4.94718l5.93661,3.95774l7.58567,2.30868l7.91548,-0.32981l5.27699,-1.64906l2.30868,0l2.63849,2.30868l2.30868,1.31925l6.26642,1.31925l7.58567,3.62793l3.62793,-1.31925l3.62793,-1.64906l2.63849,0.65962z" id="ECS" name="Morona Santiago"/>
   <path stroke="null" d="m394.57359,1481.54624l14.84153,10.55397l1.31925,1.31925l0.32981,1.31925l0,1.31925l-0.32981,0.98944l-0.98944,0.98944l-1.97887,1.64906l-0.65962,0.98944l-0.65962,1.31925l-0.32981,0.98944l0,1.31925l0.98944,2.63849l0,2.96831l0.32981,1.64906l0.65962,1.31925l0.65962,0.98944l0.98944,1.31925l1.31925,1.31925l0.65962,0.98944l0.65962,0.98944l0,1.31925l0.98944,0.98944l1.97887,0.98944l4.94718,0.65962l7.58567,1.97887l5.93661,0.98944l1.97887,0.65962l2.96831,1.31925l1.31925,0.32981l1.31925,-0.98944l0.65962,-0.98944l1.64906,-3.29812l0.65962,-0.98944l0.98944,-0.65962l1.64906,-0.32981l2.30868,-0.32981l6.92605,0.65962l3.29812,0l13.19247,-2.30868l22.4272,0l-0.32981,0.98944l-3.29812,7.25586l-0.98944,3.62793l-0.65962,3.29812l0.32981,6.59623l0.65962,3.62793l0,1.64906l-1.64906,0.98944l-1.97887,0.32981l-0.98944,0.32981l0,0.98944l0,2.30868l2.30868,11.54341l-1.31925,3.29812l-4.28755,4.28755l-1.31925,0.98944l-2.30868,0.98944l-0.98944,0.98944l-1.97887,3.29812l-1.31925,3.62793l-1.64906,13.19247l0,0.98944l-0.65962,0.98944l-2.63849,1.31925l-2.30868,0.65962l-1.97887,0.32981l-1.97887,0.32981l-1.97887,1.97887l-0.65962,2.96831l0,10.55397l-1.97887,7.91548l-10.88379,22.75701l-1.64906,7.91548l-1.64906,3.62793l-2.96831,2.63849l-1.64906,3.62793l0.32981,6.92605l1.31925,6.59623l2.30868,3.29812l4.28755,2.63849l-0.65962,2.96831l-2.63849,3.29812l-2.63849,4.28755l-0.65962,3.29812l0.32981,3.62793l-0.32981,3.29812l-1.64906,2.96831l-4.61736,3.29812l-1.97887,1.31925l-16.49059,6.26642l-7.25586,4.28755l-8.24529,7.58567l-3.29812,4.61736l-1.97887,4.94718l0,4.94718l3.95774,7.91548l0.98944,4.28755l-1.97887,3.62793l-3.95774,0.98944l-4.61736,0l-3.62793,0.98944l-1.97887,2.96831l-1.97887,8.5751l-1.31925,3.62793l-4.61736,4.94718l-5.27699,4.28755l-3.29812,-3.29812l-1.97887,-1.31925l-1.64906,-0.98944l-1.97887,0l-2.96831,0.65962l-1.64906,0l-3.29812,-0.65962l-5.93661,-1.97887l-2.96831,-0.65962l-4.61736,0l-8.24529,0.32981l-3.95774,-0.98944l-2.63849,-2.96831l-1.97887,-3.95774l-2.30868,-3.29812l-1.31925,-0.98944l-3.62793,-1.31925l-1.64906,-0.98944l-0.98944,-1.64906l-0.98944,-3.62793l-0.98944,-1.64906l-3.29812,-2.30868l-3.62793,-1.97887l-2.96831,-2.30868l-1.31925,-3.95774l-0.65962,-3.29812l1.64906,-0.65962l7.91548,-8.24529l5.93661,-9.56454l2.30868,-2.63849l5.27699,-7.91548l1.31925,-1.97887l0.65962,-2.63849l0.32981,-1.97887l-0.65962,-2.96831l-0.32981,-1.97887l1.31925,-5.27699l2.63849,-2.30868l0.98944,-1.31925l0.98944,-1.97887l1.31925,-0.98944l1.31925,-0.32981l1.97887,0.32981l1.97887,0.98944l2.30868,0.32981l1.64906,0.65962l1.64906,1.31925l1.64906,1.31925l1.64906,0l0.98944,-0.98944l0.98944,-1.64906l0.98944,-0.98944l1.64906,-0.32981l1.31925,-0.32981l1.64906,-0.65962l0.98944,-0.98944l1.64906,-2.63849l2.63849,-3.62793l1.97887,-1.97887l0.98944,-1.31925l0.65962,-1.64906l0.98944,-5.6068l0.32981,-3.62793l-0.32981,-4.61736l-0.32981,-1.97887l1.31925,-10.22416l-0.32981,-4.61736l0.32981,-2.30868l-0.32981,-2.96831l0,-1.64906l-0.32981,-1.31925l-2.30868,-2.30868l-0.32981,-0.98944l-0.98944,-0.65962l-0.65962,-0.65962l-1.97887,-0.65962l-0.65962,-0.65962l-0.32981,-0.32981l-0.65962,-0.65962l-0.32981,-0.98944l-0.65962,-1.31925l0,-2.63849l0.65962,-3.62793l2.63849,-10.22416l0,-2.63849l-0.65962,-5.27699l-0.32981,-4.28755l0.32981,-5.6068l1.31925,-3.95774l1.64906,-3.62793l0.65962,-2.30868l0,-1.64906l-0.32981,-2.96831l-0.32981,-1.64906l-2.30868,-3.62793l-3.29812,-3.95774l-1.64906,-2.63849l-2.63849,-5.93661l-1.64906,-3.29812l-0.65962,-1.31925l-0.32981,-1.64906l0.32981,-1.31925l0.65962,-0.98944l0.65962,-0.32981l0.98944,0l0.98944,0l1.97887,0l0.98944,-0.65962l0.65962,-0.65962l0.98944,-0.98944l0,-0.98944l0,-2.63849l0.65962,-1.31925l2.63849,-1.97887l1.31925,-0.65962l3.62793,-4.61736l2.96831,-0.32981l1.31925,-0.32981l1.31925,-0.65962l0.98944,-1.64906l0.65962,-1.64906l1.97887,-10.22416l-0.98944,-6.59623l0,-1.97887l0.32981,-1.97887l1.31925,-3.29812l0,-1.64906l-0.65962,-0.98944l-0.98944,-0.98944l-0.65962,-2.63849l-0.32981,-1.64906l0.32981,-1.64906l0.65962,-1.64906l1.64906,-2.30868l2.30868,-2.30868l3.29812,-2.30868l9.89435,-5.93661l3.62793,-3.29812z" id="ECZ" name="Zamora Chinchipe"/>
   <path stroke="null" d="m365.55016,1537.61423l-3.62793,4.61736l-1.31925,0.65962l-2.63849,1.97887l-0.65962,1.31925l0,2.63849l0,0.98944l-0.98944,0.98944l-0.65962,0.65962l-0.98944,0.65962l-1.97887,0l-0.98944,0l-0.98944,0l-0.65962,0.32981l-0.65962,0.98944l-0.32981,1.31925l0.32981,1.64906l0.65962,1.31925l1.64906,3.29812l2.63849,5.93661l1.64906,2.63849l3.29812,3.95774l2.30868,3.62793l0.32981,1.64906l0.32981,2.96831l0,1.64906l-0.65962,2.30868l-1.64906,3.62793l-1.31925,3.95774l-0.32981,5.6068l0.32981,4.28755l0.65962,5.27699l0,2.63849l-2.63849,10.22416l-0.65962,3.62793l0,2.63849l0.65962,1.31925l0.32981,0.98944l0.65962,0.65962l0.32981,0.32981l0.65962,0.65962l1.97887,0.65962l0.65962,0.65962l0.98944,0.65962l0.32981,0.98944l2.30868,2.30868l0.32981,1.31925l0,1.64906l0.32981,2.96831l-0.32981,2.30868l0.32981,4.61736l-1.31925,10.22416l0.32981,1.97887l0.32981,4.61736l-0.32981,3.62793l-0.98944,5.6068l-0.65962,1.64906l-0.98944,1.31925l-1.97887,1.97887l-2.63849,3.62793l-1.64906,2.63849l-0.98944,0.98944l-1.64906,0.65962l-1.31925,0.32981l-1.64906,0.32981l-0.98944,0.98944l-0.98944,1.64906l-0.98944,0.98944l-1.64906,0l-1.64906,-1.31925l-1.64906,-1.31925l-1.64906,-0.65962l-2.30868,-0.32981l-1.97887,-0.98944l-1.97887,-0.32981l-1.31925,0.32981l-1.31925,0.98944l-0.98944,1.97887l-0.98944,1.31925l-2.63849,2.30868l-1.31925,5.27699l0.32981,1.97887l0.65962,2.96831l-0.32981,1.97887l-0.65962,2.63849l-1.31925,1.97887l-5.27699,7.91548l-2.30868,2.63849l-5.93661,9.56454l-7.91548,8.24529l-1.64906,0.65962l-4.61736,-8.90492l-1.97887,-10.55397l-5.27699,-7.58567l0,-3.95774l4.28755,-7.25586l0.32981,-2.63849l-0.98944,-1.64906l-3.62793,-2.30868l-4.28755,0l-0.98944,-0.65962l-2.63849,-1.64906l-1.31925,-0.65962l-8.90492,-8.90492l-4.94718,-2.63849l-6.59623,0.98944l-6.26642,3.62793l-11.87322,3.62793l-6.59623,-0.98944l-4.61736,-4.61736l-3.62793,-5.6068l-4.61736,-4.28755l-4.61736,-0.98944l-4.61736,0l-4.61736,-0.65962l-4.94718,-2.63849l-3.29812,-2.63849l-5.93661,-6.26642l-3.29812,-2.63849l-2.96831,-1.31925l-3.62793,-0.65962l-2.96831,-0.98944l-1.31925,-1.64906l-0.32981,0l-7.25586,0.98944l-1.97887,0.65962l-1.97887,0.98944l-1.31925,0.98944l-1.64906,2.63849l-1.64906,6.26642l-1.31925,2.96831l-2.96831,2.96831l-13.85209,10.55397l-7.25586,3.95774l-1.64906,1.64906l-1.31925,0l-3.29812,0l-2.96831,-0.98944l-7.91548,-4.61736l-2.63849,-1.97887l-1.31925,-3.95774l0.65962,-2.96831l23.41663,-31.33211l1.97887,-3.95774l-8.24529,0.98944l-7.58567,2.30868l-6.26642,-0.65962l-3.62793,-7.91548l0,-1.64906l0.65962,-3.62793l0,-1.64906l-0.98944,-2.30868l-2.96831,-3.95774l-0.98944,-2.30868l0.32981,-3.29812l1.64906,-4.61736l1.97887,-4.28755l1.97887,-2.96831l2.63849,-1.97887l3.29812,-0.98944l3.62793,0l3.62793,0l3.62793,1.31925l7.58567,3.95774l3.29812,0.65962l3.62793,-1.64906l3.29812,-3.95774l2.30868,-3.95774l2.63849,-3.29812l13.85209,-6.26642l2.96831,-3.29812l0,-1.64906l2.63849,0l13.19247,-0.65962l11.2136,-2.63849l10.55397,-4.94718l3.62793,-0.98944l10.22416,-0.98944l3.29812,0l2.63849,0.65962l3.62793,1.31925l2.96831,0.32981l11.54341,-0.65962l3.95774,-0.98944l2.63849,-0.98944l4.61736,-5.27699l1.97887,-1.97887l5.27699,-2.96831l2.63849,-0.98944l1.64906,-0.98944l1.64906,-0.32981l0.65962,0.32981l1.31925,2.63849l1.31925,1.31925l2.63849,2.63849l2.30868,0.65962l2.96831,0.65962l5.93661,-0.98944l2.30868,0.32981l3.62793,1.31925l1.97887,0.32981l3.29812,0.32981l3.29812,-0.98944l2.30868,-0.98944l1.31925,-1.64906l1.31925,-1.64906l0.65962,-1.64906l0.32981,-1.97887l-1.64906,-4.94718l0.32981,-0.98944l0.98944,-1.31925l2.63849,-2.63849l0.65962,-0.98944l0.98944,-1.97887l0.98944,-2.63849l0.32981,-2.63849l-0.32981,-2.63849l-0.98944,-1.97887l-1.31925,-1.31925l-0.98944,-0.98944l-2.30868,-1.31925l-1.97887,-1.97887l-1.31925,-0.98944l-1.97887,-0.32981l-1.64906,0.65962l-0.98944,0.98944l-1.97887,2.63849l-2.30868,2.30868l-1.31925,0.98944l-1.31925,0.65962l-0.65962,-1.31925l-0.32981,-1.64906l0.32981,-2.30868l2.63849,-8.24529l-0.32981,-2.30868l0.32981,-4.28755l0.65962,-1.97887l0.98944,-1.97887l6.26642,-7.25586l0.32981,-0.98944l0.32981,-0.98944l0,-0.98944l-0.65962,-0.98944l-0.98944,-0.98944l-1.31925,-0.32981l-1.31925,-0.32981l-0.98944,-0.65962l-0.65962,-1.64906l-0.98944,-3.29812l-0.32981,-2.96831l0.98944,-9.56454l4.61736,1.97887l4.61736,0.65962l6.26642,0l4.94718,-0.32981l2.63849,0l1.97887,0.98944l1.97887,1.97887l0.98944,2.63849l0,1.97887l0,3.29812l0.32981,3.95774l0.98944,2.30868l1.97887,2.30868l4.61736,1.97887l3.62793,0l2.63849,-0.32981l4.94718,-2.63849l1.64906,-0.32981l0.98944,0.98944l1.31925,3.62793l1.97887,3.62793l5.27699,8.90492l1.31925,3.29812l0,4.28755l0.65962,5.6068l3.29812,4.28755z" id="ECL" name="Loja"/>
   <path stroke="null" d="m301.8965,1482.53568l-0.98944,9.56454l0.32981,2.96831l0.98944,3.29812l0.65962,1.64906l0.98944,0.65962l1.31925,0.32981l1.31925,0.32981l0.98944,0.98944l0.65962,0.98944l0,0.98944l-0.32981,0.98944l-0.32981,0.98944l-6.26642,7.25586l-0.98944,1.97887l-0.65962,1.97887l-0.32981,4.28755l0.32981,2.30868l-2.63849,8.24529l-0.32981,2.30868l0.32981,1.64906l0.65962,1.31925l1.31925,-0.65962l1.31925,-0.98944l2.30868,-2.30868l1.97887,-2.63849l0.98944,-0.98944l1.64906,-0.65962l1.97887,0.32981l1.31925,0.98944l1.97887,1.97887l2.30868,1.31925l0.98944,0.98944l1.31925,1.31925l0.98944,1.97887l0.32981,2.63849l-0.32981,2.63849l-0.98944,2.63849l-0.98944,1.97887l-0.65962,0.98944l-2.63849,2.63849l-0.98944,1.31925l-0.32981,0.98944l1.64906,4.94718l-0.32981,1.97887l-0.65962,1.64906l-1.31925,1.64906l-1.31925,1.64906l-2.30868,0.98944l-3.29812,0.98944l-3.29812,-0.32981l-1.97887,-0.32981l-3.62793,-1.31925l-2.30868,-0.32981l-5.93661,0.98944l-2.96831,-0.65962l-2.30868,-0.65962l-2.63849,-2.63849l-1.31925,-1.31925l-1.31925,-2.63849l-0.65962,-0.32981l-1.64906,0.32981l-1.64906,0.98944l-2.63849,0.98944l-5.27699,2.96831l-1.97887,1.97887l-4.61736,5.27699l-2.63849,0.98944l-3.95774,0.98944l-11.54341,0.65962l-2.96831,-0.32981l-3.62793,-1.31925l-2.63849,-0.65962l-3.29812,0l-10.22416,0.98944l-3.62793,0.98944l-10.55397,4.94718l-11.2136,2.63849l-13.19247,0.65962l-2.63849,0l0,-0.32981l-0.98944,-0.98944l-1.64906,-0.98944l-1.64906,-1.64906l-0.32981,-1.64906l0,-3.29812l-0.32981,-1.64906l-1.64906,-3.62793l-3.62793,-5.6068l-0.65962,-3.62793l0.32981,-1.31925l0.65962,-1.31925l0.65962,-1.31925l-0.32981,-1.97887l-0.98944,-3.29812l0,-1.31925l0,-1.64906l0,-1.64906l1.31925,-3.62793l0.32981,-1.64906l-0.32981,-1.97887l-0.98944,-3.62793l0,-1.97887l-0.32981,-1.64906l-1.64906,-0.65962l-1.97887,-0.65962l-0.98944,-0.98944l0,-1.64906l1.31925,-4.61736l0.32981,-3.62793l0,-1.64906l-0.32981,-1.64906l-1.31925,-1.31925l-2.63849,-0.98944l-1.31925,-0.98944l-0.32981,-3.95774l0.98944,-3.62793l0.65962,-2.96831l-2.63849,-1.97887l-6.92605,-1.97887l-2.63849,-1.31925l-1.31925,-0.65962l-0.32981,-1.31925l-0.32981,-1.31925l0.65962,-1.97887l2.30868,-1.31925l0.98944,-2.30868l0.98944,-2.30868l1.64906,-2.63849l-1.64906,4.94718l-0.65962,1.31925l0.98944,3.62793l2.30868,-1.64906l0.98944,-5.6068l1.64906,-2.63849l4.94718,4.94718l2.30868,-0.98944l13.19247,-2.63849l1.97887,0.32981l1.64906,0.32981l1.31925,0l1.64906,-0.65962l3.95774,-4.94718l0.98944,-0.65962l6.59623,-13.85209l1.97887,-2.63849l3.95774,0.65962l0.98944,4.28755l-1.31925,8.5751l1.97887,-0.98944l0.98944,-1.97887l0.98944,-1.97887l1.64906,-1.97887l1.31925,-1.31925l5.93661,-3.29812l2.63849,-3.29812l1.64906,-3.62793l0.98944,-3.95774l0.65962,-6.92605l2.96831,-6.59623l3.95774,-5.93661l1.31925,0l13.85209,0.98944l1.64906,0.32981l7.25586,1.97887l21.76757,11.54341l6.92605,5.93661l0.98944,2.30868l0.32981,2.63849l-0.32981,2.63849l-0.65962,2.30868l-3.95774,7.91548l-1.31925,3.62793l-0.65962,1.64906l-1.97887,1.31925l-3.29812,1.64906l-0.98944,0.65962l-0.32981,1.64906l1.31925,0.65962l1.97887,0.98944l6.26642,0l10.22416,-2.30868l6.59623,-0.65962l2.30868,0l2.96831,0.65962l5.93661,1.97887z" id="ECO" name="El Oro"/>
   <path stroke="null" d="m194.37788,1363.47365l8.24529,0.32981l12.20303,7.58567l7.58567,1.97887l-0.32981,1.31925l-0.32981,1.31925l-0.98944,1.31925l-0.65962,0.98944l-1.97887,1.64906l-9.23473,3.95774l-0.32981,1.31925l-2.63849,2.63849l-0.65962,0.98944l-0.98944,2.63849l-1.31925,2.63849l-1.64906,1.64906l-0.32981,0l-1.97887,3.29812l-1.97887,4.28755l-2.30868,3.95774l-1.31925,2.96831l-2.96831,1.31925l-2.30868,2.63849l0.32981,4.28755l-2.96831,2.30868l-0.98944,2.63849l-2.96831,4.28755l-6.26642,-0.65962l-3.62793,1.97887l-2.96831,0.98944l-4.28755,-0.32981l-4.28755,-1.31925l-2.63849,-1.31925l-0.98944,-3.95774l0.98944,-6.26642l0.65962,-21.43776l0.65962,-2.30868l6.26642,-11.2136l2.30868,-7.25586l2.63849,-1.97887l10.88379,-2.96831l9.89435,-4.94718l3.62793,-1.31925zm53.4295,71.89895l-7.25586,-1.97887l-1.64906,-0.32981l-13.85209,-0.98944l-1.31925,0l2.30868,-3.62793l1.31925,-3.62793l-1.64906,-2.96831l0.65962,-4.28755l2.30868,-6.92605l0.32981,-2.96831l5.6068,-18.46946l3.62793,-6.59623l0.65962,-1.31925l1.64906,-3.62793l0.65962,-4.28755l3.62793,-10.22416l2.30868,-3.29812l5.27699,-5.27699l1.64906,-3.29812l0,-4.28755l-0.98944,-7.91548l-2.63849,-6.26642l-0.32981,-0.98944l-3.95774,0l-1.97887,0l-1.64906,-0.65962l-1.97887,-3.29812l-3.62793,-9.56454l-1.97887,-3.62793l-1.31925,-2.30868l-0.32981,-2.30868l0.32981,-10.55397l-1.31925,-8.24529l0,-2.30868l0.98944,-3.95774l0.32981,-2.30868l-0.65962,-1.31925l-0.32981,-0.65962l-2.30868,-2.96831l-0.65962,-0.65962l-0.32981,-0.98944l-0.32981,-0.98944l-0.32981,-1.31925l0,-1.97887l0.98944,-1.97887l0.98944,-1.64906l0.32981,-1.64906l-1.31925,-1.97887l2.96831,-2.96831l2.63849,-0.98944l2.30868,-1.31925l0.65962,-3.95774l1.64906,-1.97887l2.63849,-1.64906l2.96831,-1.97887l1.31925,-3.62793l-10.55397,5.93661l-0.98944,0.98944l-0.65962,1.31925l0,3.29812l-1.31925,0.65962l-5.93661,0.32981l-1.31925,1.31925l0,1.64906l-1.64906,4.28755l-1.64906,7.25586l0,4.94718l0.98944,5.27699l5.27699,9.56454l0.65962,5.27699l-2.96831,34.96004l-1.97887,7.25586l-0.98944,1.97887l-4.94718,5.27699l-1.64906,1.31925l-2.96831,0.65962l-6.26642,3.62793l-2.63849,0.65962l-1.64906,-0.98944l-0.98944,-2.30868l-1.64906,-0.65962l-3.62793,0.65962l-1.31925,-0.65962l-2.30868,-1.64906l-0.98944,-2.96831l2.30868,-2.63849l5.27699,-3.62793l1.64906,-3.95774l0.98944,-2.63849l1.64906,-1.64906l4.94718,-0.32981l0.98944,0.65962l1.31925,1.64906l1.31925,1.31925l1.97887,0l1.64906,-0.98944l0.65962,-1.64906l0,-1.64906l-0.98944,-1.97887l-0.98944,3.62793l-2.30868,-0.65962l-4.28755,-3.95774l-3.95774,0.32981l-3.29812,1.64906l-2.63849,0.98944l-0.98944,-2.63849l0.65962,-3.95774l3.29812,-7.58567l0.98944,-4.28755l0.65962,-1.97887l1.31925,-0.98944l2.30868,-0.32981l1.64906,-0.98944l1.31925,-1.31925l3.62793,-5.6068l-1.64906,0.32981l-0.65962,0.65962l-1.97887,1.64906l-1.31925,0.65962l-3.62793,-0.32981l-1.64906,0.32981l-2.30868,1.31925l-1.31925,2.30868l-7.91548,19.7887l-12.20303,17.15021l-5.27699,5.93661l-5.93661,2.63849l-1.31925,2.30868l-1.31925,1.64906l-1.64906,0.98944l-1.64906,0l-0.98944,-0.65962l-0.65962,-1.31925l-0.98944,-0.98944l-2.63849,-1.31925l-1.64906,1.31925l-0.65962,2.96831l0.65962,3.62793l0.65962,0.65962l4.94718,4.94718l0.65962,1.31925l0,1.97887l-0.32981,3.95774l-1.64906,1.64906l-3.95774,-0.65962l-7.58567,-2.96831l-7.58567,-6.26642l-2.63849,-1.64906l-2.30868,-2.30868l-0.98944,-0.65962l-1.31925,-0.32981l-2.96831,-0.32981l-1.64906,-0.65962l-6.92605,-4.28755l-13.52228,-15.83096l13.19247,-12.20303l10.55397,-7.91548l15.17134,-3.62793l8.90492,-5.27699l7.91548,-11.87322l2.63849,-18.13964l0.65962,-15.83096l-6.92605,-10.88379l-6.59623,-5.93661l-10.55397,-6.26642l-14.1819,-3.29812l-9.23473,-5.6068l-4.94718,-8.5751l-1.64906,-7.58567l7.25586,0l5.27699,-0.32981l1.31925,-0.65962l0.98944,-0.98944l0.32981,-1.31925l0.32981,-0.98944l0.32981,-1.31925l0,-1.64906l0.32981,-1.97887l1.31925,-1.97887l1.64906,-1.64906l1.31925,-1.97887l0.98944,-1.97887l1.31925,-1.64906l1.97887,-1.64906l1.97887,-0.98944l2.30868,-0.98944l1.31925,-0.98944l1.64906,-3.29812l1.31925,-0.98944l1.64906,-0.65962l1.31925,0.65962l1.31925,0.98944l0.98944,0.65962l0.98944,-0.32981l1.31925,-0.98944l2.30868,-1.31925l6.92605,0.32981l2.63849,-0.65962l0.65962,-1.64906l-1.64906,-5.27699l-0.32981,-1.64906l0,-1.64906l0.32981,-0.65962l-0.32981,-0.65962l-1.31925,-0.65962l-1.64906,-0.32981l-1.97887,-0.98944l-2.30868,-1.64906l-1.64906,-2.30868l-0.98944,-1.64906l0,-0.98944l10.88379,-1.64906l5.93661,-3.95774l0.98944,-1.64906l0,-1.31925l-1.97887,-2.96831l-0.65962,-1.97887l-0.65962,-1.97887l0,-2.30868l0.98944,-4.61736l0.65962,-1.97887l1.31925,-1.64906l0.65962,-0.32981l1.31925,-0.32981l2.63849,-1.64906l3.95774,-1.31925l0.98944,-0.65962l0.32981,-1.31925l-0.65962,-3.95774l0.32981,-3.62793l1.31925,-2.63849l1.97887,-1.64906l3.95774,-1.64906l6.92605,-5.6068l1.64906,-2.30868l3.62793,-9.56454l1.31925,-5.6068l1.64906,-3.29812l1.31925,-4.28755l0.98944,-2.63849l1.64906,-1.97887l1.31925,-0.65962l0.65962,0.32981l-0.32981,1.31925l-0.32981,1.64906l0.32981,0.98944l0.98944,0.32981l2.63849,0l1.31925,0l1.64906,0.65962l3.29812,-0.98944l2.63849,-1.31925l9.23473,-7.58567l1.97887,-2.30868l2.96831,-4.94718l2.30868,-2.30868l1.64906,-1.97887l0.65962,-1.64906l0.65962,-1.64906l0,-0.98944l0,-1.31925l0.32981,-1.64906l0.65962,-0.98944l2.96831,-1.64906l0.65962,-1.64906l0.98944,-2.30868l0.65962,-1.97887l6.92605,-9.56454l1.64906,-1.64906l2.30868,-0.98944l2.96831,-0.98944l11.2136,-1.97887l5.93661,-1.64906l6.26642,-0.65962l2.96831,0l2.30868,1.31925l0.98944,2.96831l-0.98944,5.6068l-2.63849,7.91548l0,1.64906l0.65962,1.31925l0,0.98944l-0.98944,1.64906l-1.31925,0.65962l-1.64906,1.31925l-0.98944,1.31925l-0.98944,1.97887l-0.32981,1.31925l-1.31925,6.26642l-0.98944,1.97887l-0.98944,1.31925l-1.64906,0.32981l-1.64906,0.32981l-1.64906,0.65962l-0.98944,0.98944l-0.65962,0.98944l-1.97887,2.30868l-1.64906,2.63849l-1.31925,0.98944l-2.63849,0.32981l-1.31925,0.32981l-0.65962,1.31925l-0.32981,1.97887l-0.65962,1.31925l-0.65962,1.31925l-0.98944,0.32981l-1.31925,0.32981l-0.65962,0.32981l-0.65962,0.32981l-0.32981,0.98944l-0.32981,1.97887l-0.65962,0.65962l-0.65962,0.65962l-1.97887,0.32981l-0.98944,0.32981l-0.65962,0.32981l-0.65962,0.98944l0,0.98944l0,3.62793l-0.65962,1.97887l-0.32981,1.64906l-9.89435,18.79927l-1.64906,1.97887l-3.29812,3.29812l-1.97887,3.29812l-0.98944,1.64906l-2.96831,8.24529l-0.32981,1.97887l-0.65962,11.2136l0,1.97887l2.63849,7.91548l-0.32981,1.31925l-1.31925,2.96831l0,2.30868l0.32981,2.30868l0.32981,1.97887l0.98944,0.98944l14.51172,7.58567l2.63849,2.63849l1.97887,3.62793l1.31925,3.62793l1.64906,2.96831l4.28755,5.93661l1.31925,2.30868l2.30868,5.93661l4.28755,7.58567l0.98944,3.95774l1.31925,1.31925l3.95774,0.98944l6.26642,-0.98944l9.23473,-3.29812l2.96831,-0.32981l3.95774,0.32981l3.62793,1.64906l7.91548,5.6068l3.95774,1.97887l2.30868,1.31925l5.27699,4.28755l2.30868,2.30868l13.19247,22.09738l8.90492,8.5751l7.25586,1.31925l2.30868,0l1.97887,0l1.31925,-0.65962l0.98944,-1.31925l1.64906,-0.98944l1.64906,0l1.64906,1.64906l0.65962,1.31925l-0.32981,7.25586l-1.97887,3.95774l-0.65962,1.31925l-1.97887,1.97887l-2.30868,1.97887l-4.28755,2.30868l-3.95774,1.64906l-3.62793,0.98944l-21.10795,3.62793l-2.30868,0.98944l-2.30868,1.31925l-4.94718,3.95774l-1.97887,1.97887l-1.64906,2.30868l0,4.28755l-0.65962,1.31925l0,1.31925l0.32981,1.64906l0.65962,1.31925l0,0.98944l-5.93661,3.62793l-10.22416,9.23473l0.32981,2.63849l1.64906,1.31925l2.63849,0.32981l4.28755,-2.30868l4.94718,-1.64906l2.30868,4.61736l1.31925,2.30868l-0.32981,1.97887l-0.98944,1.64906l-3.95774,4.28755l-1.64906,1.31925l-0.98944,0.65962l-0.98944,0.65962l-0.98944,0.65962l-38.91778,40.89665l-1.64906,4.28755l-0.65962,4.28755l0.32981,3.29812l0.98944,4.94718l0.32981,5.27699l0,1.31925l-9.89435,11.87322l-0.98944,2.30868l-0.65962,1.64906l-0.32981,3.29812zm-10.55397,-103.56088l1.97887,4.61736l4.28755,1.64906l2.30868,3.95774l-3.95774,5.6068l-6.26642,3.29812l-0.65962,7.91548l-4.28755,2.63849l-3.62793,-0.32981l-0.98944,-3.95774l2.63849,-6.92605l3.62793,-9.56454l4.94718,-8.90492z" id="ECG" name="Guayas"/>
   <path stroke="null" d="m112.91439,1216.70744l1.64906,7.58567l4.94718,8.5751l9.23473,5.6068l14.1819,3.29812l10.55397,6.26642l6.59623,5.93661l6.92605,10.88379l-0.65962,15.83096l-2.63849,18.13964l-7.91548,11.87322l-8.90492,5.27699l-15.17134,3.62793l-10.55397,7.91548l-13.19247,12.20303l-5.6068,-6.59623l-14.51172,-13.85209l-5.93661,-1.64906l-5.27699,-2.63849l-5.6068,0.32981l-9.56454,-3.29812l-3.29812,-1.31925l-7.58567,-6.59623l-3.62793,-1.64906l-2.96831,0l-1.97887,-0.32981l-1.64906,-1.64906l-0.98944,-5.93661l-1.31925,-2.96831l-2.96831,-3.95774l-2.30868,-2.63849l-6.59623,-5.27699l-0.98944,-0.98944l-0.65962,-1.97887l-0.32981,-1.64906l0.65962,-0.98944l1.31925,0.32981l0.65962,0.65962l0.32981,0.98944l0.65962,0.65962l4.61736,0.98944l1.97887,0l0.98944,0.65962l0.98944,2.96831l2.30868,2.63849l4.28755,-0.32981l6.59623,-2.30868l8.90492,-7.25586l7.25586,-3.62793l6.26642,-6.92605l1.31925,-10.55397l-2.63849,-5.6068l-1.31925,-5.6068l-0.65962,-1.31925l0.98944,-1.97887l1.97887,-0.32981l2.30868,-1.31925l0.65962,-4.28755l-0.65962,-4.61736l-4.94718,-19.12908l-2.63849,-7.25586l-0.98944,-3.29812l-1.64906,-2.96831l-1.64906,-1.97887l-2.30868,-3.29812l-0.98944,-2.63849l4.94718,-0.98944l3.29812,0.32981l1.31925,0l2.63849,-0.98944l12.86266,0.65962l3.29812,-0.65962l6.26642,-1.97887l3.29812,-0.32981l5.27699,0.98944l2.30868,1.31925l0.98944,1.64906l-0.32981,1.64906l0,0.98944l0.32981,0.98944l2.30868,2.30868l0.65962,1.31925l0.32981,1.64906l-0.65962,5.27699l-0.32981,0.98944l-1.97887,3.29812l-0.65962,1.64906l-0.32981,1.64906l-0.32981,1.64906l0.32981,1.64906l1.64906,1.97887l2.63849,1.31925l3.95774,0.98944z" id="ECSE" name="Santa Elena"/>
   <path stroke="null" d="m205.26167,826.21038l4.28755,10.88379l2.30868,2.96831l1.31925,0.65962l1.31925,0.32981l1.31925,0.32981l0.98944,0l0.98944,0l0.32981,-0.32981l1.31925,-0.98944l0.65962,-0.65962l0.65962,-0.65962l0.65962,-0.65962l0.65962,-0.65962l0.65962,-1.64906l0.98944,-1.97887l0.32981,-1.97887l0,-0.32981l0.32981,-0.32981l0.32981,-0.32981l0.65962,0l0.32981,-0.32981l6.26642,0.32981l2.96831,0l3.29812,-0.65962l2.30868,-0.98944l0.98944,-0.65962l1.97887,-1.31925l3.62793,-3.95774l0.98944,-0.65962l0.98944,-0.65962l2.30868,-0.98944l1.31925,-0.32981l0.98944,0l0.98944,0.65962l0.65962,0.32981l1.97887,1.31925l1.31925,1.64906l0.32981,0.32981l0.32981,0.65962l0,0.32981l0,0.32981l0,0.32981l-0.32981,0.32981l-1.64906,1.64906l-0.65962,0.98944l-0.32981,0.65962l-0.32981,0.65962l0,0.65962l0,0.65962l0,0.65962l0.32981,0.65962l0.65962,0.65962l0.32981,0.65962l8.5751,4.94718l0.65962,0.65962l0.32981,0.65962l0.32981,0.32981l0,0.32981l-0.32981,0.65962l-0.32981,0.65962l-0.98944,0.98944l-1.31925,0.98944l-0.98944,0.65962l-0.98944,1.31925l-0.65962,1.31925l-3.29812,4.94718l-0.32981,0.32981l0.32981,0.65962l0.65962,0.65962l1.97887,1.97887l0.98944,0.32981l0.65962,0.32981l0.65962,-0.32981l0.32981,-0.32981l0.65962,-0.32981l0.65962,-0.32981l0.98944,0l0.32981,0.32981l0.32981,0.65962l0.32981,2.96831l0.32981,0.98944l0.32981,0.65962l0.32981,0l0.65962,0l0.32981,-0.32981l1.64906,-0.98944l0.98944,-0.32981l0.65962,0l0.65962,0.65962l1.31925,1.31925l3.29812,3.29812l1.64906,0.65962l0.98944,0.32981l1.31925,0l0.32981,0.32981l0.32981,0l0.32981,0.32981l-0.32981,0.32981l-4.61736,5.27699l-0.32981,0.65962l-0.32981,0.65962l-0.32981,1.31925l0,0.65962l-0.32981,0.65962l-0.32981,0.32981l-0.32981,0.32981l-0.65962,0l-0.32981,0.32981l-0.32981,0.32981l-0.32981,0.32981l-0.32981,0.65962l-0.32981,0.65962l0,0.65962l0,0.65962l0.65962,1.64906l0,0.32981l0,1.64906l0.32981,0.98944l2.96831,4.61736l-1.31925,1.64906l-0.32981,1.31925l-0.32981,1.97887l0.65962,3.62793l0.98944,1.64906l1.64906,1.31925l0.98944,0.32981l1.31925,0.65962l1.31925,1.31925l2.30868,1.31925l1.31925,1.31925l4.61736,5.6068l4.61736,4.28755l1.31925,0.65962l6.26642,1.97887l0.98944,0l2.96831,0l1.31925,0l1.64906,0.65962l0.65962,1.31925l-0.32981,2.96831l1.31925,31.99174l-0.65962,2.63849l-1.31925,2.63849l-5.6068,8.90492l-0.32981,3.95774l-0.32981,1.64906l-1.97887,4.94718l-2.96831,3.95774l-2.30868,8.24529l-1.64906,3.95774l-3.95774,7.91548l-1.97887,6.26642l-0.65962,0.98944l-1.64906,1.31925l-1.97887,0.32981l-1.64906,0.98944l-1.64906,1.97887l-1.64906,3.29812l-2.30868,12.20303l-3.62793,7.25586l-11.2136,1.97887l-2.96831,0.98944l-2.30868,0.98944l-1.64906,1.64906l-6.92605,9.56454l-0.65962,1.97887l-0.98944,2.30868l-0.65962,1.64906l-2.96831,1.64906l-0.65962,0.98944l-0.32981,1.64906l0,1.31925l0,0.98944l-0.65962,1.64906l-0.65962,1.64906l-1.64906,1.97887l-2.30868,2.30868l-2.96831,4.94718l-1.97887,2.30868l-9.23473,7.58567l-2.63849,1.31925l-3.29812,0.98944l-1.64906,-0.65962l-1.31925,0l-2.63849,0l-0.98944,-0.32981l-0.32981,-0.98944l0.32981,-1.64906l0.32981,-1.31925l-0.65962,-0.32981l-1.31925,0.65962l-1.64906,1.97887l-0.98944,2.63849l-1.31925,4.28755l-1.64906,3.29812l-1.31925,5.6068l-3.62793,9.56454l-1.64906,2.30868l-6.92605,5.6068l-3.95774,1.64906l-1.97887,1.64906l-1.31925,2.63849l-0.32981,3.62793l0.65962,3.95774l-0.32981,1.31925l-0.98944,0.65962l-3.95774,1.31925l-2.63849,1.64906l-1.31925,0.32981l-0.65962,0.32981l-1.31925,1.64906l-0.65962,1.97887l-0.98944,4.61736l0,2.30868l0.65962,1.97887l0.65962,1.97887l1.97887,2.96831l0,1.31925l-0.98944,1.64906l-5.93661,3.95774l-10.88379,1.64906l0,0.98944l0.98944,1.64906l1.64906,2.30868l2.30868,1.64906l1.97887,0.98944l1.64906,0.32981l1.31925,0.65962l0.32981,0.65962l-0.32981,0.65962l0,1.64906l0.32981,1.64906l1.64906,5.27699l-0.65962,1.64906l-2.63849,0.65962l-6.92605,-0.32981l-2.30868,1.31925l-1.31925,0.98944l-0.98944,0.32981l-0.98944,-0.65962l-1.31925,-0.98944l-1.31925,-0.65962l-1.64906,0.65962l-1.31925,0.98944l-1.64906,3.29812l-1.31925,0.98944l-2.30868,0.98944l-1.97887,0.98944l-1.97887,1.64906l-1.31925,1.64906l-0.98944,1.97887l-1.31925,1.97887l-1.64906,1.64906l-1.31925,1.97887l-0.32981,1.97887l0,1.64906l-0.32981,1.31925l-0.32981,0.98944l-0.32981,1.31925l-0.98944,0.98944l-1.31925,0.65962l-5.27699,0.32981l-7.25586,0l-3.95774,-0.98944l-2.63849,-1.31925l-1.64906,-1.97887l-0.32981,-1.64906l0.32981,-1.64906l0.32981,-1.64906l0.65962,-1.64906l1.97887,-3.29812l0.32981,-0.98944l0.65962,-5.27699l-0.32981,-1.64906l-0.65962,-1.31925l-2.30868,-2.30868l-0.32981,-0.98944l0,-0.98944l0.32981,-1.64906l-0.98944,-1.64906l-2.30868,-1.31925l-5.27699,-0.98944l-3.29812,0.32981l-6.26642,1.97887l-3.29812,0.65962l-12.86266,-0.65962l-2.63849,0.98944l-1.31925,0l-3.29812,-0.32981l-4.94718,0.98944l-2.96831,-7.91548l-2.63849,-2.96831l-0.65962,-2.30868l-0.32981,-2.63849l0.65962,-1.97887l6.26642,-4.61736l-0.65962,-3.95774l0,-5.27699l1.64906,-1.31925l1.97887,-1.97887l2.30868,-0.65962l2.96831,0l0.65962,-2.30868l0,-2.63849l0.32981,-3.29812l0.98944,-3.29812l-0.98944,-3.95774l0.98944,-2.63849l2.96831,-1.31925l-0.32981,-4.61736l-5.27699,-7.25586l-10.55397,-12.86266l-8.5751,-15.17134l-3.95774,-8.90492l-2.30868,-5.27699l1.31925,-3.62793l1.97887,-2.30868l2.63849,-1.97887l2.30868,-2.63849l1.31925,-1.64906l1.31925,-1.97887l2.30868,-2.30868l2.30868,-2.63849l0.32981,-1.31925l1.97887,-0.98944l2.63849,0.65962l2.30868,0l2.63849,-1.31925l2.30868,-0.98944l2.63849,0.65962l2.30868,-0.98944l1.97887,-0.65962l-0.32981,1.64906l3.29812,1.31925l2.63849,0.32981l2.30868,-1.97887l1.31925,-0.32981l1.31925,-1.97887l1.97887,-0.32981l1.64906,2.30868l1.64906,0.32981l3.29812,0.32981l4.28755,-1.64906l3.95774,-3.29812l3.95774,-4.28755l2.63849,-11.2136l0.65962,-3.29812l2.30868,-11.54341l3.29812,-8.90492l3.95774,-8.24529l2.30868,-5.27699l0.98944,-0.98944l1.31925,-0.98944l2.63849,-0.32981l2.30868,-0.98944l0.32981,4.61736l2.63849,3.62793l4.61736,2.30868l4.61736,0.65962l9.56454,0l0,-1.97887l-4.94718,-1.31925l-5.27699,-1.31925l-3.62793,0l-2.63849,-1.97887l-1.97887,-4.94718l-2.30868,-4.28755l-2.30868,-0.98944l-1.31925,-1.64906l-0.32981,-4.28755l-1.97887,-5.27699l-0.32981,-4.94718l-2.63849,-5.6068l-3.29812,-3.95774l-2.30868,-7.58567l1.97887,-2.63849l3.62793,-0.32981l5.93661,-4.61736l5.6068,-8.24529l1.64906,-3.29812l0.65962,-2.30868l1.64906,-3.95774l1.31925,-2.96831l3.95774,-1.31925l2.30868,-3.62793l2.30868,-3.95774l3.29812,2.96831l3.95774,-1.97887l4.28755,-3.29812l4.94718,-3.62793l10.55397,-11.54341l8.5751,-10.88379l2.96831,-3.62793l1.31925,-3.62793l0.32981,-2.30868l0.98944,-0.65962l0.98944,-0.32981l3.62793,-1.31925l2.96831,-6.59623l1.31925,-5.93661l0.98944,-9.56454l0,-4.28755l-1.64906,-7.58567l-0.32981,-13.52228l1.64906,-4.61736l0,-1.64906l0.65962,-0.65962l1.64906,0.98944l0.98944,0.98944l0.65962,1.31925l0.98944,2.63849l1.31925,0l0,-2.30868l0.98944,-1.31925z" id="ECM" name="Manabi"/>
   <path stroke="null" d="m464.16386,1345.66382l-0.98944,5.27699l0.32981,1.97887l0.65962,1.64906l1.31925,1.31925l1.64906,0.65962l1.31925,0l0.65962,-0.98944l0.32981,-1.97887l0.65962,-1.97887l0.98944,-1.97887l1.97887,-1.64906l1.64906,-0.65962l1.64906,-0.65962l1.64906,0l0.98944,0.65962l5.6068,3.95774l1.31925,1.31925l0.65962,1.64906l0.32981,1.31925l0,1.64906l-0.65962,1.64906l-1.97887,1.64906l-19.7887,9.89435l-1.64906,1.64906l-1.64906,1.97887l-5.6068,10.22416l-0.32981,1.31925l0.65962,1.31925l0.98944,1.31925l1.64906,1.64906l1.31925,1.97887l0.65962,1.64906l0,1.64906l-0.98944,2.63849l-8.5751,13.85209l-0.98944,2.96831l-0.65962,1.97887l-4.28755,8.90492l-0.65962,2.63849l0,2.96831l0.32981,2.63849l-0.65962,3.29812l-1.64906,2.96831l-4.61736,5.27699l-4.61736,3.62793l-5.93661,3.29812l-6.59623,1.97887l-3.62793,3.62793l-22.09738,17.48002l-0.98944,1.97887l-0.32981,1.31925l0.98944,2.96831l-3.62793,3.29812l-9.89435,5.93661l-3.29812,2.30868l-2.30868,2.30868l-1.64906,2.30868l-0.65962,1.64906l-0.32981,1.64906l0.32981,1.64906l0.65962,2.63849l0.98944,0.98944l0.65962,0.98944l0,1.64906l-1.31925,3.29812l-0.32981,1.97887l0,1.97887l0.98944,6.59623l-1.97887,10.22416l-0.65962,1.64906l-0.98944,1.64906l-1.31925,0.65962l-1.31925,0.32981l-2.96831,0.32981l-3.29812,-4.28755l-0.65962,-5.6068l0,-4.28755l-1.31925,-3.29812l-5.27699,-8.90492l-1.97887,-3.62793l-1.31925,-3.62793l-0.98944,-0.98944l-1.64906,0.32981l-4.94718,2.63849l-2.63849,0.32981l-3.62793,0l-4.61736,-1.97887l-1.97887,-2.30868l-0.98944,-2.30868l-0.32981,-3.95774l0,-3.29812l0,-1.97887l-0.98944,-2.63849l-1.97887,-1.97887l-1.97887,-0.98944l-2.63849,0l-4.94718,0.32981l-6.26642,0l-4.61736,-0.65962l-4.61736,-1.97887l-5.93661,-1.97887l-2.96831,-0.65962l-2.30868,0l-6.59623,0.65962l-10.22416,2.30868l-6.26642,0l-1.97887,-0.98944l-1.31925,-0.65962l0.32981,-1.64906l0.98944,-0.65962l3.29812,-1.64906l1.97887,-1.31925l0.65962,-1.64906l1.31925,-3.62793l3.95774,-7.91548l0.65962,-2.30868l0.32981,-2.63849l-0.32981,-2.63849l-0.98944,-2.30868l-6.92605,-5.93661l-21.76757,-11.54341l0.32981,-3.29812l0.65962,-1.64906l0.98944,-2.30868l9.89435,-11.87322l0,-1.31925l-0.32981,-5.27699l-0.98944,-4.94718l-0.32981,-3.29812l0.65962,-4.28755l1.64906,-4.28755l38.91778,-40.89665l0.98944,-0.65962l0.98944,-0.65962l0.98944,-0.65962l1.64906,-1.31925l3.95774,-4.28755l0.98944,-1.64906l0.32981,-1.97887l-1.31925,-2.30868l-2.30868,-4.61736l5.93661,0.32981l2.96831,1.64906l1.97887,2.30868l3.29812,6.92605l1.64906,1.97887l2.30868,0.98944l4.61736,0.32981l2.96831,1.97887l1.31925,1.64906l0.98944,1.97887l0.98944,1.97887l1.64906,1.97887l15.83096,16.49059l2.30868,1.64906l1.97887,0.65962l1.97887,-1.31925l0.32981,-1.31925l0.32981,-1.64906l0,-1.64906l0.98944,-0.98944l1.64906,-0.98944l3.62793,-1.64906l1.31925,-0.98944l0.98944,-1.31925l0.32981,-1.31925l0.65962,-1.31925l0.98944,-0.65962l1.31925,-0.32981l1.97887,0.98944l2.30868,1.31925l2.63849,2.30868l2.30868,2.63849l5.27699,6.59623l3.29812,2.30868l3.95774,3.95774l0.98944,1.64906l0.65962,1.97887l0.98944,4.28755l0.98944,1.97887l2.63849,0.98944l6.59623,0.65962l2.63849,0l1.97887,-0.32981l1.64906,-0.65962l1.31925,0l1.64906,0.32981l0.98944,0.32981l0.98944,-0.32981l0,-0.98944l-0.32981,-2.96831l0.32981,-1.64906l0.65962,-1.31925l3.29812,-4.28755l0.65962,-0.98944l0.32981,-1.31925l0,-1.31925l-0.65962,-1.64906l-0.32981,-1.97887l0.32981,-1.64906l1.31925,-1.97887l1.31925,-1.31925l1.97887,-0.65962l2.30868,0l3.62793,0.65962l1.31925,0l1.64906,-0.98944l2.30868,-1.64906l3.62793,-2.96831l1.64906,-1.31925l4.28755,-0.98944l1.97887,-0.65962l2.63849,-1.97887l0.98944,-2.30868l0.32981,-1.97887l0.98944,-1.97887l1.64906,-1.97887l6.59623,-4.61736l2.63849,0.32981z" id="ECA" name="Azuay"/>
   <path stroke="null" d="m458.88687,1300.80943l0,1.97887l2.63849,1.31925l10.88379,4.94718l2.63849,1.97887l1.31925,1.97887l-0.32981,1.64906l-0.32981,1.97887l0.32981,10.22416l-0.98944,3.29812l0,1.64906l0,2.30868l-0.32981,1.31925l-0.65962,1.31925l-4.28755,6.59623l-1.64906,2.30868l-0.98944,0.32981l-0.32981,0.32981l-0.65962,0l-0.65962,0l-1.31925,-0.65962l-2.63849,-0.32981l-6.59623,4.61736l-1.64906,1.97887l-0.98944,1.97887l-0.32981,1.97887l-0.98944,2.30868l-2.63849,1.97887l-1.97887,0.65962l-4.28755,0.98944l-1.64906,1.31925l-3.62793,2.96831l-2.30868,1.64906l-1.64906,0.98944l-1.31925,0l-3.62793,-0.65962l-2.30868,0l-1.97887,0.65962l-1.31925,1.31925l-1.31925,1.97887l-0.32981,1.64906l0.32981,1.97887l0.65962,1.64906l0,1.31925l-0.32981,1.31925l-0.65962,0.98944l-3.29812,4.28755l-0.65962,1.31925l-0.32981,1.64906l0.32981,2.96831l0,0.98944l-0.98944,0.32981l-0.98944,-0.32981l-1.64906,-0.32981l-1.31925,0l-1.64906,0.65962l-1.97887,0.32981l-2.63849,0l-6.59623,-0.65962l-2.63849,-0.98944l-0.98944,-1.97887l-0.98944,-4.28755l-0.65962,-1.97887l-0.98944,-1.64906l-3.95774,-3.95774l-3.29812,-2.30868l-5.27699,-6.59623l-2.30868,-2.63849l-2.63849,-2.30868l-2.30868,-1.31925l-1.97887,-0.98944l-1.31925,0.32981l-0.98944,0.65962l-0.65962,1.31925l-0.32981,1.31925l-0.98944,1.31925l-1.31925,0.98944l-3.62793,1.64906l-1.64906,0.98944l-0.98944,0.98944l0,1.64906l-0.32981,1.64906l-0.32981,1.31925l-1.97887,1.31925l-1.97887,-0.65962l-2.30868,-1.64906l-15.83096,-16.49059l-1.64906,-1.97887l-0.98944,-1.97887l-0.98944,-1.97887l-1.31925,-1.64906l-2.96831,-1.97887l-4.61736,-0.32981l-2.30868,-0.98944l-1.64906,-1.97887l-3.29812,-6.92605l-1.97887,-2.30868l-2.96831,-1.64906l-5.93661,-0.32981l-4.94718,1.64906l-4.28755,2.30868l-2.63849,-0.32981l-1.64906,-1.31925l-0.32981,-2.63849l10.22416,-9.23473l5.93661,-3.62793l0,-0.98944l-0.65962,-1.31925l-0.32981,-1.64906l0,-1.31925l0.65962,-1.31925l0,-4.28755l1.64906,-2.30868l1.97887,-1.97887l4.94718,-3.95774l2.30868,-1.31925l2.30868,-0.98944l21.10795,-3.62793l3.62793,-0.98944l3.95774,-1.64906l4.28755,-2.30868l2.30868,-1.97887l1.97887,-1.97887l0.65962,-1.31925l1.97887,-3.95774l0.65962,4.94718l0.32981,0.98944l1.31925,1.64906l0.98944,0.65962l0.98944,0.65962l0.98944,0.32981l0.65962,0.98944l0.98944,2.63849l0.98944,1.31925l0.98944,0.65962l1.64906,1.31925l1.64906,1.31925l5.93661,7.91548l2.63849,2.63849l2.63849,1.64906l3.62793,1.64906l3.62793,2.30868l2.30868,0.98944l3.95774,0.65962l5.27699,-0.65962l5.6068,-1.31925l6.26642,-2.96831l2.96831,-2.63849l3.95774,-3.95774l4.61736,-1.64906l6.59623,-1.64906l22.4272,-2.63849l3.62793,1.64906z" id="ECF" name="Cañar"/>
   <path stroke="null" d="m541.66961,1108.19939l0.32981,19.45889l-0.65962,2.63849l-0.65962,2.63849l-4.94718,9.23473l-4.28755,3.95774l-3.62793,3.62793l-1.64906,1.31925l-2.96831,1.31925l-2.63849,0.98944l-4.28755,0l-6.26642,-0.98944l-2.30868,0.65962l-3.62793,1.97887l-1.97887,1.31925l-2.96831,3.95774l-1.31925,-1.64906l-0.65962,-3.29812l-0.65962,-0.98944l-1.31925,-0.65962l-2.30868,-0.65962l-1.97887,-1.31925l-1.97887,-0.65962l-3.29812,-0.98944l-2.30868,-0.98944l-4.28755,-2.96831l-2.30868,-0.98944l-1.97887,0.32981l-1.64906,1.64906l-1.31925,2.96831l-1.64906,1.97887l-1.97887,0.65962l-2.96831,-0.65962l-2.63849,-0.32981l-3.62793,0.65962l-2.96831,0.98944l-4.28755,0.65962l-4.61736,-0.32981l-9.56454,-1.97887l-4.28755,-1.64906l-3.62793,-1.97887l-5.27699,-3.95774l-2.63849,-1.31925l-2.30868,-0.65962l-2.30868,0.32981l-2.30868,0.98944l-5.93661,3.62793l-3.62793,1.31925l-1.64906,-2.30868l-1.97887,-2.63849l-4.28755,-6.26642l-0.65962,-2.30868l1.97887,-8.90492l1.31925,-3.29812l2.30868,-5.27699l0.65962,-2.96831l0.32981,-6.92605l0.65962,-2.30868l3.62793,-6.92605l5.27699,-1.97887l4.94718,-4.28755l4.28755,-1.31925l3.29812,-0.65962l3.29812,-0.32981l8.24529,1.97887l4.61736,0l2.96831,-0.65962l2.63849,-1.31925l4.28755,-3.29812l1.97887,-0.65962l4.61736,-0.32981l1.64906,-0.65962l1.31925,-0.98944l0.65962,-1.31925l0,-2.63849l0,-0.98944l1.97887,-1.64906l1.97887,-0.32981l1.64906,0l1.31925,0.65962l1.31925,0.65962l0.98944,0.98944l1.31925,0.98944l2.30868,0.98944l4.28755,-0.32981l2.30868,-0.98944l1.64906,-1.97887l1.97887,-3.62793l0,-2.96831l0.32981,-1.97887l0.65962,-1.64906l0.98944,-1.97887l0.65962,-1.31925l5.27699,-4.61736l3.62793,6.26642l4.61736,5.27699l1.64906,3.29812l0.65962,2.63849l0,8.24529l-0.32981,2.63849l-0.32981,1.64906l-1.64906,3.29812l-0.65962,1.97887l0.65962,0.65962l0.98944,0l6.26642,-3.62793l2.30868,-0.65962l2.30868,0l3.95774,0.98944l1.31925,0l2.96831,-0.65962l1.97887,-0.32981l0.65962,0.65962l0.65962,0.98944l0.32981,1.64906l0.98944,0.32981l1.97887,-0.32981l0.98944,0l0.65962,0.98944l1.64906,3.62793l2.96831,0.98944l5.93661,0.65962l1.31925,1.31925l0.65962,1.64906l0,4.28755z" id="ECN" name="Napo"/>
   <path stroke="null" d="m592.1308,881.94856l7.91548,1.97887l1.64906,0.98944l0,0.32981l0,0.32981l0,0.32981l0,0.65962l-0.32981,0.32981l-0.32981,0.32981l0,0.32981l-0.32981,0.98944l0,1.64906l0.98944,5.93661l1.31925,3.29812l2.30868,1.64906l3.29812,0.65962l17.80983,0.32981l4.94718,1.31925l2.30868,0.98944l1.97887,1.31925l1.31925,-0.32981l1.97887,-1.31925l3.62793,-3.95774l1.97887,-1.31925l3.29812,-0.32981l1.64906,-0.65962l0.98944,-0.98944l0.65962,-0.98944l0.65962,-0.65962l0.65962,-0.32981l0.98944,-0.32981l2.30868,-1.64906l1.97887,-0.98944l1.31925,0.65962l0.65962,1.31925l0.65962,1.64906l0.65962,1.31925l0.32981,0.98944l0.32981,0.65962l-0.32981,0.98944l-0.32981,0.98944l-0.32981,0.98944l0,0.65962l0.65962,1.64906l0,0.98944l0,0.65962l-0.32981,1.31925l-0.32981,0.98944l0,1.31925l0.32981,0.98944l1.64906,0.65962l8.24529,1.97887l3.29812,0.32981l1.97887,0l0.98944,-0.65962l1.31925,-0.98944l0.98944,-1.64906l1.97887,-3.62793l1.31925,-2.30868l4.61736,-5.6068l1.97887,12.86266l-0.65962,1.64906l-0.32981,4.94718l-0.65962,2.63849l0,1.64906l0.98944,1.97887l1.31925,1.64906l2.30868,2.96831l1.97887,3.29812l0.65962,1.31925l-0.32981,1.31925l0,0.98944l-0.65962,0.98944l0,0.65962l1.64906,3.29812l-0.32981,2.63849l-0.32981,1.64906l-1.31925,0.98944l-0.65962,0.98944l-0.32981,0.98944l0,2.96831l-0.65962,1.64906l-1.31925,1.31925l-1.97887,0.98944l-5.6068,2.30868l-0.32981,1.31925l-0.32981,1.31925l0.32981,2.96831l-0.65962,0.98944l-0.65962,0.32981l-2.30868,-0.65962l-0.98944,0l-0.98944,0.65962l-0.65962,1.31925l-1.97887,4.28755l-4.28755,7.25586l-1.64906,1.31925l-1.97887,0.65962l-2.30868,0.32981l-3.29812,-0.32981l-4.61736,-1.64906l-3.95774,-1.64906l-7.58567,-4.94718l-2.30868,-0.65962l-1.64906,0.32981l-0.65962,1.31925l0,1.31925l0.32981,2.30868l-0.98944,1.31925l-0.98944,1.31925l-5.6068,3.29812l-1.97887,1.31925l-0.98944,1.31925l0,1.64906l0.32981,1.31925l2.30868,1.31925l1.64906,0.32981l1.97887,0.98944l1.97887,1.64906l4.94718,6.26642l1.97887,3.95774l0.65962,0.98944l2.63849,1.64906l1.31925,1.31925l0.98944,1.64906l1.31925,4.61736l0.32981,2.30868l-0.65962,1.64906l-2.30868,3.62793l-1.31925,1.97887l-1.31925,2.96831l-1.31925,3.29812l0,2.63849l1.31925,5.6068l-0.32981,2.63849l-4.28755,10.22416l-1.31925,2.30868l-1.64906,1.97887l-1.64906,1.64906l0,1.64906l2.30868,1.31925l3.95774,0.65962l4.28755,-0.32981l3.62793,-0.65962l2.96831,-1.31925l0.32981,-0.65962l3.62793,-0.65962l1.97887,-1.64906l28.034,-13.52228l6.59623,-2.30868l1.31925,-0.65962l2.63849,-2.96831l4.28755,-8.5751l7.91548,-7.58567l2.30868,-0.98944l2.30868,-1.64906l2.63849,0l1.31925,0.98944l0.32981,0.98944l-0.65962,1.97887l-1.64906,1.97887l-8.5751,8.24529l-1.97887,2.96831l-1.31925,2.96831l-0.32981,2.63849l0.65962,2.96831l0.98944,1.64906l1.97887,0.65962l1.31925,0.65962l1.64906,0.65962l8.24529,5.6068l2.96831,1.31925l7.58567,0.98944l2.30868,0.65962l0.98944,0.98944l0,0.98944l-1.31925,1.97887l-2.96831,2.63849l-0.32981,1.31925l0.65962,1.31925l0.98944,0.98944l1.64906,1.97887l-1.64906,3.95774l-29.68305,1.97887l-2.63849,0.65962l-1.97887,0.65962l-1.97887,1.31925l-3.95774,2.30868l-17.15021,5.27699l-4.94718,0.98944l-5.93661,0l-1.97887,0.65962l-2.30868,1.31925l-15.83096,7.25586l-8.5751,0.65962l-2.30868,0.65962l-2.30868,0.98944l-1.97887,0l-1.64906,0l-2.63849,-0.65962l-2.30868,0.32981l-2.30868,0.32981l-2.30868,0.32981l-1.97887,0.98944l-3.29812,1.97887l-2.30868,0.32981l-3.62793,1.64906l-1.97887,0.65962l-6.92605,4.94718l-4.28755,1.97887l-2.63849,0.65962l-2.30868,-0.65962l-1.64906,-0.65962l-1.31925,-0.65962l-0.98944,0l-0.65962,0.65962l-0.98944,2.63849l-1.31925,0.98944l-1.64906,-0.32981l-1.64906,-0.98944l-1.97887,-0.65962l-2.63849,-0.65962l-4.28755,0l-12.86266,2.30868l-4.94718,0.32981l-8.90492,-0.65962l0,-4.28755l-0.65962,-1.64906l-1.31925,-1.31925l-5.93661,-0.65962l-2.96831,-0.98944l-1.64906,-3.62793l-0.65962,-0.98944l-0.98944,0l-1.97887,0.32981l-0.98944,-0.32981l-0.32981,-1.64906l-0.65962,-0.98944l-0.65962,-0.65962l-1.97887,0.32981l-2.96831,0.65962l-1.31925,0l-3.95774,-0.98944l-2.30868,0l-2.30868,0.65962l-6.26642,3.62793l-0.98944,0l-0.65962,-0.65962l0.65962,-1.97887l1.64906,-3.29812l0.32981,-1.64906l0.32981,-2.63849l0,-8.24529l-0.65962,-2.63849l-1.64906,-3.29812l-4.61736,-5.27699l-3.62793,-6.26642l-2.96831,-1.64906l-4.28755,-0.65962l-1.31925,-0.98944l-0.32981,-0.98944l0.32981,-1.31925l0.98944,-0.65962l0.98944,-0.98944l0.98944,-0.98944l0.32981,-1.64906l0,-2.63849l0.32981,-1.64906l0.98944,-2.63849l1.97887,-2.63849l1.97887,-3.62793l0.65962,-3.62793l-0.32981,-3.95774l-0.98944,-6.26642l-1.97887,-6.26642l0,-1.97887l1.64906,-4.61736l3.62793,-1.64906l2.30868,-0.65962l4.61736,-0.98944l1.31925,-0.98944l0.98944,-1.31925l0.65962,-2.30868l0.65962,-4.94718l0.98944,-2.30868l1.64906,-2.30868l3.29812,-3.29812l1.97887,-2.96831l1.97887,-3.62793l0,-2.30868l0,-1.64906l0.32981,-1.97887l0.98944,-1.97887l1.97887,-3.62793l0.98944,-2.30868l0.32981,-1.97887l-2.63849,-4.94718l0.98944,-2.63849l1.97887,-3.29812l4.94718,-6.59623l1.97887,-4.28755l1.31925,-4.28755l0.65962,-16.16077l-0.32981,-1.97887l0.32981,-1.31925l1.31925,-0.98944l1.64906,-0.65962l1.64906,-0.32981l4.28755,-1.31925l1.31925,0l1.31925,0.65962l1.97887,1.64906l0.98944,0.65962l1.31925,-0.32981l2.30868,-0.65962l1.64906,-1.64906l1.97887,-3.62793l0.32981,-1.64906l0.65962,-1.64906l0.65962,-0.32981l1.64906,0.32981l3.62793,0.65962l1.97887,0l0.98944,-0.65962l1.97887,-3.29812l0.65962,-0.98944l1.31925,-0.32981l0.65962,-0.98944l0.65962,-1.97887l0.32981,-4.61736l0.65962,-1.64906l1.31925,-1.31925l6.26642,-1.97887l12.86266,-6.59623l1.97887,-1.64906l2.30868,-3.95774z" id="ECT" name="Tungurahua"/>
   <path stroke="null" d="m499.1239,1160.30964l-1.64906,2.96831l-0.32981,1.31925l0,2.63849l1.64906,4.94718l0.32981,1.64906l-0.32981,1.97887l-0.65962,1.64906l-1.31925,1.64906l-1.64906,1.31925l-4.28755,2.30868l-1.64906,1.31925l-1.31925,1.64906l-1.31925,1.97887l-1.31925,0.98944l-0.98944,1.31925l-0.98944,0.98944l-0.98944,1.64906l-0.32981,1.97887l0,3.62793l0.32981,3.29812l0.65962,2.63849l0.65962,1.64906l0.98944,0.98944l0.98944,0.98944l0.65962,1.64906l0.65962,4.28755l1.31925,5.27699l-0.65962,2.30868l-7.25586,7.91548l-4.61736,7.58567l-0.65962,1.97887l0,2.30868l0.65962,1.31925l1.31925,1.31925l1.31925,0.98944l1.31925,1.64906l0.65962,2.30868l0,4.28755l0.65962,1.97887l1.64906,3.62793l-0.32981,1.31925l-2.30868,1.64906l-2.63849,1.31925l-2.63849,1.97887l-1.64906,2.96831l-1.31925,4.94718l0.65962,6.92605l0.32981,0.98944l0.65962,0.98944l0,0.98944l-0.98944,1.31925l-2.96831,2.30868l-1.64906,1.64906l-0.98944,2.63849l0,1.97887l-0.65962,2.30868l-0.98944,1.64906l-6.26642,4.28755l-3.62793,-1.64906l-22.4272,2.63849l-6.59623,1.64906l-4.61736,1.64906l-3.95774,3.95774l-2.96831,2.63849l-6.26642,2.96831l-5.6068,1.31925l-5.27699,0.65962l-3.95774,-0.65962l-2.30868,-0.98944l-3.62793,-2.30868l-3.62793,-1.64906l-2.63849,-1.64906l-2.63849,-2.63849l-5.93661,-7.91548l-1.64906,-1.31925l-1.64906,-1.31925l-0.98944,-0.65962l-0.98944,-1.31925l-0.98944,-2.63849l-0.65962,-0.98944l-0.98944,-0.32981l-0.98944,-0.65962l-0.98944,-0.65962l-1.31925,-1.64906l-0.32981,-0.98944l-0.65962,-4.94718l9.56454,-4.94718l6.26642,-6.59623l3.62793,-4.94718l0.65962,-1.97887l0.32981,-1.97887l-0.32981,-1.97887l-0.98944,-1.64906l-0.32981,-1.64906l-0.32981,-2.30868l4.61736,-22.75701l0,-1.97887l-0.98944,-3.95774l-0.65962,-5.6068l0.65962,-7.91548l0,-3.29812l0.65962,-1.64906l0.98944,-1.31925l1.64906,-1.31925l1.97887,-1.31925l6.59623,-0.65962l2.30868,-0.65962l6.26642,-5.6068l3.62793,-5.6068l1.97887,-4.61736l0.65962,-4.94718l-0.32981,-5.93661l0.32981,-3.95774l0.65962,-4.28755l0,-2.96831l-0.98944,-2.30868l-2.96831,-4.61736l-0.98944,-2.30868l-0.32981,-1.64906l0.32981,-3.62793l3.62793,-1.31925l5.93661,-3.62793l2.30868,-0.98944l2.30868,-0.32981l2.30868,0.65962l2.63849,1.31925l5.27699,3.95774l3.62793,1.97887l4.28755,1.64906l9.56454,1.97887l4.61736,0.32981l4.28755,-0.65962l2.96831,-0.98944l3.62793,-0.65962l2.63849,0.32981l2.96831,0.65962l1.97887,-0.65962l1.64906,-1.97887l1.31925,-2.96831l1.64906,-1.64906l1.97887,-0.32981l2.30868,0.98944l4.28755,2.96831l2.30868,0.98944l3.29812,0.98944l1.97887,0.65962l1.97887,1.31925l2.30868,0.65962l1.31925,0.65962l0.65962,0.98944l0.65962,3.29812l1.31925,1.64906z" id="ECH" name="Chimborazo"/>
   <path stroke="null" d="m360.60298,1281.35054l0.32981,-7.25586l-0.65962,-1.31925l-1.64906,-1.64906l-1.64906,0l-1.64906,0.98944l-0.98944,1.31925l-1.31925,0.65962l-1.97887,0l-2.30868,0l-7.25586,-1.31925l2.96831,-5.6068l1.31925,-5.93661l1.31925,-2.96831l0,-1.64906l-1.31925,-2.30868l-5.93661,-9.89435l-5.93661,-7.58567l0,-1.64906l0.65962,-1.31925l2.30868,-1.64906l0.65962,-0.98944l2.96831,-11.87322l1.64906,-3.29812l0.65962,-2.63849l-0.98944,-1.97887l-1.31925,-1.97887l-1.31925,-2.30868l-0.65962,-2.30868l0,-1.97887l0.65962,-3.29812l-0.32981,-1.64906l-5.27699,-7.91548l-1.97887,-3.95774l-1.31925,-1.64906l-1.31925,-0.65962l-0.98944,0l-0.98944,-0.32981l-0.65962,-0.98944l-0.98944,-0.32981l-1.31925,-0.32981l-0.98944,-0.32981l-0.65962,-0.98944l0.32981,-0.98944l0.98944,-0.65962l1.64906,-0.98944l1.31925,-1.31925l4.94718,-5.6068l0.98944,0l0.98944,0.32981l0.98944,0.65962l0.65962,0l0.98944,-0.65962l0.98944,-1.64906l0.65962,-1.64906l0.98944,-2.63849l0.32981,-2.30868l-0.98944,-2.30868l-1.64906,-1.31925l-5.6068,-3.62793l-2.63849,-2.63849l-1.31925,-2.96831l-0.98944,-3.95774l0.32981,-13.85209l0.32981,-1.64906l0.98944,-1.31925l0.65962,0l0.98944,0l0.98944,-0.32981l0.98944,-0.98944l0.32981,-0.98944l0,-0.98944l-5.27699,-3.62793l-1.64906,-3.29812l-1.31925,-0.65962l-0.98944,0l-0.98944,0.98944l-2.30868,3.29812l-1.31925,1.31925l-1.64906,0.65962l-1.31925,-0.32981l-0.32981,-0.98944l0.32981,-2.30868l2.63849,-3.29812l4.28755,-6.59623l3.29812,-4.61736l8.5751,-3.95774l8.24529,-0.65962l13.19247,-6.59623l3.95774,-0.98944l5.27699,-0.65962l2.30868,0l2.63849,0.32981l0.98944,0.98944l0.98944,1.31925l0.98944,1.31925l5.6068,3.29812l3.29812,1.64906l4.28755,1.31925l3.95774,-0.32981l2.96831,-0.98944l4.94718,-3.95774l2.96831,-1.64906l2.30868,-0.32981l4.94718,1.64906l-3.62793,6.92605l-0.65962,2.30868l-0.32981,6.92605l-0.65962,2.96831l-2.30868,5.27699l-1.31925,3.29812l-1.97887,8.90492l0.65962,2.30868l4.28755,6.26642l1.97887,2.63849l1.64906,2.30868l-0.32981,3.62793l0.32981,1.64906l0.98944,2.30868l2.96831,4.61736l0.98944,2.30868l0,2.96831l-0.65962,4.28755l-0.32981,3.95774l0.32981,5.93661l-0.65962,4.94718l-1.97887,4.61736l-3.62793,5.6068l-6.26642,5.6068l-2.30868,0.65962l-6.59623,0.65962l-1.97887,1.31925l-1.64906,1.31925l-0.98944,1.31925l-0.65962,1.64906l0,3.29812l-0.65962,7.91548l0.65962,5.6068l0.98944,3.95774l0,1.97887l-4.61736,22.75701l0.32981,2.30868l0.32981,1.64906l0.98944,1.64906l0.32981,1.97887l-0.32981,1.97887l-0.65962,1.97887l-3.62793,4.94718l-6.26642,6.59623l-9.56454,4.94718z" id="ECB" name="Bolivar"/>
   <path stroke="null" d="m381.71093,840.06247l3.29812,0l0.98944,0l0.65962,-0.65962l0.98944,-1.31925l5.93661,-9.23473l3.62793,-3.95774l1.97887,-1.31925l0.32981,-0.32981l0,-0.98944l0,-0.98944l0.65962,-1.31925l0.98944,-1.31925l2.30868,-2.30868l1.97887,-1.97887l3.29812,-1.97887l2.30868,-0.65962l1.97887,-0.32981l5.27699,1.97887l6.26642,0.65962l1.97887,0.65962l3.62793,0.65962l1.97887,0.32981l1.64906,0l1.64906,0.65962l0.98944,0.98944l2.63849,2.63849l1.64906,0.98944l0.98944,0.32981l1.31925,0l1.31925,-0.65962l2.96831,-2.30868l2.96831,-3.29812l5.93661,-7.91548l5.93661,-6.26642l2.30868,-3.62793l1.64906,-1.31925l5.6068,-4.28755l1.64906,-0.65962l1.64906,0l2.63849,0.32981l1.97887,0l2.63849,-0.32981l1.64906,-0.65962l1.31925,-0.98944l0.98944,-1.31925l0.32981,-2.30868l0,-2.63849l-1.64906,-2.96831l-4.61736,-5.93661l-0.98944,-1.64906l-0.98944,-1.97887l-1.31925,-5.27699l-0.65962,-1.97887l-5.27699,-9.56454l-0.32981,-1.64906l0.32981,-0.98944l1.64906,-0.98944l1.64906,-0.32981l3.29812,-0.32981l1.31925,-0.32981l1.31925,-0.98944l1.64906,-1.31925l0.98944,-1.97887l0.32981,-2.63849l-0.32981,-3.29812l0.32981,-6.92605l2.63849,1.31925l3.29812,0.98944l6.59623,0.65962l2.30868,0.65962l1.31925,0.65962l3.29812,2.96831l7.91548,5.27699l5.6068,4.94718l4.28755,4.94718l4.61736,8.24529l6.92605,8.90492l3.95774,10.22416l0,1.64906l-0.32981,4.94718l0.32981,3.29812l0.98944,3.29812l1.97887,2.63849l6.59623,1.31925l1.31925,0.98944l2.30868,1.64906l3.62793,0.65962l2.96831,0.32981l6.26642,1.64906l8.24529,4.61736l7.25586,4.94718l8.24529,4.61736l2.30868,1.64906l2.96831,3.95774l4.28755,1.97887l-5.6068,7.25586l-0.98944,2.30868l0,1.31925l0,0.32981l0.32981,0.32981l0.32981,0.32981l0.32981,0l0.32981,0l0.32981,0l0.65962,0.32981l0.32981,0.32981l0.32981,0.65962l0,0.65962l-0.65962,0.65962l-0.65962,0.32981l-2.30868,2.63849l-3.29812,4.61736l-0.65962,0.98944l-0.65962,0.65962l-0.98944,0.32981l-0.65962,0.32981l-0.98944,0.32981l-2.63849,1.64906l-6.26642,6.59623l-20.44833,-6.26642l-2.96831,-0.32981l-2.30868,1.31925l-4.28755,3.29812l-2.96831,1.97887l-7.91548,3.62793l-4.94718,1.31925l-4.28755,0l-4.94718,-1.31925l-3.29812,-1.64906l-2.63849,-1.97887l-3.95774,-3.29812l-1.97887,-1.64906l-1.64906,0l-1.97887,0.65962l-3.29812,2.96831l-0.98944,0.32981l-0.32981,-0.65962l0,-1.31925l1.31925,-3.29812l0,-1.64906l-0.32981,-1.97887l-0.32981,-1.97887l-1.31925,-1.31925l-2.96831,-1.31925l-4.94718,-0.32981l-9.23473,0.32981l-9.56454,1.97887l-2.30868,-0.32981l-3.95774,1.31925l-9.23473,0.98944l-1.97887,0.65962l-2.30868,0.32981l-3.95774,0l-18.13964,-3.95774l-4.28755,-0.32981l-15.17134,1.64906l-7.25586,2.30868l-3.62793,0.32981l-2.30868,0.65962l-2.63849,0l-2.96831,-0.65962l-2.63849,-1.31925l-1.97887,-0.98944l-2.96831,-6.92605z" id="ECI" name="Imbabura"/>
   <path stroke="null" d="m492.52766,1059.71707l-5.27699,4.61736l-0.65962,1.31925l-0.98944,1.97887l-0.65962,1.64906l-0.32981,1.97887l0,2.96831l-1.97887,3.62793l-1.64906,1.97887l-2.30868,0.98944l-4.28755,0.32981l-2.30868,-0.98944l-1.31925,-0.98944l-0.98944,-0.98944l-1.31925,-0.65962l-1.31925,-0.65962l-1.64906,0l-1.97887,0.32981l-1.97887,1.64906l0,0.98944l0,2.63849l-0.65962,1.31925l-1.31925,0.98944l-1.64906,0.65962l-4.61736,0.32981l-1.97887,0.65962l-4.28755,3.29812l-2.63849,1.31925l-2.96831,0.65962l-4.61736,0l-8.24529,-1.97887l-3.29812,0.32981l-3.29812,0.65962l-4.28755,1.31925l-4.94718,4.28755l-5.27699,1.97887l-4.94718,-1.64906l-2.30868,0.32981l-2.96831,1.64906l-4.94718,3.95774l-2.96831,0.98944l-3.95774,0.32981l-4.28755,-1.31925l-3.29812,-1.64906l-5.6068,-3.29812l-0.98944,-1.31925l-0.98944,-1.31925l-0.98944,-0.98944l-2.63849,-0.32981l-2.30868,0l-5.27699,0.65962l-3.95774,0.98944l-13.19247,6.59623l-8.24529,0.65962l-1.31925,-5.6068l-4.61736,-6.26642l-1.64906,-2.63849l0,-4.28755l0.65962,-4.61736l2.63849,-12.53284l-0.32981,-2.96831l0,-3.29812l0.65962,-2.96831l2.30868,-6.26642l1.31925,-2.63849l1.97887,-1.97887l1.97887,-1.64906l1.97887,-1.64906l4.94718,-8.90492l1.31925,-1.64906l1.64906,-1.31925l1.64906,-0.98944l1.64906,-0.98944l0.98944,-1.31925l2.63849,-4.61736l12.20303,-29.02343l1.97887,-7.91548l2.63849,3.95774l0.65962,0.65962l0.98944,0.65962l1.64906,0.65962l0.98944,-0.32981l1.97887,-0.65962l0.98944,-1.31925l0.65962,-1.31925l0.65962,-2.63849l0.65962,-0.98944l1.31925,-0.65962l1.97887,-0.65962l1.31925,-0.65962l0.65962,-0.32981l0,-0.98944l-0.32981,-1.31925l-0.65962,-1.64906l-0.98944,-1.31925l-1.31925,-0.98944l-2.96831,-1.64906l-0.98944,-0.65962l-0.32981,-0.65962l0,-0.98944l0.98944,-0.98944l1.64906,-2.96831l1.97887,-5.27699l0.98944,-0.98944l0.65962,-0.65962l0.65962,-0.65962l2.96831,-1.31925l0.98944,-0.65962l0.65962,-0.65962l0.32981,-1.31925l0.32981,-1.31925l0.32981,-1.31925l0.98944,-1.31925l0.65962,-0.65962l0.98944,-0.32981l1.97887,-0.65962l0.65962,-0.65962l0.65962,-0.65962l0.32981,-0.32981l0.98944,-0.32981l1.64906,1.31925l0.65962,0.65962l0,2.30868l0.32981,1.31925l6.92605,8.5751l2.63849,4.94718l1.97887,3.29812l0.65962,1.64906l0.98944,4.28755l0.65962,1.97887l2.63849,1.97887l11.2136,8.24529l2.96831,3.95774l1.64906,3.95774l0.32981,2.96831l0.65962,1.64906l1.31925,1.64906l0.98944,0.65962l1.97887,-0.65962l4.61736,-3.29812l1.64906,-0.65962l1.31925,-0.32981l1.31925,-0.65962l1.31925,-0.65962l1.64906,-1.64906l2.30868,-0.98944l1.64906,-0.32981l1.31925,1.31925l0.98944,1.31925l0.98944,0.32981l1.97887,-0.65962l4.61736,-2.63849l1.97887,0l2.63849,0l4.28755,0.65962l2.30868,-0.32981l4.94718,1.97887l11.87322,12.20303l-1.64906,4.61736l0,1.97887l1.97887,6.26642l0.98944,6.26642l0.32981,3.95774l-0.65962,3.62793l-1.97887,3.62793l-1.97887,2.63849l-0.98944,2.63849l-0.32981,1.64906l0,2.63849l-0.32981,1.64906l-0.98944,0.98944l-0.98944,0.98944l-0.98944,0.65962l-0.32981,1.31925l0.32981,0.98944l1.31925,0.98944l4.28755,0.65962l2.96831,1.64906z" id="ECX" name="Cotopaxi"/>
   <path stroke="null" d="m341.4739,1272.77543l-8.90492,-8.5751l-13.19247,-22.09738l-2.30868,-2.30868l-5.27699,-4.28755l-2.30868,-1.31925l-3.95774,-1.97887l-7.91548,-5.6068l-3.62793,-1.64906l-3.95774,-0.32981l-2.96831,0.32981l-9.23473,3.29812l-6.26642,0.98944l-3.95774,-0.98944l-1.31925,-1.31925l-0.98944,-3.95774l-4.28755,-7.58567l-2.30868,-5.93661l-1.31925,-2.30868l-4.28755,-5.93661l-1.64906,-2.96831l-1.31925,-3.62793l-1.97887,-3.62793l-2.63849,-2.63849l-14.51172,-7.58567l-0.98944,-0.98944l-0.32981,-1.97887l-0.32981,-2.30868l0,-2.30868l1.31925,-2.96831l0.32981,-1.31925l-2.63849,-7.91548l0,-1.97887l0.65962,-11.2136l0.32981,-1.97887l2.96831,-8.24529l0.98944,-1.64906l1.97887,-3.29812l3.29812,-3.29812l1.64906,-1.97887l9.89435,-18.79927l0.32981,-1.64906l0.65962,-1.97887l0,-3.62793l0,-0.98944l0.65962,-0.98944l0.65962,-0.32981l0.98944,-0.32981l1.97887,-0.32981l0.65962,-0.65962l0.65962,-0.65962l0.32981,-1.97887l0.32981,-0.98944l0.65962,-0.32981l0.65962,-0.32981l1.31925,-0.32981l0.98944,-0.32981l0.65962,-1.31925l0.65962,-1.31925l0.32981,-1.97887l0.65962,-1.31925l1.31925,-0.32981l2.63849,-0.32981l1.31925,-0.98944l1.64906,-2.63849l1.97887,-2.30868l0.65962,-0.98944l0.98944,-0.98944l1.64906,-0.65962l1.64906,-0.32981l1.64906,-0.32981l0.98944,-1.31925l0.98944,-1.97887l1.31925,-6.26642l0.32981,-1.31925l0.98944,-1.97887l0.98944,-1.31925l1.64906,-1.31925l1.31925,-0.65962l0.98944,-1.64906l0,-0.98944l-0.65962,-1.31925l0,-1.64906l2.63849,-7.91548l0.98944,-5.6068l-0.98944,-2.96831l-2.30868,-1.31925l-2.96831,0l-6.26642,0.65962l-5.93661,1.64906l3.62793,-7.25586l2.30868,-12.20303l1.64906,-3.29812l1.64906,-1.97887l1.64906,-0.98944l1.97887,-0.32981l1.64906,-1.31925l0.65962,-0.98944l1.97887,-6.26642l3.95774,-7.91548l1.64906,-3.95774l2.30868,-8.24529l5.27699,0.32981l3.95774,0.32981l9.56454,-0.32981l3.95774,0.65962l1.97887,0.98944l-0.65962,0.98944l-1.31925,1.31925l-0.65962,1.64906l0.32981,2.63849l0.98944,2.96831l0.32981,2.63849l-0.65962,1.97887l-1.31925,2.30868l-0.32981,1.64906l0.32981,1.64906l0.32981,1.64906l0.98944,1.31925l1.64906,1.31925l2.30868,0.65962l2.30868,0.32981l2.30868,0l2.30868,-0.65962l1.97887,-1.31925l1.64906,-1.97887l2.63849,-2.30868l2.30868,-1.64906l4.61736,-2.63849l1.97887,-1.31925l13.19247,-13.19247l2.63849,-1.31925l1.97887,-0.32981l3.29812,1.31925l-1.97887,7.91548l-12.20303,29.02343l-2.63849,4.61736l-0.98944,1.31925l-1.64906,0.98944l-1.64906,0.98944l-1.64906,1.31925l-1.31925,1.64906l-4.94718,8.90492l-1.97887,1.64906l-1.97887,1.64906l-1.97887,1.97887l-1.31925,2.63849l-2.30868,6.26642l-0.65962,2.96831l0,3.29812l0.32981,2.96831l-2.63849,12.53284l-0.65962,4.61736l0,4.28755l1.64906,2.63849l4.61736,6.26642l1.31925,5.6068l-8.5751,3.95774l-3.29812,4.61736l-4.28755,6.59623l-2.63849,3.29812l-0.32981,2.30868l0.32981,0.98944l1.31925,0.32981l1.64906,-0.65962l1.31925,-1.31925l2.30868,-3.29812l0.98944,-0.98944l0.98944,0l1.31925,0.65962l1.64906,3.29812l5.27699,3.62793l0,0.98944l-0.32981,0.98944l-0.98944,0.98944l-0.98944,0.32981l-0.98944,0l-0.65962,0l-0.98944,1.31925l-0.32981,1.64906l-0.32981,13.85209l0.98944,3.95774l1.31925,2.96831l2.63849,2.63849l5.6068,3.62793l1.64906,1.31925l0.98944,2.30868l-0.32981,2.30868l-0.98944,2.63849l-0.65962,1.64906l-0.98944,1.64906l-0.98944,0.65962l-0.65962,0l-0.98944,-0.65962l-0.98944,-0.32981l-0.98944,0l-4.94718,5.6068l-1.31925,1.31925l-1.64906,0.98944l-0.98944,0.65962l-0.32981,0.98944l0.65962,0.98944l0.98944,0.32981l1.31925,0.32981l0.98944,0.32981l0.65962,0.98944l0.98944,0.32981l0.98944,0l1.31925,0.65962l1.31925,1.64906l1.97887,3.95774l5.27699,7.91548l0.32981,1.64906l-0.65962,3.29812l0,1.97887l0.65962,2.30868l1.31925,2.30868l1.31925,1.97887l0.98944,1.97887l-0.65962,2.63849l-1.64906,3.29812l-2.96831,11.87322l-0.65962,0.98944l-2.30868,1.64906l-0.65962,1.31925l0,1.64906l5.93661,7.58567l5.93661,9.89435l1.31925,2.30868l0,1.64906l-1.31925,2.96831l-1.31925,5.93661l-2.96831,5.6068z" id="ECR" name="Los Rios"/>
   <path stroke="null" d="m318.7169,879.31007l3.62793,-8.5751l2.30868,-4.28755l1.97887,-5.27699l2.30868,-3.29812l0.65962,-0.98944l-0.32981,-0.98944l-0.32981,-1.31925l-1.31925,-1.31925l-1.64906,-1.31925l-4.61736,-3.29812l-0.65962,-0.98944l0,-1.31925l0.98944,-1.31925l1.64906,-0.98944l3.62793,-1.64906l2.63849,-1.64906l3.62793,-2.96831l1.64906,-0.98944l2.30868,-0.98944l1.64906,-0.98944l5.27699,-3.29812l1.97887,-0.65962l2.63849,0l4.28755,0.32981l4.61736,0l18.79927,3.95774l1.64906,0.65962l0.98944,0.65962l2.63849,3.62793l2.96831,6.92605l1.97887,0.98944l2.63849,1.31925l2.96831,0.65962l2.63849,0l2.30868,-0.65962l3.62793,-0.32981l7.25586,-2.30868l15.17134,-1.64906l4.28755,0.32981l18.13964,3.95774l3.95774,0l2.30868,-0.32981l1.97887,-0.65962l9.23473,-0.98944l3.95774,-1.31925l2.30868,0.32981l9.56454,-1.97887l9.23473,-0.32981l4.94718,0.32981l2.96831,1.31925l1.31925,1.31925l0.32981,1.97887l0.32981,1.97887l0,1.64906l-1.31925,3.29812l0,1.31925l0.32981,0.65962l0.98944,-0.32981l3.29812,-2.96831l1.97887,-0.65962l1.64906,0l1.97887,1.64906l3.95774,3.29812l2.63849,1.97887l3.29812,1.64906l4.94718,1.31925l4.28755,0l4.94718,-1.31925l7.91548,-3.62793l2.96831,-1.97887l4.28755,-3.29812l2.30868,-1.31925l2.96831,0.32981l20.44833,6.26642l-4.28755,7.58567l-0.32981,0l0,0.32981l0.32981,0.32981l0.32981,0.32981l0.65962,0.32981l1.97887,0.65962l1.97887,0.65962l0.32981,0l0.32981,0l0.65962,0l0.32981,0l4.94718,2.30868l2.30868,0.98944l0.98944,0l0.65962,0.32981l0.65962,0.32981l2.63849,1.31925l0.98944,0.98944l0.65962,0.98944l0.32981,1.64906l0.32981,1.97887l0.32981,0.32981l0,0.32981l0.98944,0.65962l1.97887,0.65962l-2.30868,3.95774l-1.97887,1.64906l-12.86266,6.59623l-6.26642,1.97887l-1.31925,1.31925l-0.65962,1.64906l-0.32981,4.61736l-0.65962,1.97887l-0.65962,0.98944l-1.31925,0.32981l-0.65962,0.98944l-1.97887,3.29812l-0.98944,0.65962l-1.97887,0l-3.62793,-0.65962l-1.64906,-0.32981l-0.65962,0.32981l-0.65962,1.64906l-0.32981,1.64906l-1.97887,3.62793l-1.64906,1.64906l-2.30868,0.65962l-1.31925,0.32981l-0.98944,-0.65962l-1.97887,-1.64906l-1.31925,-0.65962l-1.31925,0l-4.28755,1.31925l-1.64906,0.32981l-1.64906,0.65962l-1.31925,0.98944l-0.32981,1.31925l0.32981,1.97887l-0.65962,16.16077l-1.31925,4.28755l-1.97887,4.28755l-4.94718,6.59623l-1.97887,3.29812l-0.98944,2.63849l2.63849,4.94718l-0.32981,1.97887l-0.98944,2.30868l-1.97887,3.62793l-0.98944,1.97887l-0.32981,1.97887l0,1.64906l0,2.30868l-1.97887,3.62793l-1.97887,2.96831l-3.29812,3.29812l-1.64906,2.30868l-0.98944,2.30868l-0.65962,4.94718l-0.65962,2.30868l-0.98944,1.31925l-1.31925,0.98944l-4.61736,0.98944l-2.30868,0.65962l-3.62793,1.64906l-11.87322,-12.20303l-4.94718,-1.97887l-2.30868,0.32981l-4.28755,-0.65962l-2.63849,0l-1.97887,0l-4.61736,2.63849l-1.97887,0.65962l-0.98944,-0.32981l-0.98944,-1.31925l-1.31925,-1.31925l-1.64906,0.32981l-2.30868,0.98944l-1.64906,1.64906l-1.31925,0.65962l-1.31925,0.65962l-1.31925,0.32981l-1.64906,0.65962l-4.61736,3.29812l-1.97887,0.65962l-0.98944,-0.65962l-1.31925,-1.64906l-0.65962,-1.64906l-0.32981,-2.96831l-1.64906,-3.95774l-2.96831,-3.95774l-11.2136,-8.24529l-2.63849,-1.97887l-0.65962,-1.97887l-0.98944,-4.28755l-0.65962,-1.64906l-1.97887,-3.29812l-2.63849,-4.94718l-6.92605,-8.5751l-0.32981,-1.31925l0,-2.30868l-0.65962,-0.65962l-1.64906,-1.31925l5.6068,-8.5751l22.75701,-2.30868l3.29812,-12.53284l-9.23473,-10.22416l-16.8204,-8.90492l-5.6068,-5.6068l-31.66192,0.98944l-1.31925,-14.84153l-36.27929,-0.98944l-9.56454,-7.25586z" id="ECP" name="Pichincha"/>
   <path stroke="null" d="m277.16062,890.19385l3.62793,-0.32981l3.95774,0.98944l10.88379,1.31925l5.27699,1.31925l1.64906,0.98944l1.64906,0.65962l1.64906,1.64906l0.32981,0l0.65962,-0.65962l0.65962,-0.65962l0.98944,-0.65962l0,-0.98944l-0.32981,-0.65962l-0.65962,-0.32981l-0.65962,0l-0.65962,0l-0.32981,0l-0.65962,-0.32981l-1.97887,-2.63849l-0.32981,-0.98944l0.32981,-0.98944l3.29812,-0.98944l1.64906,-0.98944l4.61736,-0.98944l2.30868,-1.31925l2.63849,-2.30868l0.98944,-1.97887l9.56454,7.25586l36.27929,0.98944l1.31925,14.84153l31.66192,-0.98944l5.6068,5.6068l16.8204,8.90492l9.23473,10.22416l-3.29812,12.53284l-22.75701,2.30868l-5.6068,8.5751l-0.98944,0.32981l-0.32981,0.32981l-0.65962,0.65962l-0.65962,0.65962l-1.97887,0.65962l-0.98944,0.32981l-0.65962,0.65962l-0.98944,1.31925l-0.32981,1.31925l-0.32981,1.31925l-0.32981,1.31925l-0.65962,0.65962l-0.98944,0.65962l-2.96831,1.31925l-0.65962,0.65962l-0.65962,0.65962l-0.98944,0.98944l-1.97887,5.27699l-1.64906,2.96831l-0.98944,0.98944l0,0.98944l0.32981,0.65962l0.98944,0.65962l2.96831,1.64906l1.31925,0.98944l0.98944,1.31925l0.65962,1.64906l0.32981,1.31925l0,0.98944l-0.65962,0.32981l-1.31925,0.65962l-1.97887,0.65962l-1.31925,0.65962l-0.65962,0.98944l-0.65962,2.63849l-0.65962,1.31925l-0.98944,1.31925l-1.97887,0.65962l-0.98944,0.32981l-1.64906,-0.65962l-0.98944,-0.65962l-0.65962,-0.65962l-2.63849,-3.95774l-3.29812,-1.31925l-1.97887,0.32981l-2.63849,1.31925l-13.19247,13.19247l-1.97887,1.31925l-4.61736,2.63849l-2.30868,1.64906l-2.63849,2.30868l-1.64906,1.97887l-1.97887,1.31925l-2.30868,0.65962l-2.30868,0l-2.30868,-0.32981l-2.30868,-0.65962l-1.64906,-1.31925l-0.98944,-1.31925l-0.32981,-1.64906l-0.32981,-1.64906l0.32981,-1.64906l1.31925,-2.30868l0.65962,-1.97887l-0.32981,-2.63849l-0.98944,-2.96831l-0.32981,-2.63849l0.65962,-1.64906l1.31925,-1.31925l0.65962,-0.98944l-1.97887,-0.98944l-3.95774,-0.65962l-9.56454,0.32981l-3.95774,-0.32981l-5.27699,-0.32981l2.96831,-3.95774l1.97887,-4.94718l0.32981,-1.64906l0.32981,-3.95774l5.6068,-8.90492l1.31925,-2.63849l0.65962,-2.63849l-1.31925,-31.99174l0.32981,-2.96831l-0.65962,-1.31925l-1.64906,-0.65962l-1.31925,0l-2.96831,0l-0.98944,0l-6.26642,-1.97887l-1.31925,-0.65962l-4.61736,-4.28755l-4.61736,-5.6068l-1.31925,-1.31925l-2.30868,-1.31925l-1.31925,-1.31925l-1.31925,-0.65962l-0.98944,-0.32981l-1.64906,-1.31925l-0.98944,-1.64906l-0.65962,-3.62793l0.32981,-1.97887l0.32981,-1.31925l1.31925,-1.64906z" id="ECSD" name="Santo Domingo de los Tsáchilas"/>
  </g>
 </g>

</svg>